<svg width="114" height="68" viewBox="0 0 114 68" fill="none" xmlns="http://www.w3.org/2000/svg">
<path d="M92.4665 67.2L73.6204 35.8028L88.8312 26.94L113.8 67.2H92.4665ZM49.7998 67.2V1.19995H68.6458V67.2H49.7998ZM63.1929 41.9314V26.8457H87.4919V41.9314H63.1929ZM90.6488 36.18L73.1421 34.2942L93.7101 1.19995H113.608L90.6488 36.18Z" fill="#FE8C00"/>
<path d="M0 67.2V0H30.72C36.864 0 42.144 0.992 46.56 2.976C51.04 4.96 54.496 7.84 56.928 11.616C59.36 15.328 60.576 19.744 60.576 24.864C60.576 29.92 59.36 34.304 56.928 38.016C54.496 41.728 51.04 44.608 46.56 46.656C42.144 48.64 36.864 49.632 30.72 49.632H10.56L19.008 41.376V67.2H0ZM19.008 43.392L10.56 34.656H29.568C33.536 34.656 36.48 33.792 38.4 32.064C40.384 30.336 41.376 27.936 41.376 24.864C41.376 21.728 40.384 19.296 38.4 17.568C36.48 15.84 33.536 14.976 29.568 14.976H10.56L19.008 6.24V43.392Z" fill="black"/>
</svg>
