<svg width="347" height="110" viewBox="0 0 347 110" fill="none" xmlns="http://www.w3.org/2000/svg">
<path d="M0.576 15.966C1.068 15.966 1.47 15.816 1.782 15.516C2.094 15.204 2.328 14.796 2.484 14.292C2.652 13.776 2.778 13.14 2.862 12.384L2.916 11.898C2.988 11.154 3.048 10.398 3.096 9.63C3.144 8.862 3.192 8.076 3.24 7.272L3.402 5.022L11.844 5.04V15.966H12.816V20.16H10.656V18H2.736V20.16H0.576V15.966ZM9.684 15.966V7.074L5.382 7.056C5.334 7.716 5.292 8.322 5.256 8.874C5.184 10.182 5.1 11.322 5.004 12.294C4.908 13.362 4.794 14.136 4.662 14.616C4.542 15.084 4.302 15.534 3.942 15.966H9.684ZM19.0972 18.27C18.1372 18.27 17.2912 18.054 16.5592 17.622C15.8272 17.178 15.2572 16.572 14.8492 15.804C14.4532 15.024 14.2552 14.136 14.2552 13.14C14.2552 12.132 14.4592 11.244 14.8672 10.476C15.2752 9.696 15.8452 9.09 16.5772 8.658C17.3092 8.226 18.1492 8.01 19.0972 8.01C20.0452 8.01 20.8852 8.232 21.6172 8.676C22.3612 9.108 22.9312 9.714 23.3272 10.494C23.7352 11.262 23.9392 12.144 23.9392 13.14C23.9392 14.136 23.7352 15.024 23.3272 15.804C22.9312 16.584 22.3612 17.19 21.6172 17.622C20.8852 18.054 20.0452 18.27 19.0972 18.27ZM19.0972 16.236C19.9252 16.236 20.5552 15.96 20.9872 15.408C21.4312 14.844 21.6532 14.088 21.6532 13.14C21.6532 12.168 21.4312 11.412 20.9872 10.872C20.5552 10.32 19.9252 10.044 19.0972 10.044C18.2452 10.044 17.6032 10.32 17.1712 10.872C16.7512 11.424 16.5412 12.18 16.5412 13.14C16.5412 14.1 16.7572 14.856 17.1892 15.408C17.6332 15.96 18.2692 16.236 19.0972 16.236ZM25.9221 8.28H32.8521V10.314H28.0821V18H25.9221V8.28ZM38.6968 18.27C37.7368 18.27 36.8908 18.054 36.1588 17.622C35.4268 17.178 34.8568 16.572 34.4488 15.804C34.0528 15.024 33.8548 14.136 33.8548 13.14C33.8548 12.132 34.0588 11.244 34.4668 10.476C34.8748 9.696 35.4448 9.09 36.1768 8.658C36.9088 8.226 37.7488 8.01 38.6968 8.01C39.6448 8.01 40.4848 8.232 41.2168 8.676C41.9608 9.108 42.5308 9.714 42.9268 10.494C43.3348 11.262 43.5388 12.144 43.5388 13.14C43.5388 14.136 43.3348 15.024 42.9268 15.804C42.5308 16.584 41.9608 17.19 41.2168 17.622C40.4848 18.054 39.6448 18.27 38.6968 18.27ZM38.6968 16.236C39.5248 16.236 40.1548 15.96 40.5868 15.408C41.0308 14.844 41.2528 14.088 41.2528 13.14C41.2528 12.168 41.0308 11.412 40.5868 10.872C40.1548 10.32 39.5248 10.044 38.6968 10.044C37.8448 10.044 37.2028 10.32 36.7708 10.872C36.3508 11.424 36.1408 12.18 36.1408 13.14C36.1408 14.1 36.3568 14.856 36.7888 15.408C37.2328 15.96 37.8688 16.236 38.6968 16.236ZM45.5037 8.28H49.9137C50.5497 8.28 51.0897 8.346 51.5337 8.478C52.0497 8.622 52.4697 8.904 52.7937 9.324C53.1297 9.732 53.2977 10.266 53.2977 10.926C53.2977 11.658 53.0577 12.222 52.5777 12.618C52.3737 12.786 52.1637 12.906 51.9477 12.978C52.1877 13.014 52.4097 13.086 52.6137 13.194C53.3937 13.566 53.7837 14.25 53.7837 15.246C53.7837 15.906 53.6217 16.458 53.2977 16.902C52.9857 17.346 52.5297 17.652 51.9297 17.82C51.5337 17.94 50.9817 18 50.2737 18H45.5037V8.28ZM50.1297 16.326C50.4297 16.326 50.6997 16.284 50.9397 16.2C51.1437 16.116 51.2997 15.978 51.4077 15.786C51.5157 15.594 51.5697 15.384 51.5697 15.156C51.5697 14.88 51.4977 14.652 51.3537 14.472C51.2217 14.292 51.0417 14.166 50.8137 14.094C50.6577 14.034 50.4117 14.004 50.0757 14.004H47.6997V16.326H50.1297ZM49.4997 12.294C49.9437 12.294 50.2737 12.246 50.4897 12.15C50.6697 12.078 50.8077 11.952 50.9037 11.772C51.0117 11.58 51.0657 11.37 51.0657 11.142C51.0657 10.89 51.0117 10.668 50.9037 10.476C50.7957 10.284 50.6337 10.152 50.4177 10.08C50.2017 10.008 49.8837 9.972 49.4637 9.972H47.6997V12.294H49.4997ZM59.896 18.27C58.936 18.27 58.09 18.054 57.358 17.622C56.626 17.178 56.056 16.572 55.648 15.804C55.252 15.024 55.054 14.136 55.054 13.14C55.054 12.132 55.258 11.244 55.666 10.476C56.074 9.696 56.644 9.09 57.376 8.658C58.108 8.226 58.948 8.01 59.896 8.01C60.844 8.01 61.684 8.232 62.416 8.676C63.16 9.108 63.73 9.714 64.126 10.494C64.534 11.262 64.738 12.144 64.738 13.14C64.738 14.136 64.534 15.024 64.126 15.804C63.73 16.584 63.16 17.19 62.416 17.622C61.684 18.054 60.844 18.27 59.896 18.27ZM59.896 16.236C60.724 16.236 61.354 15.96 61.786 15.408C62.23 14.844 62.452 14.088 62.452 13.14C62.452 12.168 62.23 11.412 61.786 10.872C61.354 10.32 60.724 10.044 59.896 10.044C59.044 10.044 58.402 10.32 57.97 10.872C57.55 11.424 57.34 12.18 57.34 13.14C57.34 14.1 57.556 14.856 57.988 15.408C58.432 15.96 59.068 16.236 59.896 16.236ZM71.3829 18.27C70.4709 18.27 69.6849 18.048 69.0249 17.604C68.3769 17.16 67.8849 16.554 67.5489 15.786C67.2249 15.006 67.0629 14.124 67.0629 13.14C67.0629 12.156 67.2249 11.28 67.5489 10.512C67.8849 9.732 68.3709 9.12 69.0069 8.676C69.6429 8.232 70.4109 8.01 71.3109 8.01C72.2109 8.01 73.0029 8.232 73.6869 8.676C74.3709 9.108 74.8989 9.714 75.2709 10.494C75.6429 11.274 75.8289 12.156 75.8289 13.14C75.8289 14.112 75.6429 14.988 75.2709 15.768C74.8989 16.548 74.3769 17.16 73.7049 17.604C73.0329 18.048 72.2589 18.27 71.3829 18.27ZM66.7029 8.28H68.6289V15.102H68.8809V22.32H66.7029V8.28ZM71.0589 16.326C71.8749 16.326 72.4929 16.032 72.9129 15.444C73.3329 14.856 73.5429 14.088 73.5429 13.14C73.5429 12.204 73.3269 11.442 72.8949 10.854C72.4629 10.254 71.8269 9.954 70.9869 9.954C70.1949 9.954 69.6009 10.236 69.2049 10.8C68.8209 11.364 68.6289 12.144 68.6289 13.14C68.6289 14.136 68.8209 14.916 69.2049 15.48C69.6009 16.044 70.2189 16.326 71.0589 16.326Z" fill="white"/>
<path d="M4.536 52.448L0.306 46.04H3.312L6.066 50.36L8.784 46.04H11.808L7.578 52.448L11.916 59H8.91L6.066 54.536L3.204 59H0.18L4.536 52.448ZM18.1598 59.27C17.2118 59.27 16.3718 59.072 15.6398 58.676C14.9198 58.268 14.3558 57.704 13.9478 56.984C13.5518 56.252 13.3538 55.412 13.3538 54.464V50.576C13.3538 49.628 13.5518 48.794 13.9478 48.074C14.3558 47.342 14.9198 46.778 15.6398 46.382C16.3718 45.974 17.2118 45.77 18.1598 45.77C19.1078 45.77 19.9418 45.974 20.6618 46.382C21.3938 46.778 21.9578 47.342 22.3538 48.074C22.7618 48.794 22.9658 49.628 22.9658 50.576V54.464C22.9658 55.412 22.7618 56.252 22.3538 56.984C21.9578 57.704 21.3938 58.268 20.6618 58.676C19.9418 59.072 19.1078 59.27 18.1598 59.27ZM18.1598 56.948C18.5798 56.948 18.9638 56.846 19.3118 56.642C19.6718 56.438 19.9538 56.162 20.1578 55.814C20.3618 55.454 20.4638 55.064 20.4638 54.644V50.378C20.4638 49.958 20.3618 49.574 20.1578 49.226C19.9538 48.866 19.6718 48.584 19.3118 48.38C18.9638 48.176 18.5798 48.074 18.1598 48.074C17.7398 48.074 17.3498 48.176 16.9898 48.38C16.6418 48.584 16.3658 48.866 16.1618 49.226C15.9578 49.574 15.8558 49.958 15.8558 50.378V54.644C15.8558 55.064 15.9578 55.454 16.1618 55.814C16.3658 56.162 16.6418 56.438 16.9898 56.642C17.3498 56.846 17.7398 56.948 18.1598 56.948ZM30.2887 59.27C29.3407 59.27 28.5007 59.072 27.7687 58.676C27.0487 58.268 26.4847 57.704 26.0767 56.984C25.6807 56.252 25.4827 55.412 25.4827 54.464V50.576C25.4827 49.628 25.6807 48.794 26.0767 48.074C26.4847 47.342 27.0487 46.778 27.7687 46.382C28.5007 45.974 29.3407 45.77 30.2887 45.77C31.2367 45.77 32.0707 45.974 32.7907 46.382C33.5227 46.778 34.0867 47.342 34.4827 48.074C34.8907 48.794 35.0947 49.628 35.0947 50.576V54.464C35.0947 55.412 34.8907 56.252 34.4827 56.984C34.0867 57.704 33.5227 58.268 32.7907 58.676C32.0707 59.072 31.2367 59.27 30.2887 59.27ZM30.2887 56.948C30.7087 56.948 31.0927 56.846 31.4407 56.642C31.8007 56.438 32.0827 56.162 32.2867 55.814C32.4907 55.454 32.5927 55.064 32.5927 54.644V50.378C32.5927 49.958 32.4907 49.574 32.2867 49.226C32.0827 48.866 31.8007 48.584 31.4407 48.38C31.0927 48.176 30.7087 48.074 30.2887 48.074C29.8687 48.074 29.4787 48.176 29.1187 48.38C28.7707 48.584 28.4947 48.866 28.2907 49.226C28.0867 49.574 27.9847 49.958 27.9847 50.378V54.644C27.9847 55.064 28.0867 55.454 28.2907 55.814C28.4947 56.162 28.7707 56.438 29.1187 56.642C29.4787 56.846 29.8687 56.948 30.2887 56.948ZM42.4176 59.27C41.4696 59.27 40.6296 59.072 39.8976 58.676C39.1776 58.268 38.6136 57.704 38.2056 56.984C37.8096 56.252 37.6116 55.412 37.6116 54.464V50.576C37.6116 49.628 37.8096 48.794 38.2056 48.074C38.6136 47.342 39.1776 46.778 39.8976 46.382C40.6296 45.974 41.4696 45.77 42.4176 45.77C43.3656 45.77 44.1996 45.974 44.9196 46.382C45.6516 46.778 46.2156 47.342 46.6116 48.074C47.0196 48.794 47.2236 49.628 47.2236 50.576V54.464C47.2236 55.412 47.0196 56.252 46.6116 56.984C46.2156 57.704 45.6516 58.268 44.9196 58.676C44.1996 59.072 43.3656 59.27 42.4176 59.27ZM42.4176 56.948C42.8376 56.948 43.2216 56.846 43.5696 56.642C43.9296 56.438 44.2116 56.162 44.4156 55.814C44.6196 55.454 44.7216 55.064 44.7216 54.644V50.378C44.7216 49.958 44.6196 49.574 44.4156 49.226C44.2116 48.866 43.9296 48.584 43.5696 48.38C43.2216 48.176 42.8376 48.074 42.4176 48.074C41.9976 48.074 41.6076 48.176 41.2476 48.38C40.8996 48.584 40.6236 48.866 40.4196 49.226C40.2156 49.574 40.1136 49.958 40.1136 50.378V54.644C40.1136 55.064 40.2156 55.454 40.4196 55.814C40.6236 56.162 40.8996 56.438 41.2476 56.642C41.6076 56.846 41.9976 56.948 42.4176 56.948ZM49.5605 51.566H54.9605V53.456H49.5605V51.566ZM62.1051 59.27C61.1571 59.27 60.3171 59.072 59.5851 58.676C58.8651 58.268 58.3011 57.704 57.8931 56.984C57.4971 56.252 57.2991 55.412 57.2991 54.464V50.576C57.2991 49.628 57.4971 48.794 57.8931 48.074C58.3011 47.342 58.8651 46.778 59.5851 46.382C60.3171 45.974 61.1571 45.77 62.1051 45.77C63.0531 45.77 63.8871 45.974 64.6071 46.382C65.3391 46.778 65.9031 47.342 66.2991 48.074C66.7071 48.794 66.9111 49.628 66.9111 50.576V54.464C66.9111 55.412 66.7071 56.252 66.2991 56.984C65.9031 57.704 65.3391 58.268 64.6071 58.676C63.8871 59.072 63.0531 59.27 62.1051 59.27ZM62.1051 56.948C62.5251 56.948 62.9091 56.846 63.2571 56.642C63.6171 56.438 63.8991 56.162 64.1031 55.814C64.3071 55.454 64.4091 55.064 64.4091 54.644V50.378C64.4091 49.958 64.3071 49.574 64.1031 49.226C63.8991 48.866 63.6171 48.584 63.2571 48.38C62.9091 48.176 62.5251 48.074 62.1051 48.074C61.6851 48.074 61.2951 48.176 60.9351 48.38C60.5871 48.584 60.3111 48.866 60.1071 49.226C59.9031 49.574 59.8011 49.958 59.8011 50.378V54.644C59.8011 55.064 59.9031 55.454 60.1071 55.814C60.3111 56.162 60.5871 56.438 60.9351 56.642C61.2951 56.846 61.6851 56.948 62.1051 56.948ZM74.234 59.27C73.286 59.27 72.446 59.072 71.714 58.676C70.994 58.268 70.43 57.704 70.022 56.984C69.626 56.252 69.428 55.412 69.428 54.464V50.576C69.428 49.628 69.626 48.794 70.022 48.074C70.43 47.342 70.994 46.778 71.714 46.382C72.446 45.974 73.286 45.77 74.234 45.77C75.182 45.77 76.016 45.974 76.736 46.382C77.468 46.778 78.032 47.342 78.428 48.074C78.836 48.794 79.04 49.628 79.04 50.576V54.464C79.04 55.412 78.836 56.252 78.428 56.984C78.032 57.704 77.468 58.268 76.736 58.676C76.016 59.072 75.182 59.27 74.234 59.27ZM74.234 56.948C74.654 56.948 75.038 56.846 75.386 56.642C75.746 56.438 76.028 56.162 76.232 55.814C76.436 55.454 76.538 55.064 76.538 54.644V50.378C76.538 49.958 76.436 49.574 76.232 49.226C76.028 48.866 75.746 48.584 75.386 48.38C75.038 48.176 74.654 48.074 74.234 48.074C73.814 48.074 73.424 48.176 73.064 48.38C72.716 48.584 72.44 48.866 72.236 49.226C72.032 49.574 71.93 49.958 71.93 50.378V54.644C71.93 55.064 72.032 55.454 72.236 55.814C72.44 56.162 72.716 56.438 73.064 56.642C73.424 56.846 73.814 56.948 74.234 56.948Z" fill="white"/>
<rect x="0.5" y="82.5" width="103" height="27" rx="13.5" fill="#07A239"/>
<rect x="0.5" y="82.5" width="103" height="27" rx="13.5" stroke="white"/>
<path d="M26.458 90.92H28.936L32.114 101H30.378L27.494 91.956H27.858L25.016 101H23.28L26.458 90.92ZM25.058 97.234H30.35V98.816H25.058V97.234ZM33.3726 93.44H35.0806V97.08L37.8386 93.44H39.9526L37.0126 97.22L40.2046 101H37.9786L35.0806 97.36V101H33.3586L33.3726 93.44ZM42.8098 94.938H40.2758V93.44H47.0238V94.938H44.4898V101H42.8098V94.938ZM54.8953 101H53.2853V96.058L49.6873 101H48.3293V93.44H49.9393V98.256L53.5513 93.44H54.8953V101ZM56.8469 93.44H60.2769C60.7715 93.44 61.1915 93.4913 61.5369 93.594C61.9382 93.706 62.2649 93.9253 62.5169 94.252C62.7782 94.5693 62.9089 94.9847 62.9089 95.498C62.9089 96.0673 62.7222 96.506 62.3489 96.814C62.1902 96.9447 62.0269 97.038 61.8589 97.094C62.0455 97.122 62.2182 97.178 62.3769 97.262C62.9835 97.5513 63.2869 98.0833 63.2869 98.858C63.2869 99.3713 63.1609 99.8007 62.9089 100.146C62.6662 100.491 62.3115 100.729 61.8449 100.86C61.5369 100.953 61.1075 101 60.5569 101H56.8469V93.44ZM60.4449 99.698C60.6782 99.698 60.8882 99.6653 61.0749 99.6C61.2335 99.5347 61.3549 99.4273 61.4389 99.278C61.5229 99.1287 61.5649 98.9653 61.5649 98.788C61.5649 98.5733 61.5089 98.396 61.3969 98.256C61.2942 98.116 61.1542 98.018 60.9769 97.962C60.8555 97.9153 60.6642 97.892 60.4029 97.892H58.5549V99.698H60.4449ZM59.9549 96.562C60.3002 96.562 60.5569 96.5247 60.7249 96.45C60.8649 96.394 60.9722 96.296 61.0469 96.156C61.1309 96.0067 61.1729 95.8433 61.1729 95.666C61.1729 95.47 61.1309 95.2973 61.0469 95.148C60.9629 94.9987 60.8369 94.896 60.6689 94.84C60.5009 94.784 60.2535 94.756 59.9269 94.756H58.5549V96.562H59.9549ZM68.1248 101.21C67.3688 101.21 66.6968 101.047 66.1088 100.72C65.5302 100.384 65.0775 99.922 64.7508 99.334C64.4335 98.7367 64.2748 98.06 64.2748 97.304C64.2748 96.492 64.4288 95.778 64.7368 95.162C65.0542 94.5367 65.4975 94.0607 66.0668 93.734C66.6362 93.398 67.2942 93.23 68.0408 93.23C68.8062 93.23 69.4642 93.412 70.0148 93.776C70.5748 94.14 70.9855 94.658 71.2468 95.33C71.5175 96.002 71.6202 96.7907 71.5548 97.696H69.8888V97.08C69.8795 96.2587 69.7302 95.6567 69.4408 95.274C69.1608 94.8913 68.7175 94.7 68.1108 94.7C67.4202 94.7 66.9022 94.9147 66.5568 95.344C66.2208 95.7733 66.0528 96.3987 66.0528 97.22C66.0528 97.9947 66.2208 98.592 66.5568 99.012C66.9022 99.4227 67.3968 99.628 68.0408 99.628C68.4515 99.628 68.8062 99.5393 69.1048 99.362C69.4128 99.1753 69.6462 98.9047 69.8048 98.55L71.4708 99.054C71.1908 99.726 70.7475 100.253 70.1408 100.636C69.5342 101.019 68.8622 101.21 68.1248 101.21ZM65.5208 96.422H70.7288V97.696H65.5208V96.422ZM73.1027 93.44H74.7827V96.422H78.1847V93.44H79.8647V101H78.1847V98.004H74.7827V101H73.1027V93.44Z" fill="white"/>
<path d="M170.374 7.074H166.18V5.04H176.746V7.074H172.534V18H170.374V7.074ZM181.054 18.27C180.094 18.27 179.248 18.054 178.516 17.622C177.784 17.178 177.214 16.572 176.806 15.804C176.41 15.024 176.212 14.136 176.212 13.14C176.212 12.132 176.416 11.244 176.824 10.476C177.232 9.696 177.802 9.09 178.534 8.658C179.266 8.226 180.106 8.01 181.054 8.01C182.002 8.01 182.842 8.232 183.574 8.676C184.318 9.108 184.888 9.714 185.284 10.494C185.692 11.262 185.896 12.144 185.896 13.14C185.896 14.136 185.692 15.024 185.284 15.804C184.888 16.584 184.318 17.19 183.574 17.622C182.842 18.054 182.002 18.27 181.054 18.27ZM181.054 16.236C181.882 16.236 182.512 15.96 182.944 15.408C183.388 14.844 183.61 14.088 183.61 13.14C183.61 12.168 183.388 11.412 182.944 10.872C182.512 10.32 181.882 10.044 181.054 10.044C180.202 10.044 179.56 10.32 179.128 10.872C178.708 11.424 178.498 12.18 178.498 13.14C178.498 14.1 178.714 14.856 179.146 15.408C179.59 15.96 180.226 16.236 181.054 16.236ZM187.861 8.28H196.303V18H194.143V10.314H190.021V18H187.861V8.28ZM197.93 16.182C198.278 16.242 198.548 16.236 198.74 16.164C198.932 16.08 199.076 15.936 199.172 15.732C199.268 15.516 199.352 15.198 199.424 14.778C199.556 14.046 199.67 13.134 199.766 12.042C199.874 10.95 199.964 9.696 200.036 8.28H207.2V18H205.04V10.314H201.962C201.734 12.978 201.536 14.742 201.368 15.606C201.236 16.338 201.038 16.908 200.774 17.316C200.522 17.712 200.168 17.964 199.712 18.072C199.256 18.192 198.662 18.168 197.93 18V16.182ZM218.153 18H216.083V11.646L211.457 18H209.711V8.28H211.781V14.472L216.425 8.28H218.153V18ZM220.662 8.28H225.072C225.708 8.28 226.248 8.346 226.692 8.478C227.208 8.622 227.628 8.904 227.952 9.324C228.288 9.732 228.456 10.266 228.456 10.926C228.456 11.658 228.216 12.222 227.736 12.618C227.532 12.786 227.322 12.906 227.106 12.978C227.346 13.014 227.568 13.086 227.772 13.194C228.552 13.566 228.942 14.25 228.942 15.246C228.942 15.906 228.78 16.458 228.456 16.902C228.144 17.346 227.688 17.652 227.088 17.82C226.692 17.94 226.14 18 225.432 18H220.662V8.28ZM225.288 16.326C225.588 16.326 225.858 16.284 226.098 16.2C226.302 16.116 226.458 15.978 226.566 15.786C226.674 15.594 226.728 15.384 226.728 15.156C226.728 14.88 226.656 14.652 226.512 14.472C226.38 14.292 226.2 14.166 225.972 14.094C225.816 14.034 225.57 14.004 225.234 14.004H222.858V16.326H225.288ZM224.658 12.294C225.102 12.294 225.432 12.246 225.648 12.15C225.828 12.078 225.966 11.952 226.062 11.772C226.17 11.58 226.224 11.37 226.224 11.142C226.224 10.89 226.17 10.668 226.062 10.476C225.954 10.284 225.792 10.152 225.576 10.08C225.36 10.008 225.042 9.972 224.622 9.972H222.858V12.294H224.658ZM230.734 8.28H232.894V12.114H237.268V8.28H239.428V18H237.268V14.148H232.894V18H230.734V8.28ZM241.931 8.28H244.109V11.52H245.189C245.993 11.52 246.581 11.556 246.953 11.628C248.681 11.988 249.545 13.038 249.545 14.778C249.545 15.618 249.323 16.296 248.879 16.812C248.447 17.328 247.829 17.682 247.025 17.874C246.653 17.958 246.047 18 245.207 18H241.931V8.28ZM245.405 16.308C245.765 16.308 246.065 16.272 246.305 16.2C246.593 16.128 246.839 15.96 247.043 15.696C247.247 15.432 247.349 15.126 247.349 14.778C247.349 14.394 247.247 14.076 247.043 13.824C246.839 13.56 246.575 13.386 246.251 13.302C246.023 13.242 245.741 13.212 245.405 13.212H244.109V16.308H245.405ZM250.571 8.28H252.731V18H250.571V8.28ZM259.666 18.27C258.694 18.27 257.83 18.06 257.074 17.64C256.33 17.208 255.748 16.614 255.328 15.858C254.92 15.09 254.716 14.22 254.716 13.248C254.716 12.204 254.914 11.286 255.31 10.494C255.718 9.69 256.288 9.078 257.02 8.658C257.752 8.226 258.598 8.01 259.558 8.01C260.542 8.01 261.388 8.244 262.096 8.712C262.816 9.18 263.344 9.846 263.68 10.71C264.028 11.574 264.16 12.588 264.076 13.752H261.934V12.96C261.922 11.904 261.73 11.13 261.358 10.638C260.998 10.146 260.428 9.9 259.648 9.9C258.76 9.9 258.094 10.176 257.65 10.728C257.218 11.28 257.002 12.084 257.002 13.14C257.002 14.136 257.218 14.904 257.65 15.444C258.094 15.972 258.73 16.236 259.558 16.236C260.086 16.236 260.542 16.122 260.926 15.894C261.322 15.654 261.622 15.306 261.826 14.85L263.968 15.498C263.608 16.362 263.038 17.04 262.258 17.532C261.478 18.024 260.614 18.27 259.666 18.27ZM256.318 12.114H263.014V13.752H256.318V12.114ZM269.688 8.28H271.884V12.96L275.43 8.28H278.148L274.368 13.14L278.472 18H275.61L271.884 13.32V18H269.67L269.688 8.28ZM282.091 18.27C281.407 18.27 280.819 18.138 280.327 17.874C279.835 17.61 279.463 17.262 279.211 16.83C278.959 16.386 278.833 15.888 278.833 15.336C278.833 14.616 279.013 14.016 279.373 13.536C279.733 13.056 280.291 12.69 281.047 12.438C281.491 12.282 282.031 12.15 282.667 12.042C283.303 11.934 284.137 11.802 285.169 11.646C285.577 11.598 285.877 11.556 286.069 11.52L285.277 11.952C285.289 11.268 285.139 10.77 284.827 10.458C284.515 10.146 283.999 9.99 283.279 9.99C282.799 9.99 282.361 10.104 281.965 10.332C281.581 10.548 281.311 10.89 281.155 11.358L279.175 10.728C279.427 9.876 279.895 9.21 280.579 8.73C281.275 8.25 282.181 8.01 283.297 8.01C284.197 8.01 284.965 8.154 285.601 8.442C286.249 8.73 286.729 9.192 287.041 9.828C287.185 10.128 287.281 10.446 287.329 10.782C287.377 11.118 287.401 11.538 287.401 12.042V18H285.511V15.894L285.817 16.236C285.373 16.944 284.857 17.46 284.269 17.784C283.681 18.108 282.955 18.27 282.091 18.27ZM282.523 16.542C283.195 16.542 283.747 16.38 284.179 16.056C284.611 15.72 284.893 15.342 285.025 14.922C285.121 14.682 285.181 14.406 285.205 14.094C285.241 13.782 285.259 13.452 285.259 13.104L285.925 13.302C285.781 13.326 285.643 13.35 285.511 13.374C285.379 13.398 285.253 13.416 285.133 13.428C284.329 13.548 283.705 13.656 283.261 13.752C282.829 13.836 282.451 13.926 282.127 14.022C281.743 14.166 281.449 14.34 281.245 14.544C281.053 14.748 280.957 15.006 280.957 15.318C280.957 15.69 281.095 15.99 281.371 16.218C281.647 16.434 282.031 16.542 282.523 16.542ZM294.406 18.27C293.494 18.27 292.708 18.048 292.048 17.604C291.4 17.16 290.908 16.554 290.572 15.786C290.248 15.006 290.086 14.124 290.086 13.14C290.086 12.156 290.248 11.28 290.572 10.512C290.908 9.732 291.394 9.12 292.03 8.676C292.666 8.232 293.434 8.01 294.334 8.01C295.234 8.01 296.026 8.232 296.71 8.676C297.394 9.108 297.922 9.714 298.294 10.494C298.666 11.274 298.852 12.156 298.852 13.14C298.852 14.112 298.666 14.988 298.294 15.768C297.922 16.548 297.4 17.16 296.728 17.604C296.056 18.048 295.282 18.27 294.406 18.27ZM289.726 8.28H291.652V15.102H291.904V22.32H289.726V8.28ZM294.082 16.326C294.898 16.326 295.516 16.032 295.936 15.444C296.356 14.856 296.566 14.088 296.566 13.14C296.566 12.204 296.35 11.442 295.918 10.854C295.486 10.254 294.85 9.954 294.01 9.954C293.218 9.954 292.624 10.236 292.228 10.8C291.844 11.364 291.652 12.144 291.652 13.14C291.652 14.136 291.844 14.916 292.228 15.48C292.624 16.044 293.242 16.326 294.082 16.326ZM303.284 10.206H300.026V8.28H308.702V10.206H305.444V18H303.284V10.206ZM310.381 8.28H312.559V11.52H313.639C314.443 11.52 315.031 11.556 315.403 11.628C317.131 11.988 317.995 13.038 317.995 14.778C317.995 15.618 317.773 16.296 317.329 16.812C316.897 17.328 316.279 17.682 315.475 17.874C315.103 17.958 314.497 18 313.657 18H310.381V8.28ZM313.855 16.308C314.215 16.308 314.515 16.272 314.755 16.2C315.043 16.128 315.289 15.96 315.493 15.696C315.697 15.432 315.799 15.126 315.799 14.778C315.799 14.394 315.697 14.076 315.493 13.824C315.289 13.56 315.025 13.386 314.701 13.302C314.473 13.242 314.191 13.212 313.855 13.212H312.559V16.308H313.855ZM319.021 8.28H321.181V18H319.021V8.28Z" fill="white"/>
<path d="M166.98 47.92H170.914C171.493 47.92 171.997 48.0413 172.426 48.284C172.865 48.5267 173.196 48.8487 173.42 49.25C173.653 49.6513 173.77 50.09 173.77 50.566C173.77 51.1167 173.63 51.5973 173.35 52.008C173.07 52.4187 172.692 52.6987 172.216 52.848L172.202 52.512C172.855 52.6893 173.359 53.0067 173.714 53.464C174.078 53.9213 174.26 54.472 174.26 55.116C174.26 55.704 174.139 56.2173 173.896 56.656C173.653 57.0853 173.303 57.4167 172.846 57.65C172.398 57.8833 171.871 58 171.264 58H166.98V47.92ZM171.026 56.81C171.595 56.81 172.062 56.656 172.426 56.348C172.79 56.04 172.972 55.6247 172.972 55.102C172.972 54.766 172.893 54.4627 172.734 54.192C172.585 53.912 172.37 53.6927 172.09 53.534C171.819 53.3753 171.511 53.296 171.166 53.296H168.24V56.81H171.026ZM170.9 52.12C171.199 52.12 171.469 52.0593 171.712 51.938C171.955 51.8073 172.146 51.6253 172.286 51.392C172.426 51.1493 172.496 50.874 172.496 50.566C172.496 50.1367 172.347 49.7867 172.048 49.516C171.749 49.236 171.367 49.096 170.9 49.096H168.24V52.12H170.9ZM178.84 58.21C178.084 58.21 177.435 58.042 176.894 57.706C176.362 57.3607 175.951 56.8893 175.662 56.292C175.382 55.6853 175.237 54.9947 175.228 54.22C175.237 53.4267 175.387 52.7313 175.676 52.134C175.965 51.5367 176.381 51.07 176.922 50.734C177.463 50.398 178.107 50.23 178.854 50.23C179.647 50.23 180.329 50.426 180.898 50.818C181.477 51.21 181.869 51.7467 182.074 52.428L180.842 52.792C180.683 52.3533 180.422 52.0127 180.058 51.77C179.703 51.5273 179.297 51.406 178.84 51.406C178.084 51.406 177.515 51.6627 177.132 52.176C176.759 52.68 176.567 53.3613 176.558 54.22C176.567 55.0787 176.763 55.76 177.146 56.264C177.538 56.768 178.103 57.02 178.84 57.02C179.325 57.02 179.731 56.9127 180.058 56.698C180.385 56.474 180.637 56.1427 180.814 55.704L182.074 56.026C181.803 56.7353 181.393 57.2767 180.842 57.65C180.291 58.0233 179.624 58.21 178.84 58.21ZM186.772 58.21C186.034 58.21 185.386 58.0467 184.826 57.72C184.275 57.3933 183.846 56.9313 183.538 56.334C183.23 55.7367 183.076 55.046 183.076 54.262C183.076 53.45 183.225 52.7407 183.524 52.134C183.822 51.518 184.247 51.0467 184.798 50.72C185.348 50.3933 185.988 50.23 186.716 50.23C187.472 50.23 188.116 50.4073 188.648 50.762C189.189 51.1073 189.595 51.6067 189.866 52.26C190.136 52.9133 190.253 53.6833 190.216 54.57H188.956V54.122C188.937 53.198 188.746 52.5073 188.382 52.05C188.018 51.5833 187.476 51.35 186.758 51.35C185.992 51.35 185.409 51.5973 185.008 52.092C184.606 52.5867 184.406 53.296 184.406 54.22C184.406 55.1067 184.606 55.7973 185.008 56.292C185.409 56.7773 185.978 57.02 186.716 57.02C187.22 57.02 187.654 56.908 188.018 56.684C188.391 56.4507 188.68 56.1193 188.886 55.69L190.09 56.11C189.791 56.7727 189.348 57.2907 188.76 57.664C188.172 58.028 187.509 58.21 186.772 58.21ZM183.986 53.562H189.572V54.57H183.986V53.562ZM191.767 50.44H197.017V51.616H193.013V58H191.767V50.44ZM201.427 58.21C200.689 58.21 200.045 58.042 199.495 57.706C198.944 57.3607 198.519 56.8893 198.221 56.292C197.931 55.6853 197.787 54.99 197.787 54.206C197.787 53.422 197.936 52.7313 198.235 52.134C198.533 51.5273 198.958 51.0607 199.509 50.734C200.059 50.398 200.699 50.23 201.427 50.23C202.173 50.23 202.822 50.398 203.373 50.734C203.923 51.07 204.343 51.5413 204.633 52.148C204.931 52.7453 205.081 53.4313 205.081 54.206C205.081 54.9993 204.931 55.6993 204.633 56.306C204.334 56.9033 203.909 57.37 203.359 57.706C202.808 58.042 202.164 58.21 201.427 58.21ZM201.427 57.02C202.183 57.02 202.757 56.768 203.149 56.264C203.55 55.7507 203.751 55.0647 203.751 54.206C203.751 53.338 203.55 52.6567 203.149 52.162C202.757 51.658 202.183 51.406 201.427 51.406C200.661 51.406 200.083 51.658 199.691 52.162C199.308 52.666 199.117 53.3473 199.117 54.206C199.117 55.0833 199.313 55.774 199.705 56.278C200.106 56.7727 200.68 57.02 201.427 57.02ZM206.565 56.628H207.937V58H206.565V56.628ZM210.339 56.628H211.711V58H210.339V56.628ZM214.112 56.628H215.484V58H214.112V56.628ZM217.886 56.628H219.258V58H217.886V56.628ZM221.659 56.628H223.031V58H221.659V56.628ZM225.433 56.628H226.805V58H225.433V56.628ZM229.206 56.628H230.578V58H229.206V56.628ZM232.979 56.628H234.351V58H232.979V56.628ZM236.753 56.628H238.125V58H236.753V56.628ZM240.526 56.628H241.898V58H240.526V56.628ZM244.3 56.628H245.672V58H244.3V56.628ZM248.073 56.628H249.445V58H248.073V56.628ZM251.847 56.628H253.219V58H251.847V56.628ZM255.62 56.628H256.992V58H255.62V56.628Z" fill="white"/>
<path d="M342.631 58.21C341.959 58.21 341.357 58.0747 340.825 57.804C340.293 57.524 339.873 57.1367 339.565 56.642C339.267 56.1473 339.117 55.592 339.117 54.976C339.117 54.4347 339.239 53.9307 339.481 53.464C339.724 52.9973 340.069 52.6147 340.517 52.316L340.475 52.904C340.121 52.5587 339.85 52.204 339.663 51.84C339.477 51.4667 339.383 51.056 339.383 50.608C339.383 50.0293 339.519 49.5207 339.789 49.082C340.069 48.6433 340.452 48.3073 340.937 48.074C341.432 47.8313 341.997 47.71 342.631 47.71C343.266 47.71 343.826 47.8313 344.311 48.074C344.806 48.3073 345.189 48.6433 345.459 49.082C345.739 49.5207 345.879 50.0293 345.879 50.608C345.879 51.0653 345.786 51.4807 345.599 51.854C345.422 52.218 345.147 52.5727 344.773 52.918V52.33C345.212 52.61 345.553 52.988 345.795 53.464C346.038 53.9307 346.159 54.4347 346.159 54.976C346.159 55.592 346.005 56.1473 345.697 56.642C345.399 57.1273 344.979 57.51 344.437 57.79C343.905 58.07 343.303 58.21 342.631 58.21ZM342.631 56.418C343.089 56.418 343.453 56.2967 343.723 56.054C344.003 55.802 344.143 55.4427 344.143 54.976C344.143 54.5187 344.003 54.164 343.723 53.912C343.453 53.6507 343.089 53.52 342.631 53.52C342.174 53.52 341.81 53.6507 341.539 53.912C341.269 54.164 341.133 54.5187 341.133 54.976C341.133 55.4427 341.269 55.802 341.539 56.054C341.81 56.2967 342.174 56.418 342.631 56.418ZM342.631 51.714C343.014 51.714 343.313 51.6207 343.527 51.434C343.751 51.2473 343.863 50.972 343.863 50.608C343.863 50.244 343.751 49.9687 343.527 49.782C343.303 49.586 343.005 49.488 342.631 49.488C342.258 49.488 341.959 49.586 341.735 49.782C341.511 49.9687 341.399 50.244 341.399 50.608C341.399 50.972 341.507 51.2473 341.721 51.434C341.945 51.6207 342.249 51.714 342.631 51.714Z" fill="white"/>
<path d="M169.654 85.92H171.39L174.764 96H173.476L170.312 86.648H170.704L167.582 96H166.28L169.654 85.92ZM167.904 92.472H173.14V93.634H167.904V92.472ZM176.031 88.44H177.291V92.08L180.469 88.44H182.079L178.747 92.22L182.471 96H180.735L177.291 92.36V96H176.031V88.44ZM185.17 89.574H182.538V88.44H189.048V89.574H186.416V96H185.17V89.574ZM196.561 96H195.357V90.428L191.395 96H190.373V88.44H191.577V93.928L195.539 88.44H196.561V96ZM198.521 88.44H201.741C202.217 88.44 202.623 88.4867 202.959 88.58C203.379 88.692 203.715 88.916 203.967 89.252C204.228 89.588 204.359 90.0033 204.359 90.498C204.359 91.0393 204.196 91.4687 203.869 91.786C203.72 91.926 203.556 92.0333 203.379 92.108C203.547 92.136 203.715 92.2013 203.883 92.304C204.452 92.612 204.737 93.1487 204.737 93.914C204.737 94.418 204.616 94.838 204.373 95.174C204.13 95.51 203.785 95.7433 203.337 95.874C203.048 95.958 202.637 96 202.105 96H198.521V88.44ZM202.035 94.978C202.296 94.978 202.534 94.9453 202.749 94.88C202.982 94.8147 203.155 94.6887 203.267 94.502C203.388 94.3153 203.449 94.1053 203.449 93.872C203.449 93.5827 203.365 93.3447 203.197 93.158C203.038 92.962 202.819 92.8407 202.539 92.794C202.408 92.7567 202.203 92.738 201.923 92.738H199.781V94.978H202.035ZM201.657 91.702C201.993 91.702 202.254 91.6647 202.441 91.59C202.646 91.5153 202.8 91.3893 202.903 91.212C203.015 91.0253 203.071 90.82 203.071 90.596C203.071 90.3533 203.01 90.1387 202.889 89.952C202.777 89.7653 202.614 89.6393 202.399 89.574C202.194 89.4993 201.909 89.462 201.545 89.462H199.781V91.702H201.657ZM206.136 88.44H207.382V91.618H211.358V88.44H212.604V96H211.358V92.808H207.382V96H206.136V88.44ZM217.778 96.21C217.041 96.21 216.397 96.042 215.846 95.706C215.295 95.3607 214.871 94.8893 214.572 94.292C214.283 93.6853 214.138 92.99 214.138 92.206C214.138 91.422 214.287 90.7313 214.586 90.134C214.885 89.5273 215.309 89.0607 215.86 88.734C216.411 88.398 217.05 88.23 217.778 88.23C218.525 88.23 219.173 88.398 219.724 88.734C220.275 89.07 220.695 89.5413 220.984 90.148C221.283 90.7453 221.432 91.4313 221.432 92.206C221.432 92.9993 221.283 93.6993 220.984 94.306C220.685 94.9033 220.261 95.37 219.71 95.706C219.159 96.042 218.515 96.21 217.778 96.21ZM217.778 95.02C218.534 95.02 219.108 94.768 219.5 94.264C219.901 93.7507 220.102 93.0647 220.102 92.206C220.102 91.338 219.901 90.6567 219.5 90.162C219.108 89.658 218.534 89.406 217.778 89.406C217.013 89.406 216.434 89.658 216.042 90.162C215.659 90.666 215.468 91.3473 215.468 92.206C215.468 93.0833 215.664 93.774 216.056 94.278C216.457 94.7727 217.031 95.02 217.778 95.02ZM222.917 94.628H224.289V96H222.917V94.628ZM226.69 94.628H228.062V96H226.69V94.628ZM230.464 94.628H231.836V96H230.464V94.628ZM234.237 94.628H235.609V96H234.237V94.628ZM238.011 94.628H239.383V96H238.011V94.628ZM241.784 94.628H243.156V96H241.784V94.628ZM245.558 94.628H246.93V96H245.558V94.628ZM249.331 94.628H250.703V96H249.331V94.628ZM253.104 94.628H254.476V96H253.104V94.628Z" fill="white"/>
<path d="M343.082 94.432H338.7V92.654L341.878 85.92H344.062L340.884 92.654H343.082V90.134H345.014V92.654H345.91V94.432H345.014V96H343.082V94.432Z" fill="white"/>
</svg>
