<svg width="347" height="180" viewBox="0 0 347 180" fill="none" xmlns="http://www.w3.org/2000/svg">
<path d="M4.944 17.852C4.144 17.9907 3.40267 17.9053 2.72 17.596C2.048 17.2867 1.504 16.7747 1.088 16.06C0.682667 15.3347 0.48 14.4493 0.48 13.404C0.48 12.3693 0.682667 11.4893 1.088 10.764C1.504 10.028 2.05333 9.5 2.736 9.18C3.41867 8.84933 4.15467 8.75333 4.944 8.892V7.98H6.864V8.892C7.65333 8.75333 8.38933 8.84933 9.072 9.18C9.75467 9.5 10.304 10.028 10.72 10.764C11.136 11.4893 11.344 12.3693 11.344 13.404C11.344 14.4493 11.136 15.3347 10.72 16.06C10.3147 16.7747 9.77067 17.2867 9.088 17.596C8.40533 17.9053 7.664 17.9907 6.864 17.852V19.5H4.944V17.852ZM4.944 10.636C4.35733 10.5507 3.872 10.6307 3.488 10.876C3.11467 11.1107 2.84267 11.452 2.672 11.9C2.512 12.348 2.432 12.8493 2.432 13.404C2.432 13.9693 2.512 14.4653 2.672 14.892C2.84267 15.3187 3.11467 15.6493 3.488 15.884C3.872 16.108 4.35733 16.1773 4.944 16.092V10.636ZM6.864 16.092C7.45067 16.1773 7.93067 16.108 8.304 15.884C8.688 15.6493 8.96 15.324 9.12 14.908C9.29067 14.4813 9.376 14.0013 9.376 13.468C9.376 12.924 9.29067 12.4227 9.12 11.964C8.96 11.5053 8.688 11.148 8.304 10.892C7.92 10.636 7.44 10.5507 6.864 10.636V16.092ZM20.4205 19.5H18.5805V13.852L14.4685 19.5H12.9165V10.86H14.7565V16.364L18.8845 10.86H20.4205V19.5ZM22.6509 10.86H24.5709V14.268H28.4589V10.86H30.3789V19.5H28.4589V16.076H24.5709V19.5H22.6509V10.86ZM35.036 19.74C34.428 19.74 33.9053 19.6227 33.468 19.388C33.0307 19.1533 32.7 18.844 32.476 18.46C32.252 18.0653 32.14 17.6227 32.14 17.132C32.14 16.492 32.3 15.9587 32.62 15.532C32.94 15.1053 33.436 14.78 34.108 14.556C34.5027 14.4173 34.9827 14.3 35.548 14.204C36.1133 14.108 36.8547 13.9907 37.772 13.852C38.1347 13.8093 38.4013 13.772 38.572 13.74L37.868 14.124C37.8787 13.516 37.7453 13.0733 37.468 12.796C37.1907 12.5187 36.732 12.38 36.092 12.38C35.6653 12.38 35.276 12.4813 34.924 12.684C34.5827 12.876 34.3427 13.18 34.204 13.596L32.444 13.036C32.668 12.2787 33.084 11.6867 33.692 11.26C34.3107 10.8333 35.116 10.62 36.108 10.62C36.908 10.62 37.5907 10.748 38.156 11.004C38.732 11.26 39.1587 11.6707 39.436 12.236C39.564 12.5027 39.6493 12.7853 39.692 13.084C39.7347 13.3827 39.756 13.756 39.756 14.204V19.5H38.076V17.628L38.348 17.932C37.9533 18.5613 37.4947 19.02 36.972 19.308C36.4493 19.596 35.804 19.74 35.036 19.74ZM35.42 18.204C36.0173 18.204 36.508 18.06 36.892 17.772C37.276 17.4733 37.5267 17.1373 37.644 16.764C37.7293 16.5507 37.7827 16.3053 37.804 16.028C37.836 15.7507 37.852 15.4573 37.852 15.148L38.444 15.324C38.316 15.3453 38.1933 15.3667 38.076 15.388C37.9587 15.4093 37.8467 15.4253 37.74 15.436C37.0253 15.5427 36.4707 15.6387 36.076 15.724C35.692 15.7987 35.356 15.8787 35.068 15.964C34.7267 16.092 34.4653 16.2467 34.284 16.428C34.1133 16.6093 34.028 16.8387 34.028 17.116C34.028 17.4467 34.1507 17.7133 34.396 17.916C34.6413 18.108 34.9827 18.204 35.42 18.204ZM41.8228 10.86H43.7428V14.268H47.6308V10.86H49.5508V19.5H47.6308V16.076H43.7428V19.5H41.8228V10.86ZM55.5359 19.74C54.6719 19.74 53.9199 19.548 53.2799 19.164C52.6505 18.7693 52.1652 18.2253 51.8239 17.532C51.4825 16.8387 51.3119 16.0547 51.3119 15.18C51.3119 14.2947 51.4879 13.5107 51.8399 12.828C52.1919 12.1347 52.6825 11.596 53.3119 11.212C53.9519 10.8173 54.7039 10.62 55.5679 10.62C56.5492 10.62 57.3812 10.8707 58.0639 11.372C58.7465 11.8627 59.1892 12.5293 59.3919 13.372L57.4719 13.9C57.3225 13.4307 57.0719 13.068 56.7199 12.812C56.3785 12.556 55.9839 12.428 55.5359 12.428C54.8105 12.428 54.2665 12.6787 53.9039 13.18C53.5412 13.6813 53.3545 14.348 53.3439 15.18C53.3545 16.0227 53.5465 16.6947 53.9199 17.196C54.2932 17.6867 54.8319 17.932 55.5359 17.932C56.0372 17.932 56.4372 17.82 56.7359 17.596C57.0345 17.372 57.2639 17.0307 57.4239 16.572L59.3919 17.004C59.1252 17.8787 58.6559 18.556 57.9839 19.036C57.3225 19.5053 56.5065 19.74 55.5359 19.74ZM60.9946 10.86H62.9306V13.74H63.8906C64.6053 13.74 65.128 13.772 65.4586 13.836C66.9946 14.156 67.7626 15.0893 67.7626 16.636C67.7626 17.3827 67.5653 17.9853 67.1706 18.444C66.7866 18.9027 66.2373 19.2173 65.5226 19.388C65.192 19.4627 64.6533 19.5 63.9066 19.5H60.9946V10.86ZM64.0826 17.996C64.4026 17.996 64.6693 17.964 64.8826 17.9C65.1386 17.836 65.3573 17.6867 65.5386 17.452C65.72 17.2173 65.8106 16.9453 65.8106 16.636C65.8106 16.2947 65.72 16.012 65.5386 15.788C65.3573 15.5533 65.1226 15.3987 64.8346 15.324C64.632 15.2707 64.3813 15.244 64.0826 15.244H62.9306V17.996H64.0826ZM68.6746 10.86H70.5946V19.5H68.6746V10.86Z" fill="white"/>
<rect x="195.5" y="0.5" width="151" height="27" rx="13.5" stroke="white"/>
<path d="M215.98 8.92H224.142V19H222.462V10.502H217.66V19H215.98V8.92ZM229.457 19.21C228.71 19.21 228.052 19.042 227.483 18.706C226.914 18.3607 226.47 17.8893 226.153 17.292C225.845 16.6853 225.691 15.9947 225.691 15.22C225.691 14.436 225.85 13.7453 226.167 13.148C226.484 12.5413 226.928 12.07 227.497 11.734C228.066 11.398 228.72 11.23 229.457 11.23C230.194 11.23 230.848 11.4027 231.417 11.748C231.996 12.084 232.439 12.5553 232.747 13.162C233.064 13.7593 233.223 14.4453 233.223 15.22C233.223 15.9947 233.064 16.6853 232.747 17.292C232.439 17.8987 231.996 18.37 231.417 18.706C230.848 19.042 230.194 19.21 229.457 19.21ZM229.457 17.628C230.101 17.628 230.591 17.4133 230.927 16.984C231.272 16.5453 231.445 15.9573 231.445 15.22C231.445 14.464 231.272 13.876 230.927 13.456C230.591 13.0267 230.101 12.812 229.457 12.812C228.794 12.812 228.295 13.0267 227.959 13.456C227.632 13.8853 227.469 14.4733 227.469 15.22C227.469 15.9667 227.637 16.5547 227.973 16.984C228.318 17.4133 228.813 17.628 229.457 17.628ZM234.751 11.44H241.317V19H239.637V13.022H236.431V19H234.751V11.44ZM246.629 19.21C245.882 19.21 245.224 19.042 244.655 18.706C244.085 18.3607 243.642 17.8893 243.325 17.292C243.017 16.6853 242.863 15.9947 242.863 15.22C242.863 14.436 243.021 13.7453 243.339 13.148C243.656 12.5413 244.099 12.07 244.669 11.734C245.238 11.398 245.891 11.23 246.629 11.23C247.366 11.23 248.019 11.4027 248.589 11.748C249.167 12.084 249.611 12.5553 249.919 13.162C250.236 13.7593 250.395 14.4453 250.395 15.22C250.395 15.9947 250.236 16.6853 249.919 17.292C249.611 17.8987 249.167 18.37 248.589 18.706C248.019 19.042 247.366 19.21 246.629 19.21ZM246.629 17.628C247.273 17.628 247.763 17.4133 248.099 16.984C248.444 16.5453 248.617 15.9573 248.617 15.22C248.617 14.464 248.444 13.876 248.099 13.456C247.763 13.0267 247.273 12.812 246.629 12.812C245.966 12.812 245.467 13.0267 245.131 13.456C244.804 13.8853 244.641 14.4733 244.641 15.22C244.641 15.9667 244.809 16.5547 245.145 16.984C245.49 17.4133 245.985 17.628 246.629 17.628ZM251.237 17.586C251.508 17.6327 251.718 17.628 251.867 17.572C252.016 17.5067 252.128 17.3947 252.203 17.236C252.278 17.068 252.343 16.8207 252.399 16.494C252.502 15.9247 252.59 15.2153 252.665 14.366C252.749 13.5167 252.819 12.5413 252.875 11.44H258.447V19H256.767V13.022H254.373C254.196 15.094 254.042 16.466 253.911 17.138C253.808 17.7073 253.654 18.1507 253.449 18.468C253.253 18.776 252.978 18.972 252.623 19.056C252.268 19.1493 251.806 19.1307 251.237 19V17.586ZM260.4 11.44H262.08V14.422H265.482V11.44H267.162V19H265.482V16.004H262.08V19H260.4V11.44ZM275.675 19H274.065V14.058L270.467 19H269.109V11.44H270.719V16.256L274.331 11.44H275.675V19ZM279.544 12.938H277.01V11.44H283.758V12.938H281.224V19H279.544V12.938ZM285.064 11.44H286.758V13.96H288.102C288.736 13.96 289.198 13.988 289.488 14.044C290.141 14.184 290.64 14.4547 290.986 14.856C291.331 15.2573 291.504 15.8033 291.504 16.494C291.504 17.1473 291.331 17.6747 290.986 18.076C290.65 18.4773 290.164 18.7527 289.53 18.902C289.25 18.9673 288.783 19 288.13 19H285.064V11.44ZM288.284 17.684C288.564 17.684 288.797 17.656 288.984 17.6C289.208 17.544 289.394 17.4133 289.544 17.208C289.702 17.0027 289.782 16.7647 289.782 16.494C289.782 16.1953 289.702 15.948 289.544 15.752C289.385 15.5467 289.184 15.4113 288.942 15.346C288.755 15.2993 288.536 15.276 288.284 15.276H286.758V17.684H288.284ZM299.113 19.21C298.357 19.21 297.699 19.042 297.139 18.706C296.589 18.3607 296.164 17.8847 295.865 17.278C295.567 16.6713 295.417 15.9853 295.417 15.22C295.417 14.4453 295.571 13.7593 295.879 13.162C296.187 12.5553 296.617 12.084 297.167 11.748C297.727 11.4027 298.385 11.23 299.141 11.23C300 11.23 300.728 11.4493 301.325 11.888C301.923 12.3173 302.31 12.9007 302.487 13.638L300.807 14.1C300.677 13.6893 300.457 13.372 300.149 13.148C299.851 12.924 299.505 12.812 299.113 12.812C298.479 12.812 298.003 13.0313 297.685 13.47C297.368 13.9087 297.205 14.492 297.195 15.22C297.205 15.9573 297.373 16.5453 297.699 16.984C298.026 17.4133 298.497 17.628 299.113 17.628C299.552 17.628 299.902 17.53 300.163 17.334C300.425 17.138 300.625 16.8393 300.765 16.438L302.487 16.816C302.254 17.5813 301.843 18.174 301.255 18.594C300.677 19.0047 299.963 19.21 299.113 19.21ZM308.3 16.452C308.038 16.592 307.74 16.6993 307.404 16.774C307.077 16.8487 306.732 16.886 306.368 16.886C305.593 16.886 304.972 16.7133 304.506 16.368C304.039 16.0133 303.736 15.5 303.596 14.828C303.521 14.4453 303.484 13.9273 303.484 13.274V11.44H305.192V13.274C305.192 13.7033 305.224 14.0487 305.29 14.31C305.374 14.6833 305.532 14.9587 305.766 15.136C305.999 15.3133 306.33 15.402 306.76 15.402C307.077 15.402 307.366 15.36 307.628 15.276C307.889 15.192 308.113 15.0753 308.3 14.926V11.44H309.994V19H308.3V16.452ZM315.387 19.21C314.631 19.21 313.959 19.0467 313.371 18.72C312.792 18.384 312.339 17.922 312.013 17.334C311.695 16.7367 311.537 16.06 311.537 15.304C311.537 14.492 311.691 13.778 311.999 13.162C312.316 12.5367 312.759 12.0607 313.329 11.734C313.898 11.398 314.556 11.23 315.303 11.23C316.068 11.23 316.726 11.412 317.277 11.776C317.837 12.14 318.247 12.658 318.509 13.33C318.779 14.002 318.882 14.7907 318.817 15.696H317.151V15.08C317.141 14.2587 316.992 13.6567 316.703 13.274C316.423 12.8913 315.979 12.7 315.373 12.7C314.682 12.7 314.164 12.9147 313.819 13.344C313.483 13.7733 313.315 14.3987 313.315 15.22C313.315 15.9947 313.483 16.592 313.819 17.012C314.164 17.4227 314.659 17.628 315.303 17.628C315.713 17.628 316.068 17.5393 316.367 17.362C316.675 17.1753 316.908 16.9047 317.067 16.55L318.733 17.054C318.453 17.726 318.009 18.2533 317.403 18.636C316.796 19.0187 316.124 19.21 315.387 19.21ZM312.783 14.422H317.991V15.696H312.783V14.422ZM322.282 12.938H319.748V11.44H326.496V12.938H323.962V19H322.282V12.938Z" fill="white"/>
<path d="M0.518 61.02C0.975333 61.02 1.33 60.88 1.582 60.6C1.84333 60.32 2.03 59.97 2.142 59.55C2.254 59.1207 2.34267 58.5747 2.408 57.912L2.45 57.548C2.52467 56.904 2.58067 56.2273 2.618 55.518C2.66467 54.7993 2.70667 54.0713 2.744 53.334L2.828 51.92H9.044V61.02H9.772V63.68H8.736V62H1.54V63.68H0.518V61.02ZM8.022 61.02V52.9H3.794C3.75667 53.6187 3.724 54.1927 3.696 54.622C3.64 55.77 3.56067 56.848 3.458 57.856C3.374 58.752 3.262 59.4333 3.122 59.9C2.99133 60.3667 2.77667 60.74 2.478 61.02H8.022ZM14.4663 62.21C13.7289 62.21 13.0896 62.042 12.5483 61.706C12.0069 61.37 11.5916 60.9033 11.3023 60.306C11.0223 59.6993 10.8823 58.9993 10.8823 58.206C10.8823 57.422 11.0269 56.7313 11.3163 56.134C11.6056 55.5273 12.0209 55.0607 12.5623 54.734C13.1036 54.398 13.7383 54.23 14.4663 54.23C15.2036 54.23 15.8429 54.398 16.3843 54.734C16.9256 55.07 17.3363 55.5413 17.6163 56.148C17.9056 56.7453 18.0503 57.4313 18.0503 58.206C18.0503 58.9993 17.9056 59.6993 17.6163 60.306C17.3269 60.9127 16.9116 61.384 16.3703 61.72C15.8289 62.0467 15.1943 62.21 14.4663 62.21ZM14.4663 61.23C15.2783 61.23 15.8943 60.9593 16.3143 60.418C16.7436 59.8673 16.9583 59.13 16.9583 58.206C16.9583 57.2727 16.7436 56.54 16.3143 56.008C15.8943 55.476 15.2783 55.21 14.4663 55.21C13.6449 55.21 13.0243 55.4807 12.6043 56.022C12.1843 56.5633 11.9743 57.2913 11.9743 58.206C11.9743 59.1393 12.1843 59.8767 12.6043 60.418C13.0336 60.9593 13.6543 61.23 14.4663 61.23ZM22.7234 62.21C21.9768 62.21 21.3374 62.042 20.8054 61.706C20.2734 61.37 19.8674 60.9033 19.5874 60.306C19.3168 59.6993 19.1768 59.004 19.1674 58.22C19.1768 57.4267 19.3214 56.7313 19.6014 56.134C19.8908 55.5273 20.2968 55.0607 20.8194 54.734C21.3514 54.398 21.9908 54.23 22.7374 54.23C23.4934 54.23 24.1561 54.4167 24.7254 54.79C25.2948 55.1633 25.6821 55.672 25.8874 56.316L24.8794 56.652C24.7114 56.1947 24.4314 55.84 24.0394 55.588C23.6568 55.336 23.2181 55.21 22.7234 55.21C21.9114 55.21 21.3001 55.4853 20.8894 56.036C20.4788 56.5773 20.2688 57.3053 20.2594 58.22C20.2688 59.144 20.4834 59.8767 20.9034 60.418C21.3234 60.9593 21.9301 61.23 22.7234 61.23C23.2368 61.23 23.6708 61.1133 24.0254 60.88C24.3894 60.6467 24.6694 60.3013 24.8654 59.844L25.8874 60.138C25.6074 60.81 25.1968 61.3233 24.6554 61.678C24.1234 62.0327 23.4794 62.21 22.7234 62.21ZM29.2196 55.392H26.5316V54.44H32.9296V55.392H30.2416V62H29.2196V55.392ZM36.8053 61.398L36.8193 62.574L33.5153 54.44H34.5933L37.3093 61.244H36.8613L39.3673 54.44H40.4313L36.3573 65.36H35.3353L36.8053 61.398ZM41.6402 54.44H47.6462V62H46.6242V55.42H42.6622V62H41.6402V54.44ZM49.6109 54.44H50.6329V57.73H54.9029V54.44H55.9249V62H54.9029V58.71H50.6329V62H49.6109V54.44ZM57.8823 54.44H58.9183V57.282H60.2203C60.7523 57.282 61.1583 57.31 61.4383 57.366C62.7263 57.6087 63.3703 58.3693 63.3703 59.648C63.3703 60.264 63.207 60.7633 62.8803 61.146C62.563 61.5287 62.1383 61.7807 61.6063 61.902C61.3077 61.9673 60.8783 62 60.3183 62H57.8823V54.44ZM60.2763 61.118C60.7617 61.118 61.1117 61.09 61.3263 61.034C61.6063 60.95 61.8397 60.796 62.0263 60.572C62.213 60.348 62.3063 60.04 62.3063 59.648C62.3063 59.2373 62.213 58.92 62.0263 58.696C61.8397 58.472 61.5737 58.3227 61.2283 58.248C60.9857 58.192 60.6683 58.164 60.2763 58.164H58.9183V61.118H60.2763ZM64.2803 54.44H65.3023V62H64.2803V54.44ZM70.3972 53.6C70.0706 53.6 69.7673 53.5207 69.4873 53.362C69.2166 53.194 68.9973 52.9747 68.8293 52.704C68.6706 52.424 68.5913 52.1207 68.5913 51.794H69.4453C69.4453 52.0553 69.5386 52.2793 69.7253 52.466C69.9119 52.6527 70.1359 52.746 70.3972 52.746C70.6586 52.746 70.8826 52.6527 71.0693 52.466C71.2559 52.2793 71.3493 52.0553 71.3493 51.794H72.2033C72.2033 52.1207 72.1193 52.424 71.9513 52.704C71.7926 52.9747 71.5733 53.194 71.2933 53.362C71.0226 53.5207 70.7239 53.6 70.3972 53.6ZM73.2673 62H72.2733V56.106L68.1292 62H67.2613V54.44H68.2553V60.278L72.3993 54.44H73.2673V62ZM81.1987 62.21C80.4614 62.21 79.822 62.042 79.2807 61.706C78.7394 61.37 78.324 60.9033 78.0347 60.306C77.7547 59.6993 77.6147 58.9993 77.6147 58.206C77.6147 57.422 77.7594 56.7313 78.0487 56.134C78.338 55.5273 78.7534 55.0607 79.2947 54.734C79.836 54.398 80.4707 54.23 81.1987 54.23C81.936 54.23 82.5754 54.398 83.1167 54.734C83.658 55.07 84.0687 55.5413 84.3487 56.148C84.638 56.7453 84.7827 57.4313 84.7827 58.206C84.7827 58.9993 84.638 59.6993 84.3487 60.306C84.0594 60.9127 83.644 61.384 83.1027 61.72C82.5614 62.0467 81.9267 62.21 81.1987 62.21ZM81.1987 61.23C82.0107 61.23 82.6267 60.9593 83.0467 60.418C83.476 59.8673 83.6907 59.13 83.6907 58.206C83.6907 57.2727 83.476 56.54 83.0467 56.008C82.6267 55.476 82.0107 55.21 81.1987 55.21C80.3774 55.21 79.7567 55.4807 79.3367 56.022C78.9167 56.5633 78.7067 57.2913 78.7067 58.206C78.7067 59.1393 78.9167 59.8767 79.3367 60.418C79.766 60.9593 80.3867 61.23 81.1987 61.23ZM89.4558 62.21C88.7092 62.21 88.0698 62.042 87.5378 61.706C87.0058 61.37 86.5998 60.9033 86.3198 60.306C86.0492 59.6993 85.9092 59.004 85.8998 58.22C85.9092 57.4267 86.0538 56.7313 86.3338 56.134C86.6232 55.5273 87.0292 55.0607 87.5518 54.734C88.0838 54.398 88.7232 54.23 89.4698 54.23C90.2258 54.23 90.8885 54.4167 91.4578 54.79C92.0272 55.1633 92.4145 55.672 92.6198 56.316L91.6118 56.652C91.4438 56.1947 91.1638 55.84 90.7718 55.588C90.3892 55.336 89.9505 55.21 89.4558 55.21C88.6438 55.21 88.0325 55.4853 87.6218 56.036C87.2112 56.5773 87.0012 57.3053 86.9918 58.22C87.0012 59.144 87.2158 59.8767 87.6358 60.418C88.0558 60.9593 88.6625 61.23 89.4558 61.23C89.9692 61.23 90.4032 61.1133 90.7578 60.88C91.1218 60.6467 91.4018 60.3013 91.5978 59.844L92.6198 60.138C92.3398 60.81 91.9292 61.3233 91.3878 61.678C90.8558 62.0327 90.2118 62.21 89.4558 62.21ZM95.9521 55.392H93.2641V54.44H99.6621V55.392H96.9741V62H95.9521V55.392ZM102.873 62.21C102.313 62.21 101.837 62.112 101.445 61.916C101.062 61.7107 100.773 61.44 100.577 61.104C100.381 60.7587 100.283 60.3807 100.283 59.97C100.283 59.3727 100.451 58.8967 100.787 58.542C101.132 58.1873 101.603 57.9307 102.201 57.772C102.611 57.6693 103.083 57.5807 103.615 57.506C104.147 57.422 104.725 57.3427 105.351 57.268C105.631 57.2307 105.855 57.2027 106.023 57.184L105.645 57.394C105.663 56.638 105.514 56.0827 105.197 55.728C104.889 55.3733 104.366 55.196 103.629 55.196C103.097 55.196 102.653 55.3173 102.299 55.56C101.953 55.8027 101.711 56.1667 101.571 56.652L100.563 56.358C100.74 55.6767 101.09 55.154 101.613 54.79C102.145 54.4167 102.826 54.23 103.657 54.23C104.347 54.23 104.935 54.3607 105.421 54.622C105.906 54.874 106.247 55.2473 106.443 55.742C106.517 55.9473 106.573 56.1807 106.611 56.442C106.648 56.7033 106.667 56.9927 106.667 57.31V62H105.743V60.096L106.009 60.222C105.757 60.866 105.36 61.3607 104.819 61.706C104.277 62.042 103.629 62.21 102.873 62.21ZM102.985 61.314C103.685 61.314 104.259 61.132 104.707 60.768C105.155 60.404 105.43 59.9233 105.533 59.326C105.579 59.1207 105.607 58.8827 105.617 58.612C105.635 58.332 105.645 58.0847 105.645 57.87L106.037 58.08C105.953 58.0893 105.869 58.0987 105.785 58.108C105.71 58.1173 105.635 58.1267 105.561 58.136C104.842 58.22 104.263 58.2947 103.825 58.36C103.386 58.416 102.985 58.4953 102.621 58.598C102.238 58.7007 101.925 58.864 101.683 59.088C101.44 59.3027 101.319 59.5967 101.319 59.97C101.319 60.3433 101.454 60.6607 101.725 60.922C102.005 61.1833 102.425 61.314 102.985 61.314ZM110.54 55.392H107.852V54.44H114.25V55.392H111.562V62H110.54V55.392ZM118.605 62.21C117.868 62.21 117.228 62.042 116.687 61.706C116.146 61.37 115.73 60.9033 115.441 60.306C115.161 59.6993 115.021 58.9993 115.021 58.206C115.021 57.422 115.166 56.7313 115.455 56.134C115.744 55.5273 116.16 55.0607 116.701 54.734C117.242 54.398 117.877 54.23 118.605 54.23C119.342 54.23 119.982 54.398 120.523 54.734C121.064 55.07 121.475 55.5413 121.755 56.148C122.044 56.7453 122.189 57.4313 122.189 58.206C122.189 58.9993 122.044 59.6993 121.755 60.306C121.466 60.9127 121.05 61.384 120.509 61.72C119.968 62.0467 119.333 62.21 118.605 62.21ZM118.605 61.23C119.417 61.23 120.033 60.9593 120.453 60.418C120.882 59.8673 121.097 59.13 121.097 58.206C121.097 57.2727 120.882 56.54 120.453 56.008C120.033 55.476 119.417 55.21 118.605 55.21C117.784 55.21 117.163 55.4807 116.743 56.022C116.323 56.5633 116.113 57.2913 116.113 58.206C116.113 59.1393 116.323 59.8767 116.743 60.418C117.172 60.9593 117.793 61.23 118.605 61.23ZM123.726 54.44H124.762V58.08L128.136 54.44H129.508L125.966 58.22L129.97 62H128.472L124.762 58.36V62H123.726V54.44Z" fill="white"/>
<path d="M269.744 53.292L267.84 54.44V53.054L269.744 51.92H271.004V62H269.744V53.292ZM277.07 62.21C276.426 62.21 275.842 62.0653 275.32 61.776C274.806 61.4773 274.4 61.0713 274.102 60.558C273.812 60.0353 273.668 59.452 273.668 58.808V55.112C273.668 54.468 273.812 53.8893 274.102 53.376C274.4 52.8533 274.806 52.4473 275.32 52.158C275.842 51.8593 276.426 51.71 277.07 51.71C277.714 51.71 278.292 51.8593 278.806 52.158C279.328 52.4473 279.734 52.8533 280.024 53.376C280.322 53.8893 280.472 54.468 280.472 55.112V58.808C280.472 59.452 280.322 60.0353 280.024 60.558C279.734 61.0713 279.328 61.4773 278.806 61.776C278.292 62.0653 277.714 62.21 277.07 62.21ZM277.07 61.006C277.462 61.006 277.821 60.9127 278.148 60.726C278.474 60.53 278.731 60.2687 278.918 59.942C279.114 59.6153 279.212 59.2607 279.212 58.878V55.028C279.212 54.6453 279.114 54.2907 278.918 53.964C278.731 53.6373 278.474 53.3807 278.148 53.194C277.821 52.998 277.462 52.9 277.07 52.9C276.687 52.9 276.332 52.998 276.006 53.194C275.679 53.3807 275.418 53.6373 275.222 53.964C275.035 54.2907 274.942 54.6453 274.942 55.028V58.878C274.942 59.2607 275.035 59.6153 275.222 59.942C275.418 60.2687 275.679 60.53 276.006 60.726C276.332 60.9127 276.687 61.006 277.07 61.006ZM284.195 53.292L282.291 54.44V53.054L284.195 51.92H285.455V62H284.195V53.292ZM293.693 62.196C292.937 62.196 292.27 61.9907 291.691 61.58C291.113 61.1693 290.716 60.6187 290.501 59.928L291.705 59.578C291.845 60.0447 292.093 60.404 292.447 60.656C292.811 60.8987 293.222 61.0153 293.679 61.006C294.295 60.9967 294.785 60.796 295.149 60.404C295.513 60.012 295.695 59.508 295.695 58.892C295.695 58.2667 295.509 57.7627 295.135 57.38C294.762 56.988 294.272 56.792 293.665 56.792C293.497 56.792 293.32 56.8153 293.133 56.862C292.956 56.9087 292.788 56.974 292.629 57.058L292.027 56.064L295.765 52.69L295.919 53.11H290.907V51.92H296.843V53.11L293.665 56.162L293.651 55.728C294.305 55.6813 294.883 55.7887 295.387 56.05C295.891 56.3113 296.283 56.694 296.563 57.198C296.843 57.6927 296.983 58.2573 296.983 58.892C296.983 59.5267 296.839 60.096 296.549 60.6C296.26 61.104 295.863 61.496 295.359 61.776C294.865 62.056 294.309 62.196 293.693 62.196ZM301.778 62.21C301.004 62.21 300.318 61.9767 299.72 61.51C299.123 61.0433 298.722 60.4413 298.516 59.704L299.72 59.382C299.842 59.8673 300.098 60.2593 300.49 60.558C300.892 60.8473 301.335 60.992 301.82 60.992C302.222 60.992 302.586 60.894 302.912 60.698C303.248 60.502 303.51 60.2407 303.696 59.914C303.892 59.578 303.99 59.214 303.99 58.822C303.99 58.43 303.892 58.066 303.696 57.73C303.5 57.394 303.234 57.1327 302.898 56.946C302.572 56.75 302.212 56.652 301.82 56.652C301.4 56.652 301.032 56.7407 300.714 56.918C300.397 57.0953 300.136 57.324 299.93 57.604L298.824 57.184L299.132 51.92H304.55V53.096H299.734L300.294 52.578L300.028 56.806L299.762 56.442C300.033 56.1433 300.36 55.9147 300.742 55.756C301.134 55.588 301.54 55.504 301.96 55.504C302.567 55.504 303.122 55.6533 303.626 55.952C304.13 56.2413 304.527 56.638 304.816 57.142C305.106 57.646 305.25 58.206 305.25 58.822C305.25 59.4287 305.092 59.9933 304.774 60.516C304.457 61.0387 304.032 61.454 303.5 61.762C302.968 62.0607 302.394 62.21 301.778 62.21ZM311.272 60.138H306.638V58.962L309.97 51.92H311.384L308.052 58.962H311.272V56.12H312.532V58.962H313.582V60.138H312.532V62H311.272V60.138ZM314.928 62.98C315.171 62.9987 315.339 62.938 315.432 62.798C315.535 62.658 315.581 62.4527 315.572 62.182C315.572 62.154 315.572 62.1213 315.572 62.084C315.572 62.056 315.572 62.028 315.572 62H314.844V60.418H316.216V62.21C316.216 62.7047 316.095 63.0733 315.852 63.316C315.609 63.5587 315.273 63.6427 314.844 63.568L314.928 62.98ZM322.17 51.71C322.805 51.71 323.384 51.864 323.906 52.172C324.438 52.48 324.854 52.9047 325.152 53.446C325.46 53.9873 325.614 54.5893 325.614 55.252V58.598C325.614 59.298 325.46 59.9233 325.152 60.474C324.854 61.0153 324.434 61.44 323.892 61.748C323.351 62.056 322.74 62.21 322.058 62.21C321.498 62.21 320.98 62.098 320.504 61.874C320.028 61.6407 319.627 61.314 319.3 60.894L320.238 60.068C320.444 60.3573 320.705 60.5907 321.022 60.768C321.349 60.936 321.694 61.02 322.058 61.02C322.497 61.02 322.889 60.9173 323.234 60.712C323.58 60.4973 323.85 60.2173 324.046 59.872C324.242 59.5173 324.34 59.1393 324.34 58.738V56.722L324.62 57.03C324.322 57.45 323.944 57.786 323.486 58.038C323.038 58.29 322.553 58.416 322.03 58.416C321.414 58.416 320.854 58.2713 320.35 57.982C319.846 57.6833 319.45 57.282 319.16 56.778C318.88 56.2647 318.74 55.7 318.74 55.084C318.74 54.468 318.894 53.9033 319.202 53.39C319.51 52.8767 319.926 52.4707 320.448 52.172C320.98 51.864 321.554 51.71 322.17 51.71ZM322.17 52.914C321.778 52.914 321.414 53.012 321.078 53.208C320.742 53.3947 320.476 53.656 320.28 53.992C320.094 54.328 320 54.692 320 55.084C320 55.4853 320.094 55.854 320.28 56.19C320.476 56.5167 320.742 56.778 321.078 56.974C321.414 57.17 321.778 57.268 322.17 57.268C322.562 57.268 322.926 57.17 323.262 56.974C323.598 56.778 323.86 56.512 324.046 56.176C324.242 55.84 324.34 55.476 324.34 55.084C324.34 54.692 324.242 54.3327 324.046 54.006C323.86 53.67 323.598 53.404 323.262 53.208C322.926 53.012 322.562 52.914 322.17 52.914ZM330.348 62.196C329.592 62.196 328.924 61.9907 328.346 61.58C327.767 61.1693 327.37 60.6187 327.156 59.928L328.36 59.578C328.5 60.0447 328.747 60.404 329.102 60.656C329.466 60.8987 329.876 61.0153 330.334 61.006C330.95 60.9967 331.44 60.796 331.804 60.404C332.168 60.012 332.35 59.508 332.35 58.892C332.35 58.2667 332.163 57.7627 331.79 57.38C331.416 56.988 330.926 56.792 330.32 56.792C330.152 56.792 329.974 56.8153 329.788 56.862C329.61 56.9087 329.442 56.974 329.284 57.058L328.682 56.064L332.42 52.69L332.574 53.11H327.562V51.92H333.498V53.11L330.32 56.162L330.306 55.728C330.959 55.6813 331.538 55.7887 332.042 56.05C332.546 56.3113 332.938 56.694 333.218 57.198C333.498 57.6927 333.638 58.2573 333.638 58.892C333.638 59.5267 333.493 60.096 333.204 60.6C332.914 61.104 332.518 61.496 332.014 61.776C331.519 62.056 330.964 62.196 330.348 62.196ZM338.253 57.086H343.041C343.275 57.086 343.485 57.0627 343.671 57.016C344.119 56.904 344.46 56.68 344.693 56.344C344.927 55.9987 345.043 55.588 345.043 55.112C345.043 54.6453 344.927 54.23 344.693 53.866C344.469 53.502 344.129 53.2687 343.671 53.166C343.494 53.1193 343.284 53.096 343.041 53.096H340.199V51.92H343.083C343.335 51.92 343.583 51.9387 343.825 51.976C344.619 52.0973 345.23 52.4427 345.659 53.012C346.098 53.572 346.317 54.2627 346.317 55.084C346.317 55.9053 346.103 56.5867 345.673 57.128C345.244 57.6693 344.628 58.0007 343.825 58.122C343.583 58.1593 343.335 58.178 343.083 58.178H338.253V57.086ZM338.253 59.368H343.853V60.404H338.253V59.368ZM339.303 51.92H340.549V62H339.303V51.92Z" fill="white"/>
<path d="M0.98 89.92H8.694V100H7.672V90.9H2.002V100H0.98V89.92ZM13.8237 100.21C13.0864 100.21 12.447 100.042 11.9057 99.706C11.3644 99.37 10.949 98.9033 10.6597 98.306C10.3797 97.6993 10.2397 96.9993 10.2397 96.206C10.2397 95.422 10.3844 94.7313 10.6737 94.134C10.963 93.5273 11.3784 93.0607 11.9197 92.734C12.461 92.398 13.0957 92.23 13.8237 92.23C14.561 92.23 15.2004 92.398 15.7417 92.734C16.283 93.07 16.6937 93.5413 16.9737 94.148C17.263 94.7453 17.4077 95.4313 17.4077 96.206C17.4077 96.9993 17.263 97.6993 16.9737 98.306C16.6844 98.9127 16.269 99.384 15.7277 99.72C15.1864 100.047 14.5517 100.21 13.8237 100.21ZM13.8237 99.23C14.6357 99.23 15.2517 98.9593 15.6717 98.418C16.101 97.8673 16.3157 97.13 16.3157 96.206C16.3157 95.2727 16.101 94.54 15.6717 94.008C15.2517 93.476 14.6357 93.21 13.8237 93.21C13.0024 93.21 12.3817 93.4807 11.9617 94.022C11.5417 94.5633 11.3317 95.2913 11.3317 96.206C11.3317 97.1393 11.5417 97.8767 11.9617 98.418C12.391 98.9593 13.0117 99.23 13.8237 99.23ZM22.0808 100.21C21.3342 100.21 20.6948 100.042 20.1628 99.706C19.6308 99.37 19.2248 98.9033 18.9448 98.306C18.6742 97.6993 18.5342 97.004 18.5248 96.22C18.5342 95.4267 18.6788 94.7313 18.9588 94.134C19.2482 93.5273 19.6542 93.0607 20.1768 92.734C20.7088 92.398 21.3482 92.23 22.0948 92.23C22.8508 92.23 23.5135 92.4167 24.0828 92.79C24.6522 93.1633 25.0395 93.672 25.2448 94.316L24.2368 94.652C24.0688 94.1947 23.7888 93.84 23.3968 93.588C23.0142 93.336 22.5755 93.21 22.0808 93.21C21.2688 93.21 20.6575 93.4853 20.2468 94.036C19.8362 94.5773 19.6262 95.3053 19.6168 96.22C19.6262 97.144 19.8408 97.8767 20.2608 98.418C20.6808 98.9593 21.2875 99.23 22.0808 99.23C22.5942 99.23 23.0282 99.1133 23.3828 98.88C23.7468 98.6467 24.0268 98.3013 24.2228 97.844L25.2448 98.138C24.9648 98.81 24.5542 99.3233 24.0128 99.678C23.4808 100.033 22.8368 100.21 22.0808 100.21ZM25.7917 99.104C26.0624 99.1507 26.2724 99.1367 26.4217 99.062C26.5711 98.9873 26.6784 98.866 26.7437 98.698C26.8184 98.53 26.8791 98.2873 26.9257 97.97C27.0377 97.326 27.1311 96.57 27.2057 95.702C27.2897 94.834 27.3691 93.7467 27.4437 92.44H32.5957V100H31.5597V93.42H28.4097C28.2231 95.8933 28.0364 97.5967 27.8497 98.53C27.7657 98.978 27.6537 99.3233 27.5137 99.566C27.3737 99.7993 27.1684 99.9533 26.8977 100.028C26.6271 100.103 26.2584 100.093 25.7917 100V99.104ZM37.7365 100.21C37.0085 100.21 36.3738 100.047 35.8325 99.72C35.2911 99.3933 34.8711 98.9313 34.5725 98.334C34.2738 97.7367 34.1245 97.0413 34.1245 96.248C34.1245 95.436 34.2691 94.7267 34.5585 94.12C34.8478 93.5133 35.2631 93.0467 35.8045 92.72C36.3458 92.3933 36.9805 92.23 37.7085 92.23C38.4458 92.23 39.0805 92.4027 39.6125 92.748C40.1445 93.084 40.5458 93.574 40.8165 94.218C41.0871 94.862 41.2085 95.6273 41.1805 96.514H40.1305V96.15C40.1118 95.17 39.8971 94.428 39.4865 93.924C39.0851 93.42 38.5018 93.168 37.7365 93.168C36.9245 93.168 36.2991 93.434 35.8605 93.966C35.4311 94.498 35.2165 95.2493 35.2165 96.22C35.2165 97.172 35.4311 97.914 35.8605 98.446C36.2991 98.9687 36.9151 99.23 37.7085 99.23C38.2498 99.23 38.7211 99.104 39.1225 98.852C39.5238 98.6 39.8411 98.2407 40.0745 97.774L41.0405 98.138C40.7418 98.7913 40.2985 99.3 39.7105 99.664C39.1318 100.028 38.4738 100.21 37.7365 100.21ZM34.8525 95.646H40.6345V96.514H34.8525V95.646ZM42.1739 99.118C42.4539 99.118 42.6826 99.0573 42.8599 98.936C43.0372 98.8147 43.1772 98.6327 43.2799 98.39C43.3826 98.138 43.4759 97.7973 43.5599 97.368C43.6719 96.808 43.7559 96.1687 43.8119 95.45C43.8772 94.722 43.9379 93.7187 43.9939 92.44H48.9919V99.118H49.7059V101.68H48.7259V100H43.1679V101.68H42.1739V99.118ZM47.9559 99.118V93.322H44.9459C44.8992 94.274 44.8432 95.1187 44.7779 95.856C44.7126 96.584 44.6239 97.1907 44.5119 97.676C44.4279 98.0587 44.3439 98.362 44.2599 98.586C44.1759 98.8007 44.0639 98.978 43.9239 99.118H47.9559ZM51.1148 92.44H52.1368V95.73H56.4068V92.44H57.4288V100H56.4068V96.71H52.1368V100H51.1148V92.44ZM65.3923 100H64.3983V94.106L60.2542 100H59.3863V92.44H60.3803V98.278L64.5243 92.44H65.3923V100ZM70.493 91.6C70.1663 91.6 69.863 91.5207 69.583 91.362C69.3123 91.194 69.093 90.9747 68.925 90.704C68.7663 90.424 68.687 90.1207 68.687 89.794H69.541C69.541 90.0553 69.6343 90.2793 69.821 90.466C70.0076 90.6527 70.2316 90.746 70.493 90.746C70.7543 90.746 70.9783 90.6527 71.165 90.466C71.3516 90.2793 71.445 90.0553 71.445 89.794H72.299C72.299 90.1207 72.215 90.424 72.047 90.704C71.8883 90.9747 71.669 91.194 71.389 91.362C71.1183 91.5207 70.8196 91.6 70.493 91.6ZM73.363 100H72.369V94.106L68.225 100H67.357V92.44H68.351V98.278L72.495 92.44H73.363V100ZM78.1304 92.44H84.1364V100H83.1144V93.42H79.1524V100H78.1304V92.44ZM85.4011 99.104C85.6718 99.1507 85.8818 99.1367 86.0311 99.062C86.1804 98.9873 86.2878 98.866 86.3531 98.698C86.4278 98.53 86.4884 98.2873 86.5351 97.97C86.6471 97.326 86.7404 96.57 86.8151 95.702C86.8991 94.834 86.9784 93.7467 87.0531 92.44H92.2051V100H91.1691V93.42H88.0191C87.8324 95.8933 87.6458 97.5967 87.4591 98.53C87.3751 98.978 87.2631 99.3233 87.1231 99.566C86.9831 99.7993 86.7778 99.9533 86.5071 100.028C86.2364 100.103 85.8678 100.093 85.4011 100V99.104ZM96.3238 100.21C95.7638 100.21 95.2878 100.112 94.8958 99.916C94.5132 99.7107 94.2238 99.44 94.0278 99.104C93.8318 98.7587 93.7338 98.3807 93.7338 97.97C93.7338 97.3727 93.9018 96.8967 94.2378 96.542C94.5832 96.1873 95.0545 95.9307 95.6518 95.772C96.0625 95.6693 96.5338 95.5807 97.0658 95.506C97.5978 95.422 98.1765 95.3427 98.8018 95.268C99.0818 95.2307 99.3058 95.2027 99.4738 95.184L99.0958 95.394C99.1145 94.638 98.9652 94.0827 98.6478 93.728C98.3398 93.3733 97.8172 93.196 97.0798 93.196C96.5478 93.196 96.1045 93.3173 95.7498 93.56C95.4045 93.8027 95.1618 94.1667 95.0218 94.652L94.0138 94.358C94.1912 93.6767 94.5412 93.154 95.0638 92.79C95.5958 92.4167 96.2772 92.23 97.1078 92.23C97.7985 92.23 98.3865 92.3607 98.8718 92.622C99.3572 92.874 99.6978 93.2473 99.8938 93.742C99.9685 93.9473 100.024 94.1807 100.062 94.442C100.099 94.7033 100.118 94.9927 100.118 95.31V100H99.1938V98.096L99.4598 98.222C99.2078 98.866 98.8112 99.3607 98.2698 99.706C97.7285 100.042 97.0798 100.21 96.3238 100.21ZM96.4358 99.314C97.1358 99.314 97.7098 99.132 98.1578 98.768C98.6058 98.404 98.8812 97.9233 98.9838 97.326C99.0305 97.1207 99.0585 96.8827 99.0678 96.612C99.0865 96.332 99.0958 96.0847 99.0958 95.87L99.4878 96.08C99.4038 96.0893 99.3198 96.0987 99.2358 96.108C99.1612 96.1173 99.0865 96.1267 99.0118 96.136C98.2932 96.22 97.7145 96.2947 97.2758 96.36C96.8372 96.416 96.4358 96.4953 96.0718 96.598C95.6892 96.7007 95.3765 96.864 95.1338 97.088C94.8912 97.3027 94.7698 97.5967 94.7698 97.97C94.7698 98.3433 94.9052 98.6607 95.1758 98.922C95.4558 99.1833 95.8758 99.314 96.4358 99.314ZM103.991 93.392H101.303V92.44H107.701V93.392H105.013V100H103.991V93.392ZM112.221 100.21C111.493 100.21 110.858 100.047 110.317 99.72C109.775 99.3933 109.355 98.9313 109.057 98.334C108.758 97.7367 108.609 97.0413 108.609 96.248C108.609 95.436 108.753 94.7267 109.043 94.12C109.332 93.5133 109.747 93.0467 110.289 92.72C110.83 92.3933 111.465 92.23 112.193 92.23C112.93 92.23 113.565 92.4027 114.097 92.748C114.629 93.084 115.03 93.574 115.301 94.218C115.571 94.862 115.693 95.6273 115.665 96.514H114.615V96.15C114.596 95.17 114.381 94.428 113.971 93.924C113.569 93.42 112.986 93.168 112.221 93.168C111.409 93.168 110.783 93.434 110.345 93.966C109.915 94.498 109.701 95.2493 109.701 96.22C109.701 97.172 109.915 97.914 110.345 98.446C110.783 98.9687 111.399 99.23 112.193 99.23C112.734 99.23 113.205 99.104 113.607 98.852C114.008 98.6 114.325 98.2407 114.559 97.774L115.525 98.138C115.226 98.7913 114.783 99.3 114.195 99.664C113.616 100.028 112.958 100.21 112.221 100.21ZM109.337 95.646H115.119V96.514H109.337V95.646ZM119.297 96.22L116.245 92.44H117.393L120.375 96.178V92.44H121.327V96.178L124.309 92.44H125.471L122.419 96.22L125.611 100H124.407L121.327 96.262V100H120.375V96.262L117.309 100H116.105L119.297 96.22ZM129.523 92.44H135.529V100H134.507V93.42H130.545V100H129.523V92.44ZM140.658 100.21C139.92 100.21 139.281 100.042 138.74 99.706C138.198 99.37 137.783 98.9033 137.494 98.306C137.214 97.6993 137.074 96.9993 137.074 96.206C137.074 95.422 137.218 94.7313 137.508 94.134C137.797 93.5273 138.212 93.0607 138.754 92.734C139.295 92.398 139.93 92.23 140.658 92.23C141.395 92.23 142.034 92.398 142.576 92.734C143.117 93.07 143.528 93.5413 143.808 94.148C144.097 94.7453 144.242 95.4313 144.242 96.206C144.242 96.9993 144.097 97.6993 143.808 98.306C143.518 98.9127 143.103 99.384 142.562 99.72C142.02 100.047 141.386 100.21 140.658 100.21ZM140.658 99.23C141.47 99.23 142.086 98.9593 142.506 98.418C142.935 97.8673 143.15 97.13 143.15 96.206C143.15 95.2727 142.935 94.54 142.506 94.008C142.086 93.476 141.47 93.21 140.658 93.21C139.836 93.21 139.216 93.4807 138.796 94.022C138.376 94.5633 138.166 95.2913 138.166 96.206C138.166 97.1393 138.376 97.8767 138.796 98.418C139.225 98.9593 139.846 99.23 140.658 99.23ZM148.022 99.118C148.302 99.118 148.53 99.0573 148.708 98.936C148.885 98.8147 149.025 98.6327 149.128 98.39C149.23 98.138 149.324 97.7973 149.408 97.368C149.52 96.808 149.604 96.1687 149.66 95.45C149.725 94.722 149.786 93.7187 149.842 92.44H154.84V99.118H155.554V101.68H154.574V100H149.016V101.68H148.022V99.118ZM153.804 99.118V93.322H150.794C150.747 94.274 150.691 95.1187 150.626 95.856C150.56 96.584 150.472 97.1907 150.36 97.676C150.276 98.0587 150.192 98.362 150.108 98.586C150.024 98.8007 149.912 98.978 149.772 99.118H153.804ZM159.853 100.21C159.116 100.21 158.476 100.042 157.935 99.706C157.394 99.37 156.978 98.9033 156.689 98.306C156.409 97.6993 156.269 96.9993 156.269 96.206C156.269 95.422 156.414 94.7313 156.703 94.134C156.992 93.5273 157.408 93.0607 157.949 92.734C158.49 92.398 159.125 92.23 159.853 92.23C160.59 92.23 161.23 92.398 161.771 92.734C162.312 93.07 162.723 93.5413 163.003 94.148C163.292 94.7453 163.437 95.4313 163.437 96.206C163.437 96.9993 163.292 97.6993 163.003 98.306C162.714 98.9127 162.298 99.384 161.757 99.72C161.216 100.047 160.581 100.21 159.853 100.21ZM159.853 99.23C160.665 99.23 161.281 98.9593 161.701 98.418C162.13 97.8673 162.345 97.13 162.345 96.206C162.345 95.2727 162.13 94.54 161.701 94.008C161.281 93.476 160.665 93.21 159.853 93.21C159.032 93.21 158.411 93.4807 157.991 94.022C157.571 94.5633 157.361 95.2913 157.361 96.206C157.361 97.1393 157.571 97.8767 157.991 98.418C158.42 98.9593 159.041 99.23 159.853 99.23ZM164.974 92.44H170.154V93.42H165.996V100H164.974V92.44ZM174.509 100.21C173.772 100.21 173.133 100.042 172.591 99.706C172.05 99.37 171.635 98.9033 171.345 98.306C171.065 97.6993 170.925 96.9993 170.925 96.206C170.925 95.422 171.07 94.7313 171.359 94.134C171.649 93.5273 172.064 93.0607 172.605 92.734C173.147 92.398 173.781 92.23 174.509 92.23C175.247 92.23 175.886 92.398 176.427 92.734C176.969 93.07 177.379 93.5413 177.659 94.148C177.949 94.7453 178.093 95.4313 178.093 96.206C178.093 96.9993 177.949 97.6993 177.659 98.306C177.37 98.9127 176.955 99.384 176.413 99.72C175.872 100.047 175.237 100.21 174.509 100.21ZM174.509 99.23C175.321 99.23 175.937 98.9593 176.357 98.418C176.787 97.8673 177.001 97.13 177.001 96.206C177.001 95.2727 176.787 94.54 176.357 94.008C175.937 93.476 175.321 93.21 174.509 93.21C173.688 93.21 173.067 93.4807 172.647 94.022C172.227 94.5633 172.017 95.2913 172.017 96.206C172.017 97.1393 172.227 97.8767 172.647 98.418C173.077 98.9593 173.697 99.23 174.509 99.23ZM179.63 92.44H182.738C183.205 92.44 183.611 92.4867 183.956 92.58C184.386 92.692 184.726 92.9207 184.978 93.266C185.23 93.6113 185.356 94.0267 185.356 94.512C185.356 95.0253 185.202 95.45 184.894 95.786C184.754 95.926 184.596 96.038 184.418 96.122C184.568 96.15 184.731 96.22 184.908 96.332C185.459 96.6493 185.734 97.186 185.734 97.942C185.734 98.446 185.613 98.866 185.37 99.202C185.128 99.5287 184.792 99.7527 184.362 99.874C184.082 99.958 183.676 100 183.144 100H179.63V92.44ZM183.102 99.132C183.373 99.132 183.625 99.0993 183.858 99.034C184.129 98.9687 184.33 98.8333 184.46 98.628C184.591 98.4227 184.656 98.1847 184.656 97.914C184.656 97.5873 184.558 97.3167 184.362 97.102C184.176 96.8873 183.919 96.7567 183.592 96.71C183.452 96.682 183.238 96.668 182.948 96.668H180.666V99.132H183.102ZM182.78 95.786C183.107 95.786 183.373 95.7487 183.578 95.674C183.812 95.59 183.989 95.45 184.11 95.254C184.232 95.0487 184.292 94.82 184.292 94.568C184.292 94.2973 184.227 94.064 184.096 93.868C183.966 93.6627 183.784 93.518 183.55 93.434C183.317 93.3593 183.014 93.322 182.64 93.322H180.666V95.786H182.78ZM190.3 100.21C189.563 100.21 188.924 100.042 188.382 99.706C187.841 99.37 187.426 98.9033 187.136 98.306C186.856 97.6993 186.716 96.9993 186.716 96.206C186.716 95.422 186.861 94.7313 187.15 94.134C187.44 93.5273 187.855 93.0607 188.396 92.734C188.938 92.398 189.572 92.23 190.3 92.23C191.038 92.23 191.677 92.398 192.218 92.734C192.76 93.07 193.17 93.5413 193.45 94.148C193.74 94.7453 193.884 95.4313 193.884 96.206C193.884 96.9993 193.74 97.6993 193.45 98.306C193.161 98.9127 192.746 99.384 192.204 99.72C191.663 100.047 191.028 100.21 190.3 100.21ZM190.3 99.23C191.112 99.23 191.728 98.9593 192.148 98.418C192.578 97.8673 192.792 97.13 192.792 96.206C192.792 95.2727 192.578 94.54 192.148 94.008C191.728 93.476 191.112 93.21 190.3 93.21C189.479 93.21 188.858 93.4807 188.438 94.022C188.018 94.5633 187.808 95.2913 187.808 96.206C187.808 97.1393 188.018 97.8767 188.438 98.418C188.868 98.9593 189.488 99.23 190.3 99.23ZM198.809 100.21C198.137 100.21 197.559 100.037 197.073 99.692C196.588 99.3373 196.219 98.8613 195.967 98.264C195.715 97.6573 195.589 96.9713 195.589 96.206C195.589 95.4407 195.715 94.7593 195.967 94.162C196.219 93.5553 196.588 93.084 197.073 92.748C197.568 92.4027 198.161 92.23 198.851 92.23C199.533 92.23 200.121 92.4027 200.615 92.748C201.119 93.0933 201.502 93.5693 201.763 94.176C202.034 94.7827 202.169 95.4593 202.169 96.206C202.169 96.9713 202.034 97.6573 201.763 98.264C201.493 98.8707 201.105 99.3467 200.601 99.692C200.097 100.037 199.5 100.21 198.809 100.21ZM195.421 92.44H196.345V98.138H196.443V103.36H195.421V92.44ZM198.711 99.258C199.477 99.258 200.06 98.978 200.461 98.418C200.872 97.8487 201.077 97.1113 201.077 96.206C201.077 95.31 200.872 94.582 200.461 94.022C200.06 93.462 199.467 93.182 198.683 93.182C197.927 93.182 197.349 93.4573 196.947 94.008C196.546 94.5587 196.345 95.2913 196.345 96.206C196.345 97.1207 196.546 97.858 196.947 98.418C197.349 98.978 197.937 99.258 198.711 99.258ZM205.981 99.398L205.995 100.574L202.691 92.44H203.769L206.485 99.244H206.037L208.543 92.44H209.607L205.533 103.36H204.511L205.981 99.398Z" fill="white"/>
<path d="M268.13 100.21C267.495 100.21 266.926 100.084 266.422 99.832C265.927 99.5707 265.54 99.2067 265.26 98.74C264.98 98.264 264.84 97.7227 264.84 97.116C264.84 96.5 264.985 95.954 265.274 95.478C265.573 95.002 266.007 94.6333 266.576 94.372L266.548 94.82C266.081 94.5867 265.722 94.2647 265.47 93.854C265.218 93.4433 265.092 92.9813 265.092 92.468C265.092 91.908 265.218 91.4227 265.47 91.012C265.731 90.592 266.091 90.27 266.548 90.046C267.015 89.822 267.542 89.71 268.13 89.71C268.727 89.71 269.255 89.822 269.712 90.046C270.169 90.27 270.529 90.592 270.79 91.012C271.051 91.4227 271.182 91.908 271.182 92.468C271.182 92.9907 271.056 93.4573 270.804 93.868C270.561 94.2693 270.202 94.5867 269.726 94.82L269.698 94.372C270.258 94.624 270.687 94.9927 270.986 95.478C271.285 95.9633 271.434 96.5093 271.434 97.116C271.434 97.7227 271.294 98.2593 271.014 98.726C270.734 99.1927 270.342 99.5567 269.838 99.818C269.343 100.079 268.774 100.21 268.13 100.21ZM268.13 99.02C268.737 99.02 269.217 98.8567 269.572 98.53C269.936 98.194 270.118 97.7227 270.118 97.116C270.118 96.5093 269.936 96.0427 269.572 95.716C269.217 95.38 268.737 95.212 268.13 95.212C267.523 95.212 267.043 95.38 266.688 95.716C266.333 96.0427 266.156 96.5093 266.156 97.116C266.156 97.7227 266.333 98.194 266.688 98.53C267.052 98.8567 267.533 99.02 268.13 99.02ZM268.13 94.022C268.662 94.022 269.082 93.8913 269.39 93.63C269.698 93.3593 269.852 92.972 269.852 92.468C269.852 91.964 269.693 91.5813 269.376 91.32C269.068 91.0493 268.653 90.914 268.13 90.914C267.607 90.914 267.187 91.0493 266.87 91.32C266.562 91.5813 266.408 91.964 266.408 92.468C266.408 92.972 266.562 93.3593 266.87 93.63C267.187 93.8913 267.607 94.022 268.13 94.022ZM276.653 100.21C276.009 100.21 275.426 100.065 274.903 99.776C274.39 99.4773 273.984 99.0713 273.685 98.558C273.396 98.0353 273.251 97.452 273.251 96.808V93.112C273.251 92.468 273.396 91.8893 273.685 91.376C273.984 90.8533 274.39 90.4473 274.903 90.158C275.426 89.8593 276.009 89.71 276.653 89.71C277.297 89.71 277.876 89.8593 278.389 90.158C278.912 90.4473 279.318 90.8533 279.607 91.376C279.906 91.8893 280.055 92.468 280.055 93.112V96.808C280.055 97.452 279.906 98.0353 279.607 98.558C279.318 99.0713 278.912 99.4773 278.389 99.776C277.876 100.065 277.297 100.21 276.653 100.21ZM276.653 99.006C277.045 99.006 277.405 98.9127 277.731 98.726C278.058 98.53 278.315 98.2687 278.501 97.942C278.697 97.6153 278.795 97.2607 278.795 96.878V93.028C278.795 92.6453 278.697 92.2907 278.501 91.964C278.315 91.6373 278.058 91.3807 277.731 91.194C277.405 90.998 277.045 90.9 276.653 90.9C276.271 90.9 275.916 90.998 275.589 91.194C275.263 91.3807 275.001 91.6373 274.805 91.964C274.619 92.2907 274.525 92.6453 274.525 93.028V96.878C274.525 97.2607 274.619 97.6153 274.805 97.942C275.001 98.2687 275.263 98.53 275.589 98.726C275.916 98.9127 276.271 99.006 276.653 99.006ZM288.22 100.21C287.576 100.21 286.993 100.065 286.47 99.776C285.957 99.4773 285.551 99.0713 285.252 98.558C284.963 98.0353 284.818 97.452 284.818 96.808V93.112C284.818 92.468 284.963 91.8893 285.252 91.376C285.551 90.8533 285.957 90.4473 286.47 90.158C286.993 89.8593 287.576 89.71 288.22 89.71C288.864 89.71 289.443 89.8593 289.956 90.158C290.479 90.4473 290.885 90.8533 291.174 91.376C291.473 91.8893 291.622 92.468 291.622 93.112V96.808C291.622 97.452 291.473 98.0353 291.174 98.558C290.885 99.0713 290.479 99.4773 289.956 99.776C289.443 100.065 288.864 100.21 288.22 100.21ZM288.22 99.006C288.612 99.006 288.971 98.9127 289.298 98.726C289.625 98.53 289.881 98.2687 290.068 97.942C290.264 97.6153 290.362 97.2607 290.362 96.878V93.028C290.362 92.6453 290.264 92.2907 290.068 91.964C289.881 91.6373 289.625 91.3807 289.298 91.194C288.971 90.998 288.612 90.9 288.22 90.9C287.837 90.9 287.483 90.998 287.156 91.194C286.829 91.3807 286.568 91.6373 286.372 91.964C286.185 92.2907 286.092 92.6453 286.092 93.028V96.878C286.092 97.2607 286.185 97.6153 286.372 97.942C286.568 98.2687 286.829 98.53 287.156 98.726C287.483 98.9127 287.837 99.006 288.22 99.006ZM296.984 100.21C296.34 100.21 295.756 100.065 295.234 99.776C294.72 99.4773 294.314 99.0713 294.016 98.558C293.726 98.0353 293.582 97.452 293.582 96.808V93.112C293.582 92.468 293.726 91.8893 294.016 91.376C294.314 90.8533 294.72 90.4473 295.234 90.158C295.756 89.8593 296.34 89.71 296.984 89.71C297.628 89.71 298.206 89.8593 298.72 90.158C299.242 90.4473 299.648 90.8533 299.938 91.376C300.236 91.8893 300.386 92.468 300.386 93.112V96.808C300.386 97.452 300.236 98.0353 299.938 98.558C299.648 99.0713 299.242 99.4773 298.72 99.776C298.206 100.065 297.628 100.21 296.984 100.21ZM296.984 99.006C297.376 99.006 297.735 98.9127 298.062 98.726C298.388 98.53 298.645 98.2687 298.832 97.942C299.028 97.6153 299.126 97.2607 299.126 96.878V93.028C299.126 92.6453 299.028 92.2907 298.832 91.964C298.645 91.6373 298.388 91.3807 298.062 91.194C297.735 90.998 297.376 90.9 296.984 90.9C296.601 90.9 296.246 90.998 295.92 91.194C295.593 91.3807 295.332 91.6373 295.136 91.964C294.949 92.2907 294.856 92.6453 294.856 93.028V96.878C294.856 97.2607 294.949 97.6153 295.136 97.942C295.332 98.2687 295.593 98.53 295.92 98.726C296.246 98.9127 296.601 99.006 296.984 99.006ZM305.747 100.21C305.103 100.21 304.52 100.065 303.997 99.776C303.484 99.4773 303.078 99.0713 302.779 98.558C302.49 98.0353 302.345 97.452 302.345 96.808V93.112C302.345 92.468 302.49 91.8893 302.779 91.376C303.078 90.8533 303.484 90.4473 303.997 90.158C304.52 89.8593 305.103 89.71 305.747 89.71C306.391 89.71 306.97 89.8593 307.483 90.158C308.006 90.4473 308.412 90.8533 308.701 91.376C309 91.8893 309.149 92.468 309.149 93.112V96.808C309.149 97.452 309 98.0353 308.701 98.558C308.412 99.0713 308.006 99.4773 307.483 99.776C306.97 100.065 306.391 100.21 305.747 100.21ZM305.747 99.006C306.139 99.006 306.499 98.9127 306.825 98.726C307.152 98.53 307.409 98.2687 307.595 97.942C307.791 97.6153 307.889 97.2607 307.889 96.878V93.028C307.889 92.6453 307.791 92.2907 307.595 91.964C307.409 91.6373 307.152 91.3807 306.825 91.194C306.499 90.998 306.139 90.9 305.747 90.9C305.365 90.9 305.01 90.998 304.683 91.194C304.357 91.3807 304.095 91.6373 303.899 91.964C303.713 92.2907 303.619 92.6453 303.619 93.028V96.878C303.619 97.2607 303.713 97.6153 303.899 97.942C304.095 98.2687 304.357 98.53 304.683 98.726C305.01 98.9127 305.365 99.006 305.747 99.006ZM311.053 100.98C311.296 100.999 311.464 100.938 311.557 100.798C311.66 100.658 311.706 100.453 311.697 100.182C311.697 100.154 311.697 100.121 311.697 100.084C311.697 100.056 311.697 100.028 311.697 100H310.969V98.418H312.341V100.21C312.341 100.705 312.22 101.073 311.977 101.316C311.734 101.559 311.398 101.643 310.969 101.568L311.053 100.98ZM321.21 100.21C320.566 100.21 319.983 100.065 319.46 99.776C318.947 99.4773 318.541 99.0713 318.242 98.558C317.953 98.0353 317.808 97.452 317.808 96.808V93.112C317.808 92.468 317.953 91.8893 318.242 91.376C318.541 90.8533 318.947 90.4473 319.46 90.158C319.983 89.8593 320.566 89.71 321.21 89.71C321.854 89.71 322.433 89.8593 322.946 90.158C323.469 90.4473 323.875 90.8533 324.164 91.376C324.463 91.8893 324.612 92.468 324.612 93.112V96.808C324.612 97.452 324.463 98.0353 324.164 98.558C323.875 99.0713 323.469 99.4773 322.946 99.776C322.433 100.065 321.854 100.21 321.21 100.21ZM321.21 99.006C321.602 99.006 321.961 98.9127 322.288 98.726C322.615 98.53 322.871 98.2687 323.058 97.942C323.254 97.6153 323.352 97.2607 323.352 96.878V93.028C323.352 92.6453 323.254 92.2907 323.058 91.964C322.871 91.6373 322.615 91.3807 322.288 91.194C321.961 90.998 321.602 90.9 321.21 90.9C320.827 90.9 320.473 90.998 320.146 91.194C319.819 91.3807 319.558 91.6373 319.362 91.964C319.175 92.2907 319.082 92.6453 319.082 93.028V96.878C319.082 97.2607 319.175 97.6153 319.362 97.942C319.558 98.2687 319.819 98.53 320.146 98.726C320.473 98.9127 320.827 99.006 321.21 99.006ZM329.974 100.21C329.33 100.21 328.746 100.065 328.224 99.776C327.71 99.4773 327.304 99.0713 327.006 98.558C326.716 98.0353 326.572 97.452 326.572 96.808V93.112C326.572 92.468 326.716 91.8893 327.006 91.376C327.304 90.8533 327.71 90.4473 328.224 90.158C328.746 89.8593 329.33 89.71 329.974 89.71C330.618 89.71 331.196 89.8593 331.71 90.158C332.232 90.4473 332.638 90.8533 332.928 91.376C333.226 91.8893 333.376 92.468 333.376 93.112V96.808C333.376 97.452 333.226 98.0353 332.928 98.558C332.638 99.0713 332.232 99.4773 331.71 99.776C331.196 100.065 330.618 100.21 329.974 100.21ZM329.974 99.006C330.366 99.006 330.725 98.9127 331.052 98.726C331.378 98.53 331.635 98.2687 331.822 97.942C332.018 97.6153 332.116 97.2607 332.116 96.878V93.028C332.116 92.6453 332.018 92.2907 331.822 91.964C331.635 91.6373 331.378 91.3807 331.052 91.194C330.725 90.998 330.366 90.9 329.974 90.9C329.591 90.9 329.236 90.998 328.91 91.194C328.583 91.3807 328.322 91.6373 328.126 91.964C327.939 92.2907 327.846 92.6453 327.846 93.028V96.878C327.846 97.2607 327.939 97.6153 328.126 97.942C328.322 98.2687 328.583 98.53 328.91 98.726C329.236 98.9127 329.591 99.006 329.974 99.006ZM338.138 95.086H342.926C343.16 95.086 343.37 95.0627 343.556 95.016C344.004 94.904 344.345 94.68 344.578 94.344C344.812 93.9987 344.928 93.588 344.928 93.112C344.928 92.6453 344.812 92.23 344.578 91.866C344.354 91.502 344.014 91.2687 343.556 91.166C343.379 91.1193 343.169 91.096 342.926 91.096H340.084V89.92H342.968C343.22 89.92 343.468 89.9387 343.71 89.976C344.504 90.0973 345.115 90.4427 345.544 91.012C345.983 91.572 346.202 92.2627 346.202 93.084C346.202 93.9053 345.988 94.5867 345.558 95.128C345.129 95.6693 344.513 96.0007 343.71 96.122C343.468 96.1593 343.22 96.178 342.968 96.178H338.138V95.086ZM338.138 97.368H343.738V98.404H338.138V97.368ZM339.188 89.92H340.434V100H339.188V89.92Z" fill="white"/>
<path d="M5.068 138.21C4.07867 138.21 3.234 137.991 2.534 137.552C1.84333 137.113 1.316 136.502 0.952 135.718C0.597333 134.925 0.42 134.005 0.42 132.96C0.42 131.915 0.597333 131 0.952 130.216C1.316 129.423 1.84333 128.807 2.534 128.368C3.234 127.929 4.07867 127.71 5.068 127.71C6.20667 127.71 7.14933 128.004 7.896 128.592C8.652 129.18 9.17 129.992 9.45 131.028L8.4 131.294C8.18533 130.473 7.79333 129.838 7.224 129.39C6.664 128.933 5.94533 128.704 5.068 128.704C3.92 128.704 3.04267 129.087 2.436 129.852C1.82933 130.617 1.52133 131.653 1.512 132.96C1.50267 133.809 1.62867 134.556 1.89 135.2C2.16067 135.835 2.562 136.329 3.094 136.684C3.63533 137.039 4.29333 137.216 5.068 137.216C5.94533 137.216 6.664 136.992 7.224 136.544C7.79333 136.087 8.18533 135.447 8.4 134.626L9.45 134.892C9.17 135.928 8.652 136.74 7.896 137.328C7.14933 137.916 6.20667 138.21 5.068 138.21ZM14.3758 138.21C13.7038 138.21 13.1251 138.037 12.6398 137.692C12.1545 137.337 11.7858 136.861 11.5338 136.264C11.2818 135.657 11.1558 134.971 11.1558 134.206C11.1558 133.441 11.2818 132.759 11.5338 132.162C11.7858 131.555 12.1545 131.084 12.6398 130.748C13.1345 130.403 13.7271 130.23 14.4178 130.23C15.0991 130.23 15.6871 130.403 16.1818 130.748C16.6858 131.093 17.0685 131.569 17.3298 132.176C17.6005 132.783 17.7358 133.459 17.7358 134.206C17.7358 134.971 17.6005 135.657 17.3298 136.264C17.0591 136.871 16.6718 137.347 16.1678 137.692C15.6638 138.037 15.0665 138.21 14.3758 138.21ZM10.9878 130.44H11.9118V136.138H12.0098V141.36H10.9878V130.44ZM14.2778 137.258C15.0431 137.258 15.6265 136.978 16.0278 136.418C16.4385 135.849 16.6438 135.111 16.6438 134.206C16.6438 133.31 16.4385 132.582 16.0278 132.022C15.6265 131.462 15.0338 131.182 14.2498 131.182C13.4938 131.182 12.9151 131.457 12.5138 132.008C12.1125 132.559 11.9118 133.291 11.9118 134.206C11.9118 135.121 12.1125 135.858 12.5138 136.418C12.9151 136.978 13.5031 137.258 14.2778 137.258ZM22.465 138.21C21.737 138.21 21.1023 138.047 20.561 137.72C20.0196 137.393 19.5996 136.931 19.301 136.334C19.0023 135.737 18.853 135.041 18.853 134.248C18.853 133.436 18.9976 132.727 19.287 132.12C19.5763 131.513 19.9916 131.047 20.533 130.72C21.0743 130.393 21.709 130.23 22.437 130.23C23.1743 130.23 23.809 130.403 24.341 130.748C24.873 131.084 25.2743 131.574 25.545 132.218C25.8156 132.862 25.937 133.627 25.909 134.514H24.859V134.15C24.8403 133.17 24.6256 132.428 24.215 131.924C23.8136 131.42 23.2303 131.168 22.465 131.168C21.653 131.168 21.0276 131.434 20.589 131.966C20.1596 132.498 19.945 133.249 19.945 134.22C19.945 135.172 20.1596 135.914 20.589 136.446C21.0276 136.969 21.6436 137.23 22.437 137.23C22.9783 137.23 23.4496 137.104 23.851 136.852C24.2523 136.6 24.5696 136.241 24.803 135.774L25.769 136.138C25.4703 136.791 25.027 137.3 24.439 137.664C23.8603 138.028 23.2023 138.21 22.465 138.21ZM19.581 133.646H25.363V134.514H19.581V133.646ZM26.9024 137.118C27.1824 137.118 27.4111 137.057 27.5884 136.936C27.7658 136.815 27.9058 136.633 28.0084 136.39C28.1111 136.138 28.2044 135.797 28.2884 135.368C28.4004 134.808 28.4844 134.169 28.5404 133.45C28.6058 132.722 28.6664 131.719 28.7224 130.44H33.7204V137.118H34.4344V139.68H33.4544V138H27.8964V139.68H26.9024V137.118ZM32.6844 137.118V131.322H29.6744C29.6278 132.274 29.5718 133.119 29.5064 133.856C29.4411 134.584 29.3524 135.191 29.2404 135.676C29.1564 136.059 29.0724 136.362 28.9884 136.586C28.9044 136.801 28.7924 136.978 28.6524 137.118H32.6844ZM35.8433 130.44H36.8653V133.73H41.1353V130.44H42.1573V138H41.1353V134.71H36.8653V138H35.8433V130.44ZM47.3068 138.21C46.5788 138.21 45.9441 138.047 45.4028 137.72C44.8614 137.393 44.4414 136.931 44.1428 136.334C43.8441 135.737 43.6948 135.041 43.6948 134.248C43.6948 133.436 43.8394 132.727 44.1288 132.12C44.4181 131.513 44.8334 131.047 45.3748 130.72C45.9161 130.393 46.5508 130.23 47.2788 130.23C48.0161 130.23 48.6508 130.403 49.1828 130.748C49.7148 131.084 50.1161 131.574 50.3868 132.218C50.6574 132.862 50.7788 133.627 50.7508 134.514H49.7008V134.15C49.6821 133.17 49.4674 132.428 49.0568 131.924C48.6554 131.42 48.0721 131.168 47.3068 131.168C46.4948 131.168 45.8694 131.434 45.4308 131.966C45.0014 132.498 44.7868 133.249 44.7868 134.22C44.7868 135.172 45.0014 135.914 45.4308 136.446C45.8694 136.969 46.4854 137.23 47.2788 137.23C47.8201 137.23 48.2914 137.104 48.6928 136.852C49.0941 136.6 49.4114 136.241 49.6448 135.774L50.6108 136.138C50.3121 136.791 49.8688 137.3 49.2808 137.664C48.7021 138.028 48.0441 138.21 47.3068 138.21ZM44.4228 133.646H50.2048V134.514H44.4228V133.646ZM55.4402 138.21C54.6936 138.21 54.0542 138.042 53.5222 137.706C52.9902 137.37 52.5842 136.903 52.3042 136.306C52.0336 135.699 51.8936 135.004 51.8842 134.22C51.8936 133.427 52.0382 132.731 52.3182 132.134C52.6076 131.527 53.0136 131.061 53.5362 130.734C54.0682 130.398 54.7076 130.23 55.4542 130.23C56.2102 130.23 56.8729 130.417 57.4422 130.79C58.0116 131.163 58.3989 131.672 58.6042 132.316L57.5962 132.652C57.4282 132.195 57.1482 131.84 56.7562 131.588C56.3736 131.336 55.9349 131.21 55.4402 131.21C54.6282 131.21 54.0169 131.485 53.6062 132.036C53.1956 132.577 52.9856 133.305 52.9762 134.22C52.9856 135.144 53.2002 135.877 53.6202 136.418C54.0402 136.959 54.6469 137.23 55.4402 137.23C55.9536 137.23 56.3876 137.113 56.7422 136.88C57.1062 136.647 57.3862 136.301 57.5822 135.844L58.6042 136.138C58.3242 136.81 57.9136 137.323 57.3722 137.678C56.8402 138.033 56.1962 138.21 55.4402 138.21ZM62.3307 137.398L62.3447 138.574L59.0407 130.44H60.1187L62.8347 137.244H62.3867L64.8927 130.44H65.9567L61.8827 141.36H60.8607L62.3307 137.398ZM69.2235 131.392H66.5355V130.44H72.9335V131.392H70.2455V138H69.2235V131.392ZM77.2885 138.21C76.5512 138.21 75.9119 138.042 75.3705 137.706C74.8292 137.37 74.4139 136.903 74.1245 136.306C73.8445 135.699 73.7045 134.999 73.7045 134.206C73.7045 133.422 73.8492 132.731 74.1385 132.134C74.4279 131.527 74.8432 131.061 75.3845 130.734C75.9259 130.398 76.5605 130.23 77.2885 130.23C78.0259 130.23 78.6652 130.398 79.2065 130.734C79.7479 131.07 80.1585 131.541 80.4385 132.148C80.7279 132.745 80.8725 133.431 80.8725 134.206C80.8725 134.999 80.7279 135.699 80.4385 136.306C80.1492 136.913 79.7339 137.384 79.1925 137.72C78.6512 138.047 78.0165 138.21 77.2885 138.21ZM77.2885 137.23C78.1005 137.23 78.7165 136.959 79.1365 136.418C79.5659 135.867 79.7805 135.13 79.7805 134.206C79.7805 133.273 79.5659 132.54 79.1365 132.008C78.7165 131.476 78.1005 131.21 77.2885 131.21C76.4672 131.21 75.8465 131.481 75.4265 132.022C75.0065 132.563 74.7965 133.291 74.7965 134.206C74.7965 135.139 75.0065 135.877 75.4265 136.418C75.8559 136.959 76.4765 137.23 77.2885 137.23ZM87.0297 135.186C86.7684 135.326 86.451 135.443 86.0777 135.536C85.7044 135.62 85.317 135.662 84.9157 135.662C84.1504 135.662 83.5297 135.494 83.0537 135.158C82.5777 134.813 82.265 134.318 82.1157 133.674C82.0317 133.282 81.9897 132.759 81.9897 132.106V130.44H83.0257V132.106C83.0257 132.554 83.0537 132.918 83.1097 133.198C83.203 133.711 83.413 134.099 83.7397 134.36C84.0664 134.621 84.5284 134.752 85.1257 134.752C85.4897 134.752 85.8397 134.705 86.1757 134.612C86.5117 134.519 86.7964 134.388 87.0297 134.22V130.44H88.0657V138H87.0297V135.186ZM90.0249 130.44H91.0469V133.73H95.3169V130.44H96.3389V138H95.3169V134.71H91.0469V138H90.0249V130.44ZM100.466 138.21C99.9064 138.21 99.4304 138.112 99.0384 137.916C98.6557 137.711 98.3664 137.44 98.1704 137.104C97.9744 136.759 97.8764 136.381 97.8764 135.97C97.8764 135.373 98.0444 134.897 98.3804 134.542C98.7257 134.187 99.1971 133.931 99.7944 133.772C100.205 133.669 100.676 133.581 101.208 133.506C101.74 133.422 102.319 133.343 102.944 133.268C103.224 133.231 103.448 133.203 103.616 133.184L103.238 133.394C103.257 132.638 103.108 132.083 102.79 131.728C102.482 131.373 101.96 131.196 101.222 131.196C100.69 131.196 100.247 131.317 99.8924 131.56C99.5471 131.803 99.3044 132.167 99.1644 132.652L98.1564 132.358C98.3337 131.677 98.6837 131.154 99.2064 130.79C99.7384 130.417 100.42 130.23 101.25 130.23C101.941 130.23 102.529 130.361 103.014 130.622C103.5 130.874 103.84 131.247 104.036 131.742C104.111 131.947 104.167 132.181 104.204 132.442C104.242 132.703 104.26 132.993 104.26 133.31V138H103.336V136.096L103.602 136.222C103.35 136.866 102.954 137.361 102.412 137.706C101.871 138.042 101.222 138.21 100.466 138.21ZM100.578 137.314C101.278 137.314 101.852 137.132 102.3 136.768C102.748 136.404 103.024 135.923 103.126 135.326C103.173 135.121 103.201 134.883 103.21 134.612C103.229 134.332 103.238 134.085 103.238 133.87L103.63 134.08C103.546 134.089 103.462 134.099 103.378 134.108C103.304 134.117 103.229 134.127 103.154 134.136C102.436 134.22 101.857 134.295 101.418 134.36C100.98 134.416 100.578 134.495 100.214 134.598C99.8317 134.701 99.5191 134.864 99.2764 135.088C99.0337 135.303 98.9124 135.597 98.9124 135.97C98.9124 136.343 99.0477 136.661 99.3184 136.922C99.5984 137.183 100.018 137.314 100.578 137.314ZM110.822 135.158H109.044C108.614 135.158 108.204 135.121 107.812 135.046C107.242 134.943 106.78 134.705 106.426 134.332C106.08 133.949 105.908 133.445 105.908 132.82C105.908 132.213 106.071 131.714 106.398 131.322C106.724 130.93 107.149 130.673 107.672 130.552C107.97 130.477 108.4 130.44 108.96 130.44H111.844L111.858 138H110.822V135.158ZM107.77 134.822H108.904L106.79 138H105.656L107.77 134.822ZM110.822 134.276V131.322H109.002C108.554 131.322 108.208 131.359 107.966 131.434C107.686 131.509 107.448 131.667 107.252 131.91C107.065 132.143 106.972 132.442 106.972 132.806C106.972 133.17 107.07 133.473 107.266 133.716C107.462 133.949 107.723 134.103 108.05 134.178C108.292 134.243 108.61 134.276 109.002 134.276H110.822ZM120.005 138.21C119.333 138.21 118.754 138.037 118.269 137.692C117.783 137.337 117.415 136.861 117.163 136.264C116.911 135.657 116.785 134.971 116.785 134.206C116.785 133.441 116.911 132.759 117.163 132.162C117.415 131.555 117.783 131.084 118.269 130.748C118.763 130.403 119.356 130.23 120.047 130.23C120.728 130.23 121.316 130.403 121.811 130.748C122.315 131.093 122.697 131.569 122.959 132.176C123.229 132.783 123.365 133.459 123.365 134.206C123.365 134.971 123.229 135.657 122.959 136.264C122.688 136.871 122.301 137.347 121.797 137.692C121.293 138.037 120.695 138.21 120.005 138.21ZM116.617 130.44H117.541V136.138H117.639V141.36H116.617V130.44ZM119.907 137.258C120.672 137.258 121.255 136.978 121.657 136.418C122.067 135.849 122.273 135.111 122.273 134.206C122.273 133.31 122.067 132.582 121.657 132.022C121.255 131.462 120.663 131.182 119.879 131.182C119.123 131.182 118.544 131.457 118.143 132.008C117.741 132.559 117.541 133.291 117.541 134.206C117.541 135.121 117.741 135.858 118.143 136.418C118.544 136.978 119.132 137.258 119.907 137.258ZM128.094 138.21C127.366 138.21 126.731 138.047 126.19 137.72C125.649 137.393 125.229 136.931 124.93 136.334C124.631 135.737 124.482 135.041 124.482 134.248C124.482 133.436 124.627 132.727 124.916 132.12C125.205 131.513 125.621 131.047 126.162 130.72C126.703 130.393 127.338 130.23 128.066 130.23C128.803 130.23 129.438 130.403 129.97 130.748C130.502 131.084 130.903 131.574 131.174 132.218C131.445 132.862 131.566 133.627 131.538 134.514H130.488V134.15C130.469 133.17 130.255 132.428 129.844 131.924C129.443 131.42 128.859 131.168 128.094 131.168C127.282 131.168 126.657 131.434 126.218 131.966C125.789 132.498 125.574 133.249 125.574 134.22C125.574 135.172 125.789 135.914 126.218 136.446C126.657 136.969 127.273 137.23 128.066 137.23C128.607 137.23 129.079 137.104 129.48 136.852C129.881 136.6 130.199 136.241 130.432 135.774L131.398 136.138C131.099 136.791 130.656 137.3 130.068 137.664C129.489 138.028 128.831 138.21 128.094 138.21ZM125.21 133.646H130.992V134.514H125.21V133.646ZM135.125 138.21C134.565 138.21 134.089 138.112 133.697 137.916C133.314 137.711 133.025 137.44 132.829 137.104C132.633 136.759 132.535 136.381 132.535 135.97C132.535 135.373 132.703 134.897 133.039 134.542C133.384 134.187 133.855 133.931 134.453 133.772C134.863 133.669 135.335 133.581 135.867 133.506C136.399 133.422 136.977 133.343 137.603 133.268C137.883 133.231 138.107 133.203 138.275 133.184L137.897 133.394C137.915 132.638 137.766 132.083 137.449 131.728C137.141 131.373 136.618 131.196 135.881 131.196C135.349 131.196 134.905 131.317 134.551 131.56C134.205 131.803 133.963 132.167 133.823 132.652L132.815 132.358C132.992 131.677 133.342 131.154 133.865 130.79C134.397 130.417 135.078 130.23 135.909 130.23C136.599 130.23 137.187 130.361 137.673 130.622C138.158 130.874 138.499 131.247 138.695 131.742C138.769 131.947 138.825 132.181 138.863 132.442C138.9 132.703 138.919 132.993 138.919 133.31V138H137.995V136.096L138.261 136.222C138.009 136.866 137.612 137.361 137.071 137.706C136.529 138.042 135.881 138.21 135.125 138.21ZM135.237 137.314C135.937 137.314 136.511 137.132 136.959 136.768C137.407 136.404 137.682 135.923 137.785 135.326C137.831 135.121 137.859 134.883 137.869 134.612C137.887 134.332 137.897 134.085 137.897 133.87L138.289 134.08C138.205 134.089 138.121 134.099 138.037 134.108C137.962 134.117 137.887 134.127 137.813 134.136C137.094 134.22 136.515 134.295 136.077 134.36C135.638 134.416 135.237 134.495 134.873 134.598C134.49 134.701 134.177 134.864 133.935 135.088C133.692 135.303 133.571 135.597 133.571 135.97C133.571 136.343 133.706 136.661 133.977 136.922C134.257 137.183 134.677 137.314 135.237 137.314ZM140.034 137.104C140.305 137.151 140.515 137.137 140.664 137.062C140.813 136.987 140.921 136.866 140.986 136.698C141.061 136.53 141.121 136.287 141.168 135.97C141.28 135.326 141.373 134.57 141.448 133.702C141.532 132.834 141.611 131.747 141.686 130.44H146.838V138H145.802V131.42H142.652C142.465 133.893 142.279 135.597 142.092 136.53C142.008 136.978 141.896 137.323 141.756 137.566C141.616 137.799 141.411 137.953 141.14 138.028C140.869 138.103 140.501 138.093 140.034 138V137.104ZM154.793 138H153.799V132.106L149.655 138H148.787V130.44H149.781V136.278L153.925 130.44H154.793V138ZM159.473 138.21C158.727 138.21 158.069 138.047 157.499 137.72C156.93 137.393 156.482 136.927 156.155 136.32L156.981 135.802C157.261 136.269 157.602 136.623 158.003 136.866C158.414 137.109 158.885 137.23 159.417 137.23C159.977 137.23 160.421 137.099 160.747 136.838C161.083 136.577 161.251 136.222 161.251 135.774C161.251 135.363 161.125 135.065 160.873 134.878C160.631 134.682 160.239 134.57 159.697 134.542C159.632 134.533 159.567 134.528 159.501 134.528C159.445 134.528 159.385 134.528 159.319 134.528H158.423V133.66H159.319C159.87 133.66 160.295 133.562 160.593 133.366C160.901 133.17 161.055 132.876 161.055 132.484C161.055 132.073 160.901 131.761 160.593 131.546C160.295 131.322 159.907 131.21 159.431 131.21C158.993 131.21 158.573 131.299 158.171 131.476C157.779 131.653 157.443 131.896 157.163 132.204L156.505 131.504C156.879 131.084 157.317 130.767 157.821 130.552C158.335 130.337 158.895 130.23 159.501 130.23C159.996 130.23 160.439 130.319 160.831 130.496C161.233 130.664 161.545 130.916 161.769 131.252C161.993 131.579 162.105 131.966 162.105 132.414C162.105 132.834 162.003 133.203 161.797 133.52C161.601 133.837 161.312 134.099 160.929 134.304L160.859 133.912C161.326 133.996 161.681 134.229 161.923 134.612C162.175 134.985 162.301 135.41 162.301 135.886C162.301 136.353 162.175 136.763 161.923 137.118C161.681 137.463 161.345 137.734 160.915 137.93C160.486 138.117 160.005 138.21 159.473 138.21ZM166.009 138.21C165.449 138.21 164.973 138.112 164.581 137.916C164.199 137.711 163.909 137.44 163.713 137.104C163.517 136.759 163.419 136.381 163.419 135.97C163.419 135.373 163.587 134.897 163.923 134.542C164.269 134.187 164.74 133.931 165.337 133.772C165.748 133.669 166.219 133.581 166.751 133.506C167.283 133.422 167.862 133.343 168.487 133.268C168.767 133.231 168.991 133.203 169.159 133.184L168.781 133.394C168.8 132.638 168.651 132.083 168.333 131.728C168.025 131.373 167.503 131.196 166.765 131.196C166.233 131.196 165.79 131.317 165.435 131.56C165.09 131.803 164.847 132.167 164.707 132.652L163.699 132.358C163.877 131.677 164.227 131.154 164.749 130.79C165.281 130.417 165.963 130.23 166.793 130.23C167.484 130.23 168.072 130.361 168.557 130.622C169.043 130.874 169.383 131.247 169.579 131.742C169.654 131.947 169.71 132.181 169.747 132.442C169.785 132.703 169.803 132.993 169.803 133.31V138H168.879V136.096L169.145 136.222C168.893 136.866 168.497 137.361 167.955 137.706C167.414 138.042 166.765 138.21 166.009 138.21ZM166.121 137.314C166.821 137.314 167.395 137.132 167.843 136.768C168.291 136.404 168.567 135.923 168.669 135.326C168.716 135.121 168.744 134.883 168.753 134.612C168.772 134.332 168.781 134.085 168.781 133.87L169.173 134.08C169.089 134.089 169.005 134.099 168.921 134.108C168.847 134.117 168.772 134.127 168.697 134.136C167.979 134.22 167.4 134.295 166.961 134.36C166.523 134.416 166.121 134.495 165.757 134.598C165.375 134.701 165.062 134.864 164.819 135.088C164.577 135.303 164.455 135.597 164.455 135.97C164.455 136.343 164.591 136.661 164.861 136.922C165.141 137.183 165.561 137.314 166.121 137.314ZM178.115 138H171.619V130.44H172.641V137.02H176.603V130.44H177.625V137.048H179.137V139.302H178.115V138ZM186.265 138H185.271V132.106L181.127 138H180.259V130.44H181.253V136.278L185.397 130.44H186.265V138ZM192.976 135.158H191.198C190.769 135.158 190.358 135.121 189.966 135.046C189.397 134.943 188.935 134.705 188.58 134.332C188.235 133.949 188.062 133.445 188.062 132.82C188.062 132.213 188.225 131.714 188.552 131.322C188.879 130.93 189.303 130.673 189.826 130.552C190.125 130.477 190.554 130.44 191.114 130.44H193.998L194.012 138H192.976V135.158ZM189.924 134.822H191.058L188.944 138H187.81L189.924 134.822ZM192.976 134.276V131.322H191.156C190.708 131.322 190.363 131.359 190.12 131.434C189.84 131.509 189.602 131.667 189.406 131.91C189.219 132.143 189.126 132.442 189.126 132.806C189.126 133.17 189.224 133.473 189.42 133.716C189.616 133.949 189.877 134.103 190.204 134.178C190.447 134.243 190.764 134.276 191.156 134.276H192.976Z" fill="white"/>
<path d="M214.744 129.292L212.84 130.44V129.054L214.744 127.92H216.004V138H214.744V129.292ZM221.818 138.21C221.183 138.21 220.614 138.084 220.11 137.832C219.615 137.571 219.228 137.207 218.948 136.74C218.668 136.264 218.528 135.723 218.528 135.116C218.528 134.5 218.672 133.954 218.962 133.478C219.26 133.002 219.694 132.633 220.264 132.372L220.236 132.82C219.769 132.587 219.41 132.265 219.158 131.854C218.906 131.443 218.78 130.981 218.78 130.468C218.78 129.908 218.906 129.423 219.158 129.012C219.419 128.592 219.778 128.27 220.236 128.046C220.702 127.822 221.23 127.71 221.818 127.71C222.415 127.71 222.942 127.822 223.4 128.046C223.857 128.27 224.216 128.592 224.478 129.012C224.739 129.423 224.87 129.908 224.87 130.468C224.87 130.991 224.744 131.457 224.492 131.868C224.249 132.269 223.89 132.587 223.414 132.82L223.386 132.372C223.946 132.624 224.375 132.993 224.674 133.478C224.972 133.963 225.122 134.509 225.122 135.116C225.122 135.723 224.982 136.259 224.702 136.726C224.422 137.193 224.03 137.557 223.526 137.818C223.031 138.079 222.462 138.21 221.818 138.21ZM221.818 137.02C222.424 137.02 222.905 136.857 223.26 136.53C223.624 136.194 223.806 135.723 223.806 135.116C223.806 134.509 223.624 134.043 223.26 133.716C222.905 133.38 222.424 133.212 221.818 133.212C221.211 133.212 220.73 133.38 220.376 133.716C220.021 134.043 219.844 134.509 219.844 135.116C219.844 135.723 220.021 136.194 220.376 136.53C220.74 136.857 221.22 137.02 221.818 137.02ZM221.818 132.022C222.35 132.022 222.77 131.891 223.078 131.63C223.386 131.359 223.54 130.972 223.54 130.468C223.54 129.964 223.381 129.581 223.064 129.32C222.756 129.049 222.34 128.914 221.818 128.914C221.295 128.914 220.875 129.049 220.558 129.32C220.25 129.581 220.096 129.964 220.096 130.468C220.096 130.972 220.25 131.359 220.558 131.63C220.875 131.891 221.295 132.022 221.818 132.022ZM231.293 136.138H226.659V134.962L229.991 127.92H231.405L228.073 134.962H231.293V132.12H232.553V134.962H233.603V136.138H232.553V138H231.293V136.138ZM234.949 138.98C235.192 138.999 235.36 138.938 235.453 138.798C235.556 138.658 235.603 138.453 235.593 138.182C235.593 138.154 235.593 138.121 235.593 138.084C235.593 138.056 235.593 138.028 235.593 138H234.865V136.418H236.237V138.21C236.237 138.705 236.116 139.073 235.873 139.316C235.631 139.559 235.295 139.643 234.865 139.568L234.949 138.98ZM238.636 136.866L243.102 132.848C243.457 132.531 243.704 132.223 243.844 131.924C243.984 131.625 244.054 131.303 244.054 130.958C244.054 130.575 243.965 130.23 243.788 129.922C243.611 129.605 243.363 129.357 243.046 129.18C242.738 128.993 242.397 128.9 242.024 128.9C241.632 128.9 241.277 128.993 240.96 129.18C240.643 129.367 240.391 129.619 240.204 129.936C240.027 130.253 239.943 130.594 239.952 130.958H238.678C238.678 130.333 238.823 129.773 239.112 129.278C239.401 128.783 239.803 128.401 240.316 128.13C240.829 127.85 241.403 127.71 242.038 127.71C242.654 127.71 243.209 127.855 243.704 128.144C244.208 128.424 244.605 128.816 244.894 129.32C245.183 129.815 245.328 130.365 245.328 130.972C245.328 131.401 245.272 131.775 245.16 132.092C245.057 132.409 244.903 132.699 244.698 132.96C244.502 133.212 244.213 133.511 243.83 133.856C243.821 133.856 243.811 133.861 243.802 133.87C243.802 133.87 243.797 133.875 243.788 133.884L240.078 137.216L239.91 136.796H245.328V137.986H238.622L238.636 136.866ZM250.146 138.21C249.511 138.21 248.942 138.084 248.438 137.832C247.943 137.571 247.556 137.207 247.276 136.74C246.996 136.264 246.856 135.723 246.856 135.116C246.856 134.5 247 133.954 247.29 133.478C247.588 133.002 248.022 132.633 248.592 132.372L248.564 132.82C248.097 132.587 247.738 132.265 247.486 131.854C247.234 131.443 247.108 130.981 247.108 130.468C247.108 129.908 247.234 129.423 247.486 129.012C247.747 128.592 248.106 128.27 248.564 128.046C249.03 127.822 249.558 127.71 250.146 127.71C250.743 127.71 251.27 127.822 251.728 128.046C252.185 128.27 252.544 128.592 252.806 129.012C253.067 129.423 253.198 129.908 253.198 130.468C253.198 130.991 253.072 131.457 252.82 131.868C252.577 132.269 252.218 132.587 251.742 132.82L251.714 132.372C252.274 132.624 252.703 132.993 253.002 133.478C253.3 133.963 253.45 134.509 253.45 135.116C253.45 135.723 253.31 136.259 253.03 136.726C252.75 137.193 252.358 137.557 251.854 137.818C251.359 138.079 250.79 138.21 250.146 138.21ZM250.146 137.02C250.752 137.02 251.233 136.857 251.588 136.53C251.952 136.194 252.134 135.723 252.134 135.116C252.134 134.509 251.952 134.043 251.588 133.716C251.233 133.38 250.752 133.212 250.146 133.212C249.539 133.212 249.058 133.38 248.704 133.716C248.349 134.043 248.172 134.509 248.172 135.116C248.172 135.723 248.349 136.194 248.704 136.53C249.068 136.857 249.548 137.02 250.146 137.02ZM250.146 132.022C250.678 132.022 251.098 131.891 251.406 131.63C251.714 131.359 251.868 130.972 251.868 130.468C251.868 129.964 251.709 129.581 251.392 129.32C251.084 129.049 250.668 128.914 250.146 128.914C249.623 128.914 249.203 129.049 248.886 129.32C248.578 129.581 248.424 129.964 248.424 130.468C248.424 130.972 248.578 131.359 248.886 131.63C249.203 131.891 249.623 132.022 250.146 132.022ZM257.37 136.922C257.641 136.969 257.851 136.959 258 136.894C258.149 136.829 258.257 136.712 258.322 136.544C258.397 136.376 258.462 136.133 258.518 135.816C258.63 135.191 258.723 134.449 258.798 133.59C258.873 132.722 258.947 131.672 259.022 130.44H264.314V138H263.068V131.616H260.156C259.979 133.959 259.806 135.555 259.638 136.404C259.545 136.889 259.419 137.263 259.26 137.524C259.101 137.785 258.873 137.953 258.574 138.028C258.275 138.112 257.874 138.103 257.37 138V136.922ZM266.497 136.628H267.869V138H266.497V136.628ZM269.906 138L272.594 127.92H273.868L271.18 138H269.906ZM277.457 129.292L275.553 130.44V129.054L277.457 127.92H278.717V138H277.457V129.292ZM281.114 136.866L285.58 132.848C285.935 132.531 286.182 132.223 286.322 131.924C286.462 131.625 286.532 131.303 286.532 130.958C286.532 130.575 286.444 130.23 286.266 129.922C286.089 129.605 285.842 129.357 285.524 129.18C285.216 128.993 284.876 128.9 284.502 128.9C284.11 128.9 283.756 128.993 283.438 129.18C283.121 129.367 282.869 129.619 282.682 129.936C282.505 130.253 282.421 130.594 282.43 130.958H281.156C281.156 130.333 281.301 129.773 281.59 129.278C281.88 128.783 282.281 128.401 282.794 128.13C283.308 127.85 283.882 127.71 284.516 127.71C285.132 127.71 285.688 127.855 286.182 128.144C286.686 128.424 287.083 128.816 287.372 129.32C287.662 129.815 287.806 130.365 287.806 130.972C287.806 131.401 287.75 131.775 287.638 132.092C287.536 132.409 287.382 132.699 287.176 132.96C286.98 133.212 286.691 133.511 286.308 133.856C286.299 133.856 286.29 133.861 286.28 133.87C286.28 133.87 286.276 133.875 286.266 133.884L282.556 137.216L282.388 136.796H287.806V137.986H281.1L281.114 136.866ZM295.679 138.21C295.035 138.21 294.452 138.065 293.929 137.776C293.416 137.477 293.01 137.071 292.711 136.558C292.422 136.035 292.277 135.452 292.277 134.808V131.112C292.277 130.468 292.422 129.889 292.711 129.376C293.01 128.853 293.416 128.447 293.929 128.158C294.452 127.859 295.035 127.71 295.679 127.71C296.323 127.71 296.902 127.859 297.415 128.158C297.938 128.447 298.344 128.853 298.633 129.376C298.932 129.889 299.081 130.468 299.081 131.112V134.808C299.081 135.452 298.932 136.035 298.633 136.558C298.344 137.071 297.938 137.477 297.415 137.776C296.902 138.065 296.323 138.21 295.679 138.21ZM295.679 137.006C296.071 137.006 296.43 136.913 296.757 136.726C297.084 136.53 297.34 136.269 297.527 135.942C297.723 135.615 297.821 135.261 297.821 134.878V131.028C297.821 130.645 297.723 130.291 297.527 129.964C297.34 129.637 297.084 129.381 296.757 129.194C296.43 128.998 296.071 128.9 295.679 128.9C295.296 128.9 294.942 128.998 294.615 129.194C294.288 129.381 294.027 129.637 293.831 129.964C293.644 130.291 293.551 130.645 293.551 131.028V134.878C293.551 135.261 293.644 135.615 293.831 135.942C294.027 136.269 294.288 136.53 294.615 136.726C294.942 136.913 295.296 137.006 295.679 137.006ZM304.443 138.21C303.799 138.21 303.215 138.065 302.693 137.776C302.179 137.477 301.773 137.071 301.475 136.558C301.185 136.035 301.041 135.452 301.041 134.808V131.112C301.041 130.468 301.185 129.889 301.475 129.376C301.773 128.853 302.179 128.447 302.693 128.158C303.215 127.859 303.799 127.71 304.443 127.71C305.087 127.71 305.665 127.859 306.179 128.158C306.701 128.447 307.107 128.853 307.397 129.376C307.695 129.889 307.845 130.468 307.845 131.112V134.808C307.845 135.452 307.695 136.035 307.397 136.558C307.107 137.071 306.701 137.477 306.179 137.776C305.665 138.065 305.087 138.21 304.443 138.21ZM304.443 137.006C304.835 137.006 305.194 136.913 305.521 136.726C305.847 136.53 306.104 136.269 306.291 135.942C306.487 135.615 306.585 135.261 306.585 134.878V131.028C306.585 130.645 306.487 130.291 306.291 129.964C306.104 129.637 305.847 129.381 305.521 129.194C305.194 128.998 304.835 128.9 304.443 128.9C304.06 128.9 303.705 128.998 303.379 129.194C303.052 129.381 302.791 129.637 302.595 129.964C302.408 130.291 302.315 130.645 302.315 131.028V134.878C302.315 135.261 302.408 135.615 302.595 135.942C302.791 136.269 303.052 136.53 303.379 136.726C303.705 136.913 304.06 137.006 304.443 137.006ZM314.158 136.138H309.524V134.962L312.856 127.92H314.27L310.938 134.962H314.158V132.12H315.418V134.962H316.468V136.138H315.418V138H314.158V136.138ZM317.815 138.98C318.057 138.999 318.225 138.938 318.319 138.798C318.421 138.658 318.468 138.453 318.459 138.182C318.459 138.154 318.459 138.121 318.459 138.084C318.459 138.056 318.459 138.028 318.459 138H317.731V136.418H319.103V138.21C319.103 138.705 318.981 139.073 318.739 139.316C318.496 139.559 318.16 139.643 317.731 139.568L317.815 138.98ZM324.539 138.196C323.783 138.196 323.116 137.991 322.537 137.58C321.958 137.169 321.562 136.619 321.347 135.928L322.551 135.578C322.691 136.045 322.938 136.404 323.293 136.656C323.657 136.899 324.068 137.015 324.525 137.006C325.141 136.997 325.631 136.796 325.995 136.404C326.359 136.012 326.541 135.508 326.541 134.892C326.541 134.267 326.354 133.763 325.981 133.38C325.608 132.988 325.118 132.792 324.511 132.792C324.343 132.792 324.166 132.815 323.979 132.862C323.802 132.909 323.634 132.974 323.475 133.058L322.873 132.064L326.611 128.69L326.765 129.11H321.753V127.92H327.689V129.11L324.511 132.162L324.497 131.728C325.15 131.681 325.729 131.789 326.233 132.05C326.737 132.311 327.129 132.694 327.409 133.198C327.689 133.693 327.829 134.257 327.829 134.892C327.829 135.527 327.684 136.096 327.395 136.6C327.106 137.104 326.709 137.496 326.205 137.776C325.71 138.056 325.155 138.196 324.539 138.196ZM333.996 136.138H329.362V134.962L332.694 127.92H334.108L330.776 134.962H333.996V132.12H335.256V134.962H336.306V136.138H335.256V138H333.996V136.138ZM337.982 133.086H342.77C343.003 133.086 343.213 133.063 343.4 133.016C343.848 132.904 344.189 132.68 344.422 132.344C344.655 131.999 344.772 131.588 344.772 131.112C344.772 130.645 344.655 130.23 344.422 129.866C344.198 129.502 343.857 129.269 343.4 129.166C343.223 129.119 343.013 129.096 342.77 129.096H339.928V127.92H342.812C343.064 127.92 343.311 127.939 343.554 127.976C344.347 128.097 344.959 128.443 345.388 129.012C345.827 129.572 346.046 130.263 346.046 131.084C346.046 131.905 345.831 132.587 345.402 133.128C344.973 133.669 344.357 134.001 343.554 134.122C343.311 134.159 343.064 134.178 342.812 134.178H337.982V133.086ZM337.982 135.368H343.582V136.404H337.982V135.368ZM339.032 127.92H340.278V138H339.032V127.92Z" fill="white"/>
<path d="M0.98 165.92H8.694V176H7.672V166.9H2.002V176H0.98V165.92ZM13.8237 176.21C13.0864 176.21 12.447 176.042 11.9057 175.706C11.3644 175.37 10.949 174.903 10.6597 174.306C10.3797 173.699 10.2397 172.999 10.2397 172.206C10.2397 171.422 10.3844 170.731 10.6737 170.134C10.963 169.527 11.3784 169.061 11.9197 168.734C12.461 168.398 13.0957 168.23 13.8237 168.23C14.561 168.23 15.2004 168.398 15.7417 168.734C16.283 169.07 16.6937 169.541 16.9737 170.148C17.263 170.745 17.4077 171.431 17.4077 172.206C17.4077 172.999 17.263 173.699 16.9737 174.306C16.6844 174.913 16.269 175.384 15.7277 175.72C15.1864 176.047 14.5517 176.21 13.8237 176.21ZM13.8237 175.23C14.6357 175.23 15.2517 174.959 15.6717 174.418C16.101 173.867 16.3157 173.13 16.3157 172.206C16.3157 171.273 16.101 170.54 15.6717 170.008C15.2517 169.476 14.6357 169.21 13.8237 169.21C13.0024 169.21 12.3817 169.481 11.9617 170.022C11.5417 170.563 11.3317 171.291 11.3317 172.206C11.3317 173.139 11.5417 173.877 11.9617 174.418C12.391 174.959 13.0117 175.23 13.8237 175.23ZM22.3328 176.21C21.6608 176.21 21.0822 176.037 20.5968 175.692C20.1115 175.337 19.7428 174.861 19.4908 174.264C19.2388 173.657 19.1128 172.971 19.1128 172.206C19.1128 171.441 19.2388 170.759 19.4908 170.162C19.7428 169.555 20.1115 169.084 20.5968 168.748C21.0915 168.403 21.6842 168.23 22.3748 168.23C23.0562 168.23 23.6442 168.403 24.1388 168.748C24.6428 169.093 25.0255 169.569 25.2868 170.176C25.5575 170.783 25.6928 171.459 25.6928 172.206C25.6928 172.971 25.5575 173.657 25.2868 174.264C25.0162 174.871 24.6288 175.347 24.1248 175.692C23.6208 176.037 23.0235 176.21 22.3328 176.21ZM18.9448 168.44H19.8688V174.138H19.9668V179.36H18.9448V168.44ZM22.2348 175.258C23.0002 175.258 23.5835 174.978 23.9848 174.418C24.3955 173.849 24.6008 173.111 24.6008 172.206C24.6008 171.31 24.3955 170.582 23.9848 170.022C23.5835 169.462 22.9908 169.182 22.2068 169.182C21.4508 169.182 20.8722 169.457 20.4708 170.008C20.0695 170.559 19.8688 171.291 19.8688 172.206C19.8688 173.121 20.0695 173.858 20.4708 174.418C20.8722 174.978 21.4602 175.258 22.2348 175.258ZM31.976 173.158H30.198C29.7687 173.158 29.358 173.121 28.966 173.046C28.3967 172.943 27.9347 172.705 27.58 172.332C27.2347 171.949 27.062 171.445 27.062 170.82C27.062 170.213 27.2253 169.714 27.552 169.322C27.8787 168.93 28.3033 168.673 28.826 168.552C29.1247 168.477 29.554 168.44 30.114 168.44H32.998L33.012 176H31.976V173.158ZM28.924 172.822H30.058L27.944 176H26.81L28.924 172.822ZM31.976 172.276V169.322H30.156C29.708 169.322 29.3627 169.359 29.12 169.434C28.84 169.509 28.602 169.667 28.406 169.91C28.2193 170.143 28.126 170.442 28.126 170.806C28.126 171.17 28.224 171.473 28.42 171.716C28.616 171.949 28.8773 172.103 29.204 172.178C29.4467 172.243 29.764 172.276 30.156 172.276H31.976ZM34.4083 175.118C34.6883 175.118 34.9169 175.057 35.0943 174.936C35.2716 174.815 35.4116 174.633 35.5143 174.39C35.6169 174.138 35.7103 173.797 35.7943 173.368C35.9063 172.808 35.9903 172.169 36.0463 171.45C36.1116 170.722 36.1723 169.719 36.2283 168.44H41.2263V175.118H41.9403V177.68H40.9603V176H35.4023V177.68H34.4083V175.118ZM40.1903 175.118V169.322H37.1803C37.1336 170.274 37.0776 171.119 37.0123 171.856C36.9469 172.584 36.8583 173.191 36.7463 173.676C36.6623 174.059 36.5783 174.362 36.4943 174.586C36.4103 174.801 36.2983 174.978 36.1583 175.118H40.1903ZM46.2397 176.21C45.5024 176.21 44.863 176.042 44.3217 175.706C43.7804 175.37 43.365 174.903 43.0757 174.306C42.7957 173.699 42.6557 172.999 42.6557 172.206C42.6557 171.422 42.8004 170.731 43.0897 170.134C43.379 169.527 43.7944 169.061 44.3357 168.734C44.877 168.398 45.5117 168.23 46.2397 168.23C46.977 168.23 47.6164 168.398 48.1577 168.734C48.699 169.07 49.1097 169.541 49.3897 170.148C49.679 170.745 49.8237 171.431 49.8237 172.206C49.8237 172.999 49.679 173.699 49.3897 174.306C49.1004 174.913 48.685 175.384 48.1437 175.72C47.6024 176.047 46.9677 176.21 46.2397 176.21ZM46.2397 175.23C47.0517 175.23 47.6677 174.959 48.0877 174.418C48.517 173.867 48.7317 173.13 48.7317 172.206C48.7317 171.273 48.517 170.54 48.0877 170.008C47.6677 169.476 47.0517 169.21 46.2397 169.21C45.4184 169.21 44.7977 169.481 44.3777 170.022C43.9577 170.563 43.7477 171.291 43.7477 172.206C43.7477 173.139 43.9577 173.877 44.3777 174.418C44.807 174.959 45.4277 175.23 46.2397 175.23ZM51.3609 168.44H52.3969V172.08L55.7709 168.44H57.1429L53.6009 172.22L57.6049 176H56.1069L52.3969 172.36V176H51.3609V168.44ZM64.2729 176.21C63.5356 176.21 62.8962 176.042 62.3549 175.706C61.8136 175.37 61.3982 174.903 61.1089 174.306C60.8289 173.699 60.6889 172.999 60.6889 172.206C60.6889 171.422 60.8336 170.731 61.1229 170.134C61.4122 169.527 61.8276 169.061 62.3689 168.734C62.9102 168.398 63.5449 168.23 64.2729 168.23C65.0102 168.23 65.6496 168.398 66.1909 168.734C66.7322 169.07 67.1429 169.541 67.4229 170.148C67.7122 170.745 67.8569 171.431 67.8569 172.206C67.8569 172.999 67.7122 173.699 67.4229 174.306C67.1336 174.913 66.7182 175.384 66.1769 175.72C65.6356 176.047 65.0009 176.21 64.2729 176.21ZM64.2729 175.23C65.0849 175.23 65.7009 174.959 66.1209 174.418C66.5502 173.867 66.7649 173.13 66.7649 172.206C66.7649 171.273 66.5502 170.54 66.1209 170.008C65.7009 169.476 65.0849 169.21 64.2729 169.21C63.4516 169.21 62.8309 169.481 62.4109 170.022C61.9909 170.563 61.7809 171.291 61.7809 172.206C61.7809 173.139 61.9909 173.877 62.4109 174.418C62.8402 174.959 63.4609 175.23 64.2729 175.23ZM69.3941 168.44H75.4001V176H74.3781V169.42H70.4161V176H69.3941V168.44ZM80.7528 176.21C80.0808 176.21 79.5021 176.037 79.0168 175.692C78.5314 175.337 78.1628 174.861 77.9108 174.264C77.6588 173.657 77.5328 172.971 77.5328 172.206C77.5328 171.441 77.6588 170.759 77.9108 170.162C78.1628 169.555 78.5314 169.084 79.0168 168.748C79.5114 168.403 80.1041 168.23 80.7948 168.23C81.4761 168.23 82.0641 168.403 82.5588 168.748C83.0628 169.093 83.4454 169.569 83.7068 170.176C83.9774 170.783 84.1128 171.459 84.1128 172.206C84.1128 172.971 83.9774 173.657 83.7068 174.264C83.4361 174.871 83.0488 175.347 82.5448 175.692C82.0408 176.037 81.4434 176.21 80.7528 176.21ZM77.3648 168.44H78.2888V174.138H78.3868V179.36H77.3648V168.44ZM80.6548 175.258C81.4201 175.258 82.0034 174.978 82.4048 174.418C82.8154 173.849 83.0208 173.111 83.0208 172.206C83.0208 171.31 82.8154 170.582 82.4048 170.022C82.0034 169.462 81.4108 169.182 80.6268 169.182C79.8708 169.182 79.2921 169.457 78.8908 170.008C78.4894 170.559 78.2888 171.291 78.2888 172.206C78.2888 173.121 78.4894 173.858 78.8908 174.418C79.2921 174.978 79.8801 175.258 80.6548 175.258ZM88.8419 176.21C88.1139 176.21 87.4793 176.047 86.9379 175.72C86.3966 175.393 85.9766 174.931 85.6779 174.334C85.3793 173.737 85.2299 173.041 85.2299 172.248C85.2299 171.436 85.3746 170.727 85.6639 170.12C85.9533 169.513 86.3686 169.047 86.9099 168.72C87.4513 168.393 88.0859 168.23 88.8139 168.23C89.5513 168.23 90.1859 168.403 90.7179 168.748C91.2499 169.084 91.6513 169.574 91.9219 170.218C92.1926 170.862 92.3139 171.627 92.2859 172.514H91.2359V172.15C91.2173 171.17 91.0026 170.428 90.5919 169.924C90.1906 169.42 89.6073 169.168 88.8419 169.168C88.0299 169.168 87.4046 169.434 86.9659 169.966C86.5366 170.498 86.3219 171.249 86.3219 172.22C86.3219 173.172 86.5366 173.914 86.9659 174.446C87.4046 174.969 88.0206 175.23 88.8139 175.23C89.3553 175.23 89.8266 175.104 90.2279 174.852C90.6293 174.6 90.9466 174.241 91.1799 173.774L92.1459 174.138C91.8473 174.791 91.4039 175.3 90.8159 175.664C90.2373 176.028 89.5793 176.21 88.8419 176.21ZM85.9579 171.646H91.7399V172.514H85.9579V171.646ZM93.2794 175.118C93.5594 175.118 93.788 175.057 93.9654 174.936C94.1427 174.815 94.2827 174.633 94.3854 174.39C94.488 174.138 94.5814 173.797 94.6654 173.368C94.7774 172.808 94.8614 172.169 94.9174 171.45C94.9827 170.722 95.0434 169.719 95.0994 168.44H100.097V175.118H100.811V177.68H99.8314V176H94.2734V177.68H93.2794V175.118ZM99.0614 175.118V169.322H96.0514C96.0047 170.274 95.9487 171.119 95.8834 171.856C95.818 172.584 95.7294 173.191 95.6174 173.676C95.5334 174.059 95.4494 174.362 95.3654 174.586C95.2814 174.801 95.1694 174.978 95.0294 175.118H99.0614ZM105.412 176.21C104.684 176.21 104.05 176.047 103.508 175.72C102.967 175.393 102.547 174.931 102.248 174.334C101.95 173.737 101.8 173.041 101.8 172.248C101.8 171.436 101.945 170.727 102.234 170.12C102.524 169.513 102.939 169.047 103.48 168.72C104.022 168.393 104.656 168.23 105.384 168.23C106.122 168.23 106.756 168.403 107.288 168.748C107.82 169.084 108.222 169.574 108.492 170.218C108.763 170.862 108.884 171.627 108.856 172.514H107.806V172.15C107.788 171.17 107.573 170.428 107.162 169.924C106.761 169.42 106.178 169.168 105.412 169.168C104.6 169.168 103.975 169.434 103.536 169.966C103.107 170.498 102.892 171.249 102.892 172.22C102.892 173.172 103.107 173.914 103.536 174.446C103.975 174.969 104.591 175.23 105.384 175.23C105.926 175.23 106.397 175.104 106.798 174.852C107.2 174.6 107.517 174.241 107.75 173.774L108.716 174.138C108.418 174.791 107.974 175.3 107.386 175.664C106.808 176.028 106.15 176.21 105.412 176.21ZM102.528 171.646H108.31V172.514H102.528V171.646ZM109.71 175.104C109.98 175.151 110.19 175.137 110.34 175.062C110.489 174.987 110.596 174.866 110.662 174.698C110.736 174.53 110.797 174.287 110.844 173.97C110.956 173.326 111.049 172.57 111.124 171.702C111.208 170.834 111.287 169.747 111.362 168.44H116.514V176H115.478V169.42H112.328C112.141 171.893 111.954 173.597 111.768 174.53C111.684 174.978 111.572 175.323 111.432 175.566C111.292 175.799 111.086 175.953 110.816 176.028C110.545 176.103 110.176 176.093 109.71 176V175.104ZM121.654 176.21C120.926 176.21 120.292 176.047 119.75 175.72C119.209 175.393 118.789 174.931 118.49 174.334C118.192 173.737 118.042 173.041 118.042 172.248C118.042 171.436 118.187 170.727 118.476 170.12C118.766 169.513 119.181 169.047 119.722 168.72C120.264 168.393 120.898 168.23 121.626 168.23C122.364 168.23 122.998 168.403 123.53 168.748C124.062 169.084 124.464 169.574 124.734 170.218C125.005 170.862 125.126 171.627 125.098 172.514H124.048V172.15C124.03 171.17 123.815 170.428 123.404 169.924C123.003 169.42 122.42 169.168 121.654 169.168C120.842 169.168 120.217 169.434 119.778 169.966C119.349 170.498 119.134 171.249 119.134 172.22C119.134 173.172 119.349 173.914 119.778 174.446C120.217 174.969 120.833 175.23 121.626 175.23C122.168 175.23 122.639 175.104 123.04 174.852C123.442 174.6 123.759 174.241 123.992 173.774L124.958 174.138C124.66 174.791 124.216 175.3 123.628 175.664C123.05 176.028 122.392 176.21 121.654 176.21ZM118.77 171.646H124.552V172.514H118.77V171.646ZM126.652 168.44H127.674V171.73H131.944V168.44H132.966V176H131.944V172.71H127.674V176H126.652V168.44ZM140.929 176H139.935V170.106L135.791 176H134.923V168.44H135.917V174.278L140.061 168.44H140.929V176ZM147.64 173.158H145.862C145.433 173.158 145.022 173.121 144.63 173.046C144.061 172.943 143.599 172.705 143.244 172.332C142.899 171.949 142.726 171.445 142.726 170.82C142.726 170.213 142.889 169.714 143.216 169.322C143.543 168.93 143.967 168.673 144.49 168.552C144.789 168.477 145.218 168.44 145.778 168.44H148.662L148.676 176H147.64V173.158ZM144.588 172.822H145.722L143.608 176H142.474L144.588 172.822ZM147.64 172.276V169.322H145.82C145.372 169.322 145.027 169.359 144.784 169.434C144.504 169.509 144.266 169.667 144.07 169.91C143.883 170.143 143.79 170.442 143.79 170.806C143.79 171.17 143.888 171.473 144.084 171.716C144.28 171.949 144.541 172.103 144.868 172.178C145.111 172.243 145.428 172.276 145.82 172.276H147.64ZM159.931 176H153.435V168.44H154.457V175.02H158.419V168.44H159.441V175.048H160.953V177.302H159.931V176ZM165.268 176.21C164.54 176.21 163.905 176.047 163.364 175.72C162.822 175.393 162.402 174.931 162.104 174.334C161.805 173.737 161.656 173.041 161.656 172.248C161.656 171.436 161.8 170.727 162.09 170.12C162.379 169.513 162.794 169.047 163.336 168.72C163.877 168.393 164.512 168.23 165.24 168.23C165.977 168.23 166.612 168.403 167.144 168.748C167.676 169.084 168.077 169.574 168.348 170.218C168.618 170.862 168.74 171.627 168.712 172.514H167.662V172.15C167.643 171.17 167.428 170.428 167.018 169.924C166.616 169.42 166.033 169.168 165.268 169.168C164.456 169.168 163.83 169.434 163.392 169.966C162.962 170.498 162.748 171.249 162.748 172.22C162.748 173.172 162.962 173.914 163.392 174.446C163.83 174.969 164.446 175.23 165.24 175.23C165.781 175.23 166.252 175.104 166.654 174.852C167.055 174.6 167.372 174.241 167.606 173.774L168.572 174.138C168.273 174.791 167.83 175.3 167.242 175.664C166.663 176.028 166.005 176.21 165.268 176.21ZM162.384 171.646H168.166V172.514H162.384V171.646ZM170.265 168.44H171.287V171.73H175.557V168.44H176.579V176H175.557V172.71H171.287V176H170.265V168.44ZM178.537 168.44H179.573V171.282H180.875C181.407 171.282 181.813 171.31 182.093 171.366C183.381 171.609 184.025 172.369 184.025 173.648C184.025 174.264 183.861 174.763 183.535 175.146C183.217 175.529 182.793 175.781 182.261 175.902C181.962 175.967 181.533 176 180.973 176H178.537V168.44ZM180.931 175.118C181.416 175.118 181.766 175.09 181.981 175.034C182.261 174.95 182.494 174.796 182.681 174.572C182.867 174.348 182.961 174.04 182.961 173.648C182.961 173.237 182.867 172.92 182.681 172.696C182.494 172.472 182.228 172.323 181.883 172.248C181.64 172.192 181.323 172.164 180.931 172.164H179.573V175.118H180.931ZM184.935 168.44H185.957V176H184.935V168.44Z" fill="white"/>
<path d="M271.98 165.92H278.35V167.096H273.226V170.26H277.51V171.436H273.226V174.81H278.35V176H271.98V165.92ZM282.245 172.22L279.347 168.44H280.733L283.533 172.15V168.44H284.667V172.15L287.481 168.44H288.867L285.955 172.22L289.007 176H287.565L284.667 172.29V176H283.533V172.29L280.649 176H279.193L282.245 172.22ZM293.125 176.21C292.388 176.21 291.739 176.047 291.179 175.72C290.628 175.393 290.199 174.931 289.891 174.334C289.583 173.737 289.429 173.046 289.429 172.262C289.429 171.45 289.578 170.741 289.877 170.134C290.176 169.518 290.6 169.047 291.151 168.72C291.702 168.393 292.341 168.23 293.069 168.23C293.825 168.23 294.469 168.407 295.001 168.762C295.542 169.107 295.948 169.607 296.219 170.26C296.49 170.913 296.606 171.683 296.569 172.57H295.309V172.122C295.29 171.198 295.099 170.507 294.735 170.05C294.371 169.583 293.83 169.35 293.111 169.35C292.346 169.35 291.762 169.597 291.361 170.092C290.96 170.587 290.759 171.296 290.759 172.22C290.759 173.107 290.96 173.797 291.361 174.292C291.762 174.777 292.332 175.02 293.069 175.02C293.573 175.02 294.007 174.908 294.371 174.684C294.744 174.451 295.034 174.119 295.239 173.69L296.443 174.11C296.144 174.773 295.701 175.291 295.113 175.664C294.525 176.028 293.862 176.21 293.125 176.21ZM290.339 171.562H295.925V172.57H290.339V171.562ZM297.561 174.964C297.841 174.964 298.065 174.903 298.233 174.782C298.41 174.661 298.545 174.474 298.639 174.222C298.741 173.97 298.835 173.62 298.919 173.172C299.021 172.612 299.101 171.977 299.157 171.268C299.213 170.559 299.269 169.616 299.325 168.44H304.533V174.964H305.261V177.68H304.071V176H298.751V177.68H297.561V174.964ZM303.287 174.964V169.462H300.445C300.407 170.302 300.356 171.063 300.291 171.744C300.235 172.416 300.16 172.99 300.067 173.466C299.992 173.867 299.913 174.18 299.829 174.404C299.754 174.628 299.637 174.815 299.479 174.964H303.287ZM306.666 168.44H307.912V171.618H311.888V168.44H313.134V176H311.888V172.808H307.912V176H306.666V168.44ZM318.363 176.21C317.626 176.21 316.977 176.047 316.417 175.72C315.867 175.393 315.437 174.931 315.129 174.334C314.821 173.737 314.667 173.046 314.667 172.262C314.667 171.45 314.817 170.741 315.115 170.134C315.414 169.518 315.839 169.047 316.389 168.72C316.94 168.393 317.579 168.23 318.307 168.23C319.063 168.23 319.707 168.407 320.239 168.762C320.781 169.107 321.187 169.607 321.457 170.26C321.728 170.913 321.845 171.683 321.807 172.57H320.547V172.122C320.529 171.198 320.337 170.507 319.973 170.05C319.609 169.583 319.068 169.35 318.349 169.35C317.584 169.35 317.001 169.597 316.599 170.092C316.198 170.587 315.997 171.296 315.997 172.22C315.997 173.107 316.198 173.797 316.599 174.292C317.001 174.777 317.57 175.02 318.307 175.02C318.811 175.02 319.245 174.908 319.609 174.684C319.983 174.451 320.272 174.119 320.477 173.69L321.681 174.11C321.383 174.773 320.939 175.291 320.351 175.664C319.763 176.028 319.101 176.21 318.363 176.21ZM315.577 171.562H321.163V172.57H315.577V171.562ZM323.359 168.44H326.579C327.055 168.44 327.461 168.487 327.797 168.58C328.217 168.692 328.553 168.916 328.805 169.252C329.066 169.588 329.197 170.003 329.197 170.498C329.197 171.039 329.034 171.469 328.707 171.786C328.558 171.926 328.394 172.033 328.217 172.108C328.385 172.136 328.553 172.201 328.721 172.304C329.29 172.612 329.575 173.149 329.575 173.914C329.575 174.418 329.454 174.838 329.211 175.174C328.968 175.51 328.623 175.743 328.175 175.874C327.886 175.958 327.475 176 326.943 176H323.359V168.44ZM326.873 174.978C327.134 174.978 327.372 174.945 327.587 174.88C327.82 174.815 327.993 174.689 328.105 174.502C328.226 174.315 328.287 174.105 328.287 173.872C328.287 173.583 328.203 173.345 328.035 173.158C327.876 172.962 327.657 172.841 327.377 172.794C327.246 172.757 327.041 172.738 326.761 172.738H324.619V174.978H326.873ZM326.495 171.702C326.831 171.702 327.092 171.665 327.279 171.59C327.484 171.515 327.638 171.389 327.741 171.212C327.853 171.025 327.909 170.82 327.909 170.596C327.909 170.353 327.848 170.139 327.727 169.952C327.615 169.765 327.452 169.639 327.237 169.574C327.032 169.499 326.747 169.462 326.383 169.462H324.619V171.702H326.495ZM330.974 168.44H332.22V171.618H336.196V168.44H337.442V176H336.196V172.808H332.22V176H330.974V168.44ZM342.616 176.21C341.879 176.21 341.235 176.042 340.684 175.706C340.133 175.361 339.709 174.889 339.41 174.292C339.121 173.685 338.976 172.99 338.976 172.206C338.976 171.422 339.125 170.731 339.424 170.134C339.723 169.527 340.147 169.061 340.698 168.734C341.249 168.398 341.888 168.23 342.616 168.23C343.363 168.23 344.011 168.398 344.562 168.734C345.113 169.07 345.533 169.541 345.822 170.148C346.121 170.745 346.27 171.431 346.27 172.206C346.27 172.999 346.121 173.699 345.822 174.306C345.523 174.903 345.099 175.37 344.548 175.706C343.997 176.042 343.353 176.21 342.616 176.21ZM342.616 175.02C343.372 175.02 343.946 174.768 344.338 174.264C344.739 173.751 344.94 173.065 344.94 172.206C344.94 171.338 344.739 170.657 344.338 170.162C343.946 169.658 343.372 169.406 342.616 169.406C341.851 169.406 341.272 169.658 340.88 170.162C340.497 170.666 340.306 171.347 340.306 172.206C340.306 173.083 340.502 173.774 340.894 174.278C341.295 174.773 341.869 175.02 342.616 175.02Z" fill="white"/>
</svg>
