<svg width="388" height="353" viewBox="0 0 388 353" fill="none" xmlns="http://www.w3.org/2000/svg">
<path d="M95.4 5.6H104.6V7.58H97.5V20H95.4V5.6ZM109.595 20.3C108.528 20.3 107.581 20.0667 106.755 19.6C105.941 19.1333 105.308 18.4733 104.855 17.62C104.415 16.7667 104.195 15.7933 104.195 14.7C104.195 13.5267 104.415 12.5067 104.855 11.64C105.295 10.76 105.915 10.0867 106.715 9.62C107.515 9.14 108.435 8.9 109.475 8.9C110.568 8.9 111.501 9.16 112.275 9.68C113.061 10.1867 113.641 10.9133 114.015 11.86C114.401 12.8067 114.561 13.9133 114.495 15.18H112.395V14.42C112.381 13.18 112.141 12.26 111.675 11.66C111.208 11.06 110.501 10.76 109.555 10.76C108.515 10.76 107.728 11.0867 107.195 11.74C106.675 12.3933 106.415 13.3467 106.415 14.6C106.415 15.7867 106.675 16.7067 107.195 17.36C107.728 18 108.488 18.32 109.475 18.32C110.128 18.32 110.695 18.1733 111.175 17.88C111.655 17.5867 112.028 17.16 112.295 16.6L114.335 17.26C113.921 18.22 113.288 18.9667 112.435 19.5C111.595 20.0333 110.648 20.3 109.595 20.3ZM105.735 13.56H113.435V15.18H105.735V13.56ZM121.389 20.3C120.335 20.3 119.409 20.06 118.609 19.58C117.809 19.0867 117.189 18.4133 116.749 17.56C116.322 16.6933 116.109 15.7067 116.109 14.6C116.109 13.48 116.329 12.4933 116.769 11.64C117.209 10.7733 117.829 10.1 118.629 9.62C119.429 9.14 120.349 8.9 121.389 8.9C122.455 8.9 123.389 9.14 124.189 9.62C124.989 10.1 125.602 10.7733 126.029 11.64C126.469 12.4933 126.689 13.48 126.689 14.6C126.689 15.72 126.469 16.7133 126.029 17.58C125.602 18.4333 124.989 19.1 124.189 19.58C123.389 20.06 122.455 20.3 121.389 20.3ZM121.389 18.32C122.389 18.32 123.149 17.9867 123.669 17.32C124.202 16.64 124.469 15.7333 124.469 14.6C124.469 13.44 124.202 12.5333 123.669 11.88C123.149 11.2133 122.389 10.88 121.389 10.88C120.375 10.88 119.609 11.2133 119.089 11.88C118.582 12.5467 118.329 13.4533 118.329 14.6C118.329 15.76 118.589 16.6733 119.109 17.34C119.642 17.9933 120.402 18.32 121.389 18.32ZM128.896 9.2H136.496V11.18H130.996V20H128.896V9.2ZM143.468 20.3C142.455 20.3 141.588 20.0533 140.868 19.56C140.162 19.0667 139.628 18.3867 139.268 17.52C138.908 16.6533 138.728 15.68 138.728 14.6C138.728 13.4933 138.908 12.5133 139.268 11.66C139.642 10.8067 140.175 10.1333 140.868 9.64C141.575 9.14667 142.428 8.9 143.428 8.9C144.415 8.9 145.275 9.14667 146.008 9.64C146.755 10.1333 147.328 10.8133 147.728 11.68C148.142 12.5333 148.348 13.5067 148.348 14.6C148.348 15.68 148.148 16.6533 147.748 17.52C147.348 18.3867 146.775 19.0667 146.028 19.56C145.295 20.0533 144.442 20.3 143.468 20.3ZM138.368 9.2H140.228V16.96H140.488V24.8H138.368V9.2ZM143.168 18.4C144.128 18.4 144.862 18.0467 145.368 17.34C145.875 16.6333 146.128 15.72 146.128 14.6C146.128 13.48 145.868 12.5667 145.348 11.86C144.842 11.1533 144.095 10.8 143.108 10.8C142.148 10.8 141.428 11.14 140.948 11.82C140.468 12.5 140.228 13.4267 140.228 14.6C140.228 15.7733 140.468 16.7 140.948 17.38C141.442 18.06 142.182 18.4 143.168 18.4ZM153.596 20.3C152.836 20.3 152.176 20.1533 151.616 19.86C151.07 19.5667 150.656 19.18 150.376 18.7C150.096 18.2067 149.956 17.66 149.956 17.06C149.956 16.2467 150.17 15.58 150.596 15.06C151.023 14.5267 151.663 14.1267 152.516 13.86C153.036 13.7 153.656 13.56 154.376 13.44C155.11 13.32 156.01 13.1867 157.076 13.04C157.503 12.9867 157.823 12.94 158.036 12.9L157.296 13.34C157.296 12.46 157.11 11.8267 156.736 11.44C156.363 11.04 155.736 10.84 154.856 10.84C154.243 10.84 153.71 10.98 153.256 11.26C152.803 11.5267 152.483 11.9533 152.296 12.54L150.356 11.94C150.623 10.98 151.136 10.2333 151.896 9.7C152.656 9.16667 153.643 8.9 154.856 8.9C155.87 8.9 156.723 9.07333 157.416 9.42C158.123 9.75333 158.636 10.2667 158.956 10.96C159.116 11.28 159.216 11.6267 159.256 12C159.31 12.3733 159.336 12.82 159.336 13.34V20H157.496V17.54L157.856 17.84C157.403 18.6667 156.83 19.2867 156.136 19.7C155.443 20.1 154.596 20.3 153.596 20.3ZM153.976 18.6C154.803 18.6 155.483 18.3933 156.016 17.98C156.55 17.5533 156.896 17.0467 157.056 16.46C157.15 16.18 157.203 15.86 157.216 15.5C157.243 15.14 157.256 14.78 157.256 14.42L157.936 14.66C157.803 14.6867 157.67 14.7067 157.536 14.72C157.403 14.7333 157.27 14.7533 157.136 14.78C156.19 14.9 155.45 15.0133 154.916 15.12C154.396 15.2133 153.93 15.32 153.516 15.44C153.05 15.6 152.683 15.8067 152.416 16.06C152.15 16.3 152.016 16.6267 152.016 17.04C152.016 17.4933 152.183 17.8667 152.516 18.16C152.85 18.4533 153.336 18.6 153.976 18.6ZM167.023 20.2C165.97 20.3733 165.01 20.26 164.143 19.86C163.276 19.46 162.59 18.8133 162.083 17.92C161.59 17.0133 161.343 15.9067 161.343 14.6C161.343 13.3067 161.59 12.2067 162.083 11.3C162.59 10.3933 163.276 9.74667 164.143 9.36C165.01 8.96 165.97 8.84 167.023 9V5.74H168.903V9C169.956 8.84 170.916 8.96 171.783 9.36C172.65 9.74667 173.33 10.3933 173.823 11.3C174.33 12.2067 174.583 13.3067 174.583 14.6C174.583 15.9067 174.33 17.0133 173.823 17.92C173.33 18.8133 172.65 19.46 171.783 19.86C170.916 20.26 169.956 20.3733 168.903 20.2V24.5H167.023V20.2ZM167.023 10.92C166.303 10.7867 165.676 10.8533 165.143 11.12C164.61 11.3733 164.196 11.8 163.903 12.4C163.623 12.9867 163.483 13.72 163.483 14.6C163.483 15.4933 163.63 16.2333 163.923 16.82C164.216 17.4067 164.63 17.8333 165.163 18.1C165.696 18.3533 166.316 18.42 167.023 18.3V10.92ZM168.903 18.3C169.61 18.42 170.23 18.3533 170.763 18.1C171.296 17.8467 171.71 17.4267 172.003 16.84C172.296 16.2533 172.443 15.5067 172.443 14.6C172.443 13.6933 172.296 12.9467 172.003 12.36C171.723 11.7733 171.316 11.3533 170.783 11.1C170.25 10.8467 169.623 10.7867 168.903 10.92V18.3ZM185.887 20H183.867V12.5L178.467 20H176.767V9.2H178.787V16.56L184.207 9.2H185.887V20ZM195.241 16.24H193.121C192.361 16.24 191.728 16.2 191.221 16.12C190.368 15.96 189.681 15.5933 189.161 15.02C188.641 14.4467 188.381 13.6933 188.381 12.76C188.381 11.84 188.628 11.0867 189.121 10.5C189.628 9.91333 190.288 9.52667 191.101 9.34C191.555 9.24667 192.201 9.2 193.041 9.2H197.341V20H195.241V16.24ZM190.801 15.74H193.021L190.301 20H188.081L190.801 15.74ZM195.241 14.56V10.88H192.921C192.455 10.88 192.068 10.92 191.761 11C191.428 11.1067 191.135 11.3133 190.881 11.62C190.641 11.9267 190.521 12.3 190.521 12.74C190.521 13.18 190.648 13.5533 190.901 13.86C191.155 14.1533 191.475 14.3533 191.861 14.46C192.141 14.5267 192.495 14.56 192.921 14.56H195.241ZM208.01 20.3C206.957 20.3 206.01 20.08 205.17 19.64C204.343 19.2 203.69 18.58 203.21 17.78L204.87 16.68C205.27 17.2133 205.723 17.62 206.23 17.9C206.75 18.18 207.323 18.32 207.95 18.32C208.617 18.32 209.143 18.1733 209.53 17.88C209.93 17.5733 210.13 17.1667 210.13 16.66C210.13 16.14 209.95 15.7867 209.59 15.6C209.243 15.4 208.703 15.2933 207.97 15.28C207.903 15.28 207.83 15.28 207.75 15.28C207.683 15.28 207.617 15.28 207.55 15.28H206.59V13.58H207.53C208.263 13.58 208.823 13.4867 209.21 13.3C209.597 13.1 209.79 12.7533 209.79 12.26C209.79 11.7933 209.617 11.4467 209.27 11.22C208.923 10.98 208.483 10.86 207.95 10.86C207.417 10.86 206.883 10.9733 206.35 11.2C205.83 11.4267 205.357 11.72 204.93 12.08L203.71 10.66C204.31 10.1 204.977 9.66667 205.71 9.36C206.443 9.05333 207.23 8.9 208.07 8.9C208.777 8.9 209.423 9.02667 210.01 9.28C210.597 9.52 211.063 9.88 211.41 10.36C211.77 10.84 211.95 11.4133 211.95 12.08C211.95 12.64 211.823 13.14 211.57 13.58C211.33 14.02 210.963 14.42 210.47 14.78L210.43 14.08C211.017 14.28 211.47 14.6333 211.79 15.14C212.11 15.6333 212.27 16.2067 212.27 16.86C212.27 17.5667 212.077 18.18 211.69 18.7C211.317 19.22 210.803 19.62 210.15 19.9C209.51 20.1667 208.797 20.3 208.01 20.3ZM217.503 20.3C216.743 20.3 216.083 20.1533 215.523 19.86C214.976 19.5667 214.563 19.18 214.283 18.7C214.003 18.2067 213.863 17.66 213.863 17.06C213.863 16.2467 214.076 15.58 214.503 15.06C214.929 14.5267 215.569 14.1267 216.423 13.86C216.943 13.7 217.563 13.56 218.283 13.44C219.016 13.32 219.916 13.1867 220.983 13.04C221.409 12.9867 221.729 12.94 221.943 12.9L221.203 13.34C221.203 12.46 221.016 11.8267 220.643 11.44C220.269 11.04 219.643 10.84 218.763 10.84C218.149 10.84 217.616 10.98 217.163 11.26C216.709 11.5267 216.389 11.9533 216.203 12.54L214.263 11.94C214.529 10.98 215.043 10.2333 215.803 9.7C216.563 9.16667 217.549 8.9 218.763 8.9C219.776 8.9 220.629 9.07333 221.323 9.42C222.029 9.75333 222.543 10.2667 222.863 10.96C223.023 11.28 223.123 11.6267 223.162 12C223.216 12.3733 223.243 12.82 223.243 13.34V20H221.403V17.54L221.763 17.84C221.309 18.6667 220.736 19.2867 220.043 19.7C219.349 20.1 218.503 20.3 217.503 20.3ZM217.883 18.6C218.709 18.6 219.389 18.3933 219.923 17.98C220.456 17.5533 220.803 17.0467 220.963 16.46C221.056 16.18 221.109 15.86 221.123 15.5C221.149 15.14 221.163 14.78 221.163 14.42L221.843 14.66C221.709 14.6867 221.576 14.7067 221.443 14.72C221.309 14.7333 221.176 14.7533 221.043 14.78C220.096 14.9 219.356 15.0133 218.823 15.12C218.303 15.2133 217.836 15.32 217.423 15.44C216.956 15.6 216.589 15.8067 216.323 16.06C216.056 16.3 215.923 16.6267 215.923 17.04C215.923 17.4933 216.089 17.8667 216.423 18.16C216.756 18.4533 217.243 18.6 217.883 18.6ZM225.829 9.2H234.949V20H232.849V11.18H227.929V20H225.829V9.2ZM242.824 20.3C241.81 20.3 240.944 20.0533 240.224 19.56C239.517 19.0667 238.984 18.3867 238.624 17.52C238.264 16.6533 238.084 15.68 238.084 14.6C238.084 13.4933 238.264 12.5133 238.624 11.66C238.997 10.8067 239.53 10.1333 240.224 9.64C240.93 9.14667 241.784 8.9 242.784 8.9C243.77 8.9 244.63 9.14667 245.364 9.64C246.11 10.1333 246.684 10.8133 247.084 11.68C247.497 12.5333 247.704 13.5067 247.704 14.6C247.704 15.68 247.504 16.6533 247.104 17.52C246.704 18.3867 246.13 19.0667 245.384 19.56C244.65 20.0533 243.797 20.3 242.824 20.3ZM237.724 9.2H239.584V16.96H239.844V24.8H237.724V9.2ZM242.524 18.4C243.484 18.4 244.217 18.0467 244.724 17.34C245.23 16.6333 245.484 15.72 245.484 14.6C245.484 13.48 245.224 12.5667 244.704 11.86C244.197 11.1533 243.45 10.8 242.464 10.8C241.504 10.8 240.784 11.14 240.304 11.82C239.824 12.5 239.584 13.4267 239.584 14.6C239.584 15.7733 239.824 16.7 240.304 17.38C240.797 18.06 241.537 18.4 242.524 18.4ZM252.952 20.3C252.192 20.3 251.532 20.1533 250.972 19.86C250.425 19.5667 250.012 19.18 249.732 18.7C249.452 18.2067 249.312 17.66 249.312 17.06C249.312 16.2467 249.525 15.58 249.952 15.06C250.378 14.5267 251.018 14.1267 251.872 13.86C252.392 13.7 253.012 13.56 253.732 13.44C254.465 13.32 255.365 13.1867 256.432 13.04C256.858 12.9867 257.178 12.94 257.392 12.9L256.652 13.34C256.652 12.46 256.465 11.8267 256.092 11.44C255.718 11.04 255.092 10.84 254.212 10.84C253.598 10.84 253.065 10.98 252.612 11.26C252.158 11.5267 251.838 11.9533 251.652 12.54L249.712 11.94C249.978 10.98 250.492 10.2333 251.252 9.7C252.012 9.16667 252.998 8.9 254.212 8.9C255.225 8.9 256.078 9.07333 256.772 9.42C257.478 9.75333 257.992 10.2667 258.312 10.96C258.472 11.28 258.572 11.6267 258.612 12C258.665 12.3733 258.692 12.82 258.692 13.34V20H256.852V17.54L257.212 17.84C256.758 18.6667 256.185 19.2867 255.492 19.7C254.798 20.1 253.952 20.3 252.952 20.3ZM253.332 18.6C254.158 18.6 254.838 18.3933 255.372 17.98C255.905 17.5533 256.252 17.0467 256.412 16.46C256.505 16.18 256.558 15.86 256.572 15.5C256.598 15.14 256.612 14.78 256.612 14.42L257.292 14.66C257.158 14.6867 257.025 14.7067 256.892 14.72C256.758 14.7333 256.625 14.7533 256.492 14.78C255.545 14.9 254.805 15.0133 254.272 15.12C253.752 15.2133 253.285 15.32 252.872 15.44C252.405 15.6 252.038 15.8067 251.772 16.06C251.505 16.3 251.372 16.6267 251.372 17.04C251.372 17.4933 251.538 17.8667 251.872 18.16C252.205 18.4533 252.692 18.6 253.332 18.6ZM261.278 9.2H266.038C266.732 9.2 267.318 9.26667 267.798 9.4C268.385 9.57333 268.865 9.89333 269.238 10.36C269.612 10.8267 269.798 11.42 269.798 12.14C269.798 12.94 269.545 13.56 269.038 14C268.825 14.2 268.592 14.3467 268.338 14.44C268.592 14.48 268.832 14.56 269.058 14.68C269.898 15.12 270.318 15.8867 270.318 16.98C270.318 17.7133 270.145 18.3267 269.798 18.82C269.452 19.3 268.952 19.6333 268.298 19.82C267.872 19.94 267.272 20 266.498 20H261.278V9.2ZM266.358 18.34C266.718 18.34 267.045 18.2933 267.338 18.2C267.605 18.1067 267.812 17.94 267.958 17.7C268.105 17.46 268.178 17.1933 268.178 16.9C268.178 16.54 268.078 16.2467 267.878 16.02C267.692 15.78 267.438 15.62 267.118 15.54C266.932 15.4733 266.645 15.44 266.258 15.44H263.398V18.34H266.358ZM265.738 13.76C266.232 13.76 266.605 13.7067 266.858 13.6C267.098 13.5067 267.285 13.3467 267.418 13.12C267.552 12.88 267.618 12.6133 267.618 12.32C267.618 12.0133 267.545 11.74 267.398 11.5C267.265 11.26 267.058 11.1 266.778 11.02C266.525 10.9267 266.145 10.88 265.638 10.88H263.398V13.76H265.738ZM277.014 20.3C275.96 20.3 275.034 20.06 274.234 19.58C273.434 19.0867 272.814 18.4133 272.374 17.56C271.947 16.6933 271.734 15.7067 271.734 14.6C271.734 13.48 271.954 12.4933 272.394 11.64C272.834 10.7733 273.454 10.1 274.254 9.62C275.054 9.14 275.974 8.9 277.014 8.9C278.08 8.9 279.014 9.14 279.814 9.62C280.614 10.1 281.227 10.7733 281.654 11.64C282.094 12.4933 282.314 13.48 282.314 14.6C282.314 15.72 282.094 16.7133 281.654 17.58C281.227 18.4333 280.614 19.1 279.814 19.58C279.014 20.06 278.08 20.3 277.014 20.3ZM277.014 18.32C278.014 18.32 278.774 17.9867 279.294 17.32C279.827 16.64 280.094 15.7333 280.094 14.6C280.094 13.44 279.827 12.5333 279.294 11.88C278.774 11.2133 278.014 10.88 277.014 10.88C276 10.88 275.234 11.2133 274.714 11.88C274.207 12.5467 273.954 13.4533 273.954 14.6C273.954 15.76 274.214 16.6733 274.734 17.34C275.267 17.9933 276.027 18.32 277.014 18.32ZM284.521 9.2H286.641V14.4L290.881 9.2H293.541L289.061 14.6L294.001 20H291.161L286.641 14.8V20H284.501L284.521 9.2Z" fill="white"/>
<path d="M147.852 182.8C146.872 182.8 146.005 182.587 145.252 182.16C144.498 181.727 143.905 181.133 143.472 180.38C143.045 179.627 142.832 178.76 142.832 177.78V172.82C142.832 171.84 143.045 170.973 143.472 170.22C143.905 169.467 144.498 168.877 145.252 168.45C146.005 168.017 146.872 167.8 147.852 167.8C148.832 167.8 149.698 168.017 150.452 168.45C151.205 168.877 151.795 169.467 152.222 170.22C152.655 170.973 152.872 171.84 152.872 172.82V177.78C152.872 178.76 152.655 179.627 152.222 180.38C151.795 181.133 151.205 181.727 150.452 182.16C149.698 182.587 148.832 182.8 147.852 182.8ZM147.852 180.8C148.385 180.8 148.868 180.673 149.302 180.42C149.742 180.16 150.092 179.813 150.352 179.38C150.612 178.94 150.742 178.45 150.742 177.91V172.67C150.742 172.137 150.612 171.653 150.352 171.22C150.092 170.78 149.742 170.433 149.302 170.18C148.868 169.92 148.385 169.79 147.852 169.79C147.318 169.79 146.832 169.92 146.392 170.18C145.958 170.433 145.612 170.78 145.352 171.22C145.092 171.653 144.962 172.137 144.962 172.67V177.91C144.962 178.45 145.092 178.94 145.352 179.38C145.612 179.813 145.958 180.16 146.392 180.42C146.832 180.673 147.318 180.8 147.852 180.8ZM158.174 182.5V170.4L155.464 172.05V169.72L158.174 168.1H160.304V182.5H158.174ZM163.66 182.5V180.29H165.87V182.5H163.66ZM174.043 182.8C173.063 182.8 172.196 182.587 171.443 182.16C170.69 181.727 170.096 181.133 169.663 180.38C169.236 179.627 169.023 178.76 169.023 177.78V172.82C169.023 171.84 169.236 170.973 169.663 170.22C170.096 169.467 170.69 168.877 171.443 168.45C172.196 168.017 173.063 167.8 174.043 167.8C175.023 167.8 175.89 168.017 176.643 168.45C177.396 168.877 177.986 169.467 178.413 170.22C178.846 170.973 179.063 171.84 179.063 172.82V177.78C179.063 178.76 178.846 179.627 178.413 180.38C177.986 181.133 177.396 181.727 176.643 182.16C175.89 182.587 175.023 182.8 174.043 182.8ZM174.043 180.8C174.576 180.8 175.06 180.673 175.493 180.42C175.933 180.16 176.283 179.813 176.543 179.38C176.803 178.94 176.933 178.45 176.933 177.91V172.67C176.933 172.137 176.803 171.653 176.543 171.22C176.283 170.78 175.933 170.433 175.493 170.18C175.06 169.92 174.576 169.79 174.043 169.79C173.51 169.79 173.023 169.92 172.583 170.18C172.15 170.433 171.803 170.78 171.543 171.22C171.283 171.653 171.153 172.137 171.153 172.67V177.91C171.153 178.45 171.283 178.94 171.543 179.38C171.803 179.813 172.15 180.16 172.583 180.42C173.023 180.673 173.51 180.8 174.043 180.8ZM187.955 182.5V179.99H181.455V178.01L186.135 168.1H188.525L183.845 178.01H187.955V174.11H190.075V178.01H191.505V179.99H190.075V182.5H187.955ZM193.875 182.5V180.29H196.085V182.5H193.875ZM198.838 182.49L198.848 180.63L205.118 175.01C205.625 174.563 205.968 174.137 206.148 173.73C206.335 173.323 206.428 172.917 206.428 172.51C206.428 171.997 206.315 171.537 206.088 171.13C205.861 170.717 205.548 170.39 205.148 170.15C204.748 169.91 204.288 169.79 203.768 169.79C203.235 169.79 202.758 169.917 202.338 170.17C201.925 170.417 201.601 170.747 201.368 171.16C201.135 171.573 201.021 172.02 201.028 172.5H198.888C198.888 171.567 199.098 170.75 199.518 170.05C199.945 169.343 200.528 168.793 201.268 168.4C202.008 168 202.855 167.8 203.808 167.8C204.715 167.8 205.528 168.007 206.248 168.42C206.968 168.827 207.535 169.387 207.948 170.1C208.368 170.813 208.578 171.627 208.578 172.54C208.578 173.2 208.491 173.76 208.318 174.22C208.145 174.68 207.885 175.107 207.538 175.5C207.191 175.893 206.758 176.32 206.238 176.78L201.398 181.1L201.168 180.5H208.578V182.49H198.838ZM215.996 182.8C215.016 182.8 214.15 182.587 213.396 182.16C212.643 181.727 212.05 181.133 211.616 180.38C211.19 179.627 210.976 178.76 210.976 177.78V172.82C210.976 171.84 211.19 170.973 211.616 170.22C212.05 169.467 212.643 168.877 213.396 168.45C214.15 168.017 215.016 167.8 215.996 167.8C216.976 167.8 217.843 168.017 218.596 168.45C219.35 168.877 219.94 169.467 220.366 170.22C220.8 170.973 221.016 171.84 221.016 172.82V177.78C221.016 178.76 220.8 179.627 220.366 180.38C219.94 181.133 219.35 181.727 218.596 182.16C217.843 182.587 216.976 182.8 215.996 182.8ZM215.996 180.8C216.53 180.8 217.013 180.673 217.446 180.42C217.886 180.16 218.236 179.813 218.496 179.38C218.756 178.94 218.886 178.45 218.886 177.91V172.67C218.886 172.137 218.756 171.653 218.496 171.22C218.236 170.78 217.886 170.433 217.446 170.18C217.013 169.92 216.53 169.79 215.996 169.79C215.463 169.79 214.976 169.92 214.536 170.18C214.103 170.433 213.756 170.78 213.496 171.22C213.236 171.653 213.106 172.137 213.106 172.67V177.91C213.106 178.45 213.236 178.94 213.496 179.38C213.756 179.813 214.103 180.16 214.536 180.42C214.976 180.673 215.463 180.8 215.996 180.8ZM223.408 182.49L223.418 180.63L229.688 175.01C230.195 174.563 230.538 174.137 230.718 173.73C230.905 173.323 230.998 172.917 230.998 172.51C230.998 171.997 230.885 171.537 230.658 171.13C230.432 170.717 230.118 170.39 229.718 170.15C229.318 169.91 228.858 169.79 228.338 169.79C227.805 169.79 227.328 169.917 226.908 170.17C226.495 170.417 226.172 170.747 225.938 171.16C225.705 171.573 225.592 172.02 225.598 172.5H223.458C223.458 171.567 223.668 170.75 224.088 170.05C224.515 169.343 225.098 168.793 225.838 168.4C226.578 168 227.425 167.8 228.378 167.8C229.285 167.8 230.098 168.007 230.818 168.42C231.538 168.827 232.105 169.387 232.518 170.1C232.938 170.813 233.148 171.627 233.148 172.54C233.148 173.2 233.062 173.76 232.888 174.22C232.715 174.68 232.455 175.107 232.108 175.5C231.762 175.893 231.328 176.32 230.808 176.78L225.968 181.1L225.738 180.5H233.148V182.49H223.408ZM240.496 182.8C239.563 182.8 238.723 182.58 237.976 182.14C237.23 181.693 236.636 181.083 236.196 180.31C235.763 179.537 235.546 178.657 235.546 177.67V173.08C235.546 172.033 235.763 171.113 236.196 170.32C236.636 169.527 237.243 168.91 238.016 168.47C238.796 168.03 239.693 167.81 240.706 167.81C241.466 167.81 242.18 167.953 242.846 168.24C243.513 168.527 244.09 168.953 244.576 169.52L243.046 170.95C242.773 170.597 242.43 170.317 242.016 170.11C241.61 169.897 241.173 169.79 240.706 169.79C240.106 169.79 239.58 169.933 239.126 170.22C238.673 170.5 238.316 170.87 238.056 171.33C237.803 171.79 237.676 172.283 237.676 172.81V175.45L237.266 174.99C237.68 174.45 238.193 174.023 238.806 173.71C239.42 173.397 240.076 173.24 240.776 173.24C241.67 173.24 242.466 173.45 243.166 173.87C243.873 174.283 244.426 174.847 244.826 175.56C245.233 176.273 245.436 177.077 245.436 177.97C245.436 178.87 245.21 179.687 244.756 180.42C244.31 181.147 243.71 181.727 242.956 182.16C242.21 182.587 241.39 182.8 240.496 182.8ZM240.496 180.79C241.016 180.79 241.49 180.663 241.916 180.41C242.343 180.157 242.683 179.817 242.936 179.39C243.19 178.963 243.316 178.49 243.316 177.97C243.316 177.45 243.19 176.977 242.936 176.55C242.69 176.123 242.353 175.783 241.926 175.53C241.5 175.277 241.026 175.15 240.506 175.15C239.986 175.15 239.51 175.277 239.076 175.53C238.65 175.783 238.31 176.123 238.056 176.55C237.803 176.977 237.676 177.45 237.676 177.97C237.676 178.483 237.803 178.953 238.056 179.38C238.31 179.807 238.65 180.15 239.076 180.41C239.503 180.663 239.976 180.79 240.496 180.79ZM191.001 192.03V190.35H197.001V192.03H191.001ZM147.852 212.8C146.872 212.8 146.005 212.587 145.252 212.16C144.498 211.727 143.905 211.133 143.472 210.38C143.045 209.627 142.832 208.76 142.832 207.78V202.82C142.832 201.84 143.045 200.973 143.472 200.22C143.905 199.467 144.498 198.877 145.252 198.45C146.005 198.017 146.872 197.8 147.852 197.8C148.832 197.8 149.698 198.017 150.452 198.45C151.205 198.877 151.795 199.467 152.222 200.22C152.655 200.973 152.872 201.84 152.872 202.82V207.78C152.872 208.76 152.655 209.627 152.222 210.38C151.795 211.133 151.205 211.727 150.452 212.16C149.698 212.587 148.832 212.8 147.852 212.8ZM147.852 210.8C148.385 210.8 148.868 210.673 149.302 210.42C149.742 210.16 150.092 209.813 150.352 209.38C150.612 208.94 150.742 208.45 150.742 207.91V202.67C150.742 202.137 150.612 201.653 150.352 201.22C150.092 200.78 149.742 200.433 149.302 200.18C148.868 199.92 148.385 199.79 147.852 199.79C147.318 199.79 146.832 199.92 146.392 200.18C145.958 200.433 145.612 200.78 145.352 201.22C145.092 201.653 144.962 202.137 144.962 202.67V207.91C144.962 208.45 145.092 208.94 145.352 209.38C145.612 209.813 145.958 210.16 146.392 210.42C146.832 210.673 147.318 210.8 147.852 210.8ZM158.174 212.5V200.4L155.464 202.05V199.72L158.174 198.1H160.304V212.5H158.174ZM163.66 212.5V210.29H165.87V212.5H163.66ZM174.043 212.8C173.063 212.8 172.196 212.587 171.443 212.16C170.69 211.727 170.096 211.133 169.663 210.38C169.236 209.627 169.023 208.76 169.023 207.78V202.82C169.023 201.84 169.236 200.973 169.663 200.22C170.096 199.467 170.69 198.877 171.443 198.45C172.196 198.017 173.063 197.8 174.043 197.8C175.023 197.8 175.89 198.017 176.643 198.45C177.396 198.877 177.986 199.467 178.413 200.22C178.846 200.973 179.063 201.84 179.063 202.82V207.78C179.063 208.76 178.846 209.627 178.413 210.38C177.986 211.133 177.396 211.727 176.643 212.16C175.89 212.587 175.023 212.8 174.043 212.8ZM174.043 210.8C174.576 210.8 175.06 210.673 175.493 210.42C175.933 210.16 176.283 209.813 176.543 209.38C176.803 208.94 176.933 208.45 176.933 207.91V202.67C176.933 202.137 176.803 201.653 176.543 201.22C176.283 200.78 175.933 200.433 175.493 200.18C175.06 199.92 174.576 199.79 174.043 199.79C173.51 199.79 173.023 199.92 172.583 200.18C172.15 200.433 171.803 200.78 171.543 201.22C171.283 201.653 171.153 202.137 171.153 202.67V207.91C171.153 208.45 171.283 208.94 171.543 209.38C171.803 209.813 172.15 210.16 172.583 210.42C173.023 210.673 173.51 210.8 174.043 210.8ZM186.125 212.8C185.385 212.8 184.695 212.65 184.055 212.35C183.422 212.043 182.878 211.623 182.425 211.09C181.972 210.55 181.648 209.93 181.455 209.23L183.465 208.69C183.578 209.117 183.772 209.487 184.045 209.8C184.325 210.113 184.652 210.357 185.025 210.53C185.398 210.697 185.785 210.78 186.185 210.78C186.712 210.78 187.188 210.653 187.615 210.4C188.048 210.147 188.388 209.807 188.635 209.38C188.888 208.953 189.015 208.483 189.015 207.97C189.015 207.443 188.885 206.967 188.625 206.54C188.372 206.113 188.028 205.777 187.595 205.53C187.168 205.277 186.698 205.15 186.185 205.15C185.598 205.15 185.102 205.267 184.695 205.5C184.288 205.733 183.972 206.003 183.745 206.31L181.925 205.67L182.365 198.1H190.135V200.07H183.435L184.285 199.28L183.935 204.95L183.525 204.42C183.905 204.04 184.358 203.75 184.885 203.55C185.412 203.35 185.935 203.25 186.455 203.25C187.348 203.25 188.145 203.457 188.845 203.87C189.552 204.283 190.108 204.847 190.515 205.56C190.922 206.267 191.125 207.07 191.125 207.97C191.125 208.863 190.895 209.677 190.435 210.41C189.975 211.137 189.365 211.717 188.605 212.15C187.845 212.583 187.018 212.8 186.125 212.8ZM193.875 212.5V210.29H196.085V212.5H193.875ZM198.838 212.49L198.848 210.63L205.118 205.01C205.625 204.563 205.968 204.137 206.148 203.73C206.335 203.323 206.428 202.917 206.428 202.51C206.428 201.997 206.315 201.537 206.088 201.13C205.861 200.717 205.548 200.39 205.148 200.15C204.748 199.91 204.288 199.79 203.768 199.79C203.235 199.79 202.758 199.917 202.338 200.17C201.925 200.417 201.601 200.747 201.368 201.16C201.135 201.573 201.021 202.02 201.028 202.5H198.888C198.888 201.567 199.098 200.75 199.518 200.05C199.945 199.343 200.528 198.793 201.268 198.4C202.008 198 202.855 197.8 203.808 197.8C204.715 197.8 205.528 198.007 206.248 198.42C206.968 198.827 207.535 199.387 207.948 200.1C208.368 200.813 208.578 201.627 208.578 202.54C208.578 203.2 208.491 203.76 208.318 204.22C208.145 204.68 207.885 205.107 207.538 205.5C207.191 205.893 206.758 206.32 206.238 206.78L201.398 211.1L201.168 210.5H208.578V212.49H198.838ZM215.996 212.8C215.016 212.8 214.15 212.587 213.396 212.16C212.643 211.727 212.05 211.133 211.616 210.38C211.19 209.627 210.976 208.76 210.976 207.78V202.82C210.976 201.84 211.19 200.973 211.616 200.22C212.05 199.467 212.643 198.877 213.396 198.45C214.15 198.017 215.016 197.8 215.996 197.8C216.976 197.8 217.843 198.017 218.596 198.45C219.35 198.877 219.94 199.467 220.366 200.22C220.8 200.973 221.016 201.84 221.016 202.82V207.78C221.016 208.76 220.8 209.627 220.366 210.38C219.94 211.133 219.35 211.727 218.596 212.16C217.843 212.587 216.976 212.8 215.996 212.8ZM215.996 210.8C216.53 210.8 217.013 210.673 217.446 210.42C217.886 210.16 218.236 209.813 218.496 209.38C218.756 208.94 218.886 208.45 218.886 207.91V202.67C218.886 202.137 218.756 201.653 218.496 201.22C218.236 200.78 217.886 200.433 217.446 200.18C217.013 199.92 216.53 199.79 215.996 199.79C215.463 199.79 214.976 199.92 214.536 200.18C214.103 200.433 213.756 200.78 213.496 201.22C213.236 201.653 213.106 202.137 213.106 202.67V207.91C213.106 208.45 213.236 208.94 213.496 209.38C213.756 209.813 214.103 210.16 214.536 210.42C214.976 210.673 215.463 210.8 215.996 210.8ZM223.408 212.49L223.418 210.63L229.688 205.01C230.195 204.563 230.538 204.137 230.718 203.73C230.905 203.323 230.998 202.917 230.998 202.51C230.998 201.997 230.885 201.537 230.658 201.13C230.432 200.717 230.118 200.39 229.718 200.15C229.318 199.91 228.858 199.79 228.338 199.79C227.805 199.79 227.328 199.917 226.908 200.17C226.495 200.417 226.172 200.747 225.938 201.16C225.705 201.573 225.592 202.02 225.598 202.5H223.458C223.458 201.567 223.668 200.75 224.088 200.05C224.515 199.343 225.098 198.793 225.838 198.4C226.578 198 227.425 197.8 228.378 197.8C229.285 197.8 230.098 198.007 230.818 198.42C231.538 198.827 232.105 199.387 232.518 200.1C232.938 200.813 233.148 201.627 233.148 202.54C233.148 203.2 233.062 203.76 232.888 204.22C232.715 204.68 232.455 205.107 232.108 205.5C231.762 205.893 231.328 206.32 230.808 206.78L225.968 211.1L225.738 210.5H233.148V212.49H223.408ZM240.496 212.8C239.563 212.8 238.723 212.58 237.976 212.14C237.23 211.693 236.636 211.083 236.196 210.31C235.763 209.537 235.546 208.657 235.546 207.67V203.08C235.546 202.033 235.763 201.113 236.196 200.32C236.636 199.527 237.243 198.91 238.016 198.47C238.796 198.03 239.693 197.81 240.706 197.81C241.466 197.81 242.18 197.953 242.846 198.24C243.513 198.527 244.09 198.953 244.576 199.52L243.046 200.95C242.773 200.597 242.43 200.317 242.016 200.11C241.61 199.897 241.173 199.79 240.706 199.79C240.106 199.79 239.58 199.933 239.126 200.22C238.673 200.5 238.316 200.87 238.056 201.33C237.803 201.79 237.676 202.283 237.676 202.81V205.45L237.266 204.99C237.68 204.45 238.193 204.023 238.806 203.71C239.42 203.397 240.076 203.24 240.776 203.24C241.67 203.24 242.466 203.45 243.166 203.87C243.873 204.283 244.426 204.847 244.826 205.56C245.233 206.273 245.436 207.077 245.436 207.97C245.436 208.87 245.21 209.687 244.756 210.42C244.31 211.147 243.71 211.727 242.956 212.16C242.21 212.587 241.39 212.8 240.496 212.8ZM240.496 210.79C241.016 210.79 241.49 210.663 241.916 210.41C242.343 210.157 242.683 209.817 242.936 209.39C243.19 208.963 243.316 208.49 243.316 207.97C243.316 207.45 243.19 206.977 242.936 206.55C242.69 206.123 242.353 205.783 241.926 205.53C241.5 205.277 241.026 205.15 240.506 205.15C239.986 205.15 239.51 205.277 239.076 205.53C238.65 205.783 238.31 206.123 238.056 206.55C237.803 206.977 237.676 207.45 237.676 207.97C237.676 208.483 237.803 208.953 238.056 209.38C238.31 209.807 238.65 210.15 239.076 210.41C239.503 210.663 239.976 210.79 240.496 210.79Z" fill="white"/>
<path d="M194 57C229.274 57 263.103 71.0125 288.045 95.9548C312.988 120.897 327 154.726 327 190C327 225.274 312.988 259.103 288.045 284.045C263.103 308.988 229.274 323 194 323V285.76C219.397 285.76 243.754 275.671 261.713 257.713C279.671 239.754 289.76 215.397 289.76 190C289.76 164.603 279.671 140.246 261.713 122.287C243.754 104.329 219.397 94.24 194 94.24V57Z" fill="#2558B4" stroke="white" stroke-width="2"/>
<path d="M64.2091 219.04C61.1662 205.44 60.2797 191.446 61.582 177.571L98.6591 181.051C97.7214 191.041 98.3596 201.117 100.551 210.909L64.2091 219.04Z" fill="#FACC15" stroke="white" stroke-width="2"/>
<path d="M61.3618 180.196C63.0827 156.914 70.902 134.494 84.0337 115.191C97.1655 95.8877 115.147 80.3813 136.171 70.2302L152.363 103.766C137.226 111.075 124.279 122.239 114.824 136.137C105.369 150.036 99.7395 166.178 98.5005 182.941L61.3618 180.196Z" fill="#F59E0B" stroke="white" stroke-width="2"/>
<path d="M134.41 71.0963C152.92 61.8199 173.341 56.993 194.045 57L194.032 94.24C179.125 94.235 164.423 97.7103 151.096 104.389L134.41 71.0963Z" fill="#6366F1" stroke="white" stroke-width="2"/>
<path d="M194 323C163.783 323 134.467 312.711 110.879 293.826C87.2901 274.941 70.8352 248.587 64.2232 219.103L100.561 210.954C105.321 232.183 117.169 251.158 134.153 264.755C151.136 278.352 172.244 285.76 194 285.76V323Z" fill="#07A239" stroke="white" stroke-width="2"/>
<circle cx="21.5" cy="343" r="6" fill="#2558B4"/>
<path d="M36.48 337.92H37.418L41.394 346.39L45.328 337.92H46.294V347.986H45.3V340.216L41.716 348H41.058L37.46 340.216V348H36.48V337.92ZM51.4155 348.21C50.6782 348.21 50.0388 348.042 49.4975 347.706C48.9562 347.37 48.5408 346.903 48.2515 346.306C47.9715 345.699 47.8315 344.999 47.8315 344.206C47.8315 343.422 47.9762 342.731 48.2655 342.134C48.5548 341.527 48.9702 341.061 49.5115 340.734C50.0528 340.398 50.6875 340.23 51.4155 340.23C52.1528 340.23 52.7922 340.398 53.3335 340.734C53.8748 341.07 54.2855 341.541 54.5655 342.148C54.8548 342.745 54.9995 343.431 54.9995 344.206C54.9995 344.999 54.8548 345.699 54.5655 346.306C54.2762 346.913 53.8608 347.384 53.3195 347.72C52.7782 348.047 52.1435 348.21 51.4155 348.21ZM51.4155 347.23C52.2275 347.23 52.8435 346.959 53.2635 346.418C53.6928 345.867 53.9075 345.13 53.9075 344.206C53.9075 343.273 53.6928 342.54 53.2635 342.008C52.8435 341.476 52.2275 341.21 51.4155 341.21C50.5942 341.21 49.9735 341.481 49.5535 342.022C49.1335 342.563 48.9235 343.291 48.9235 344.206C48.9235 345.139 49.1335 345.877 49.5535 346.418C49.9828 346.959 50.6035 347.23 51.4155 347.23ZM59.6726 348.21C58.926 348.21 58.2866 348.042 57.7546 347.706C57.2226 347.37 56.8166 346.903 56.5366 346.306C56.266 345.699 56.126 345.004 56.1166 344.22C56.126 343.427 56.2706 342.731 56.5506 342.134C56.84 341.527 57.246 341.061 57.7686 340.734C58.3006 340.398 58.94 340.23 59.6866 340.23C60.4426 340.23 61.1053 340.417 61.6746 340.79C62.244 341.163 62.6313 341.672 62.8366 342.316L61.8286 342.652C61.6606 342.195 61.3806 341.84 60.9886 341.588C60.606 341.336 60.1673 341.21 59.6726 341.21C58.8606 341.21 58.2493 341.485 57.8386 342.036C57.428 342.577 57.218 343.305 57.2086 344.22C57.218 345.144 57.4326 345.877 57.8526 346.418C58.2726 346.959 58.8793 347.23 59.6726 347.23C60.186 347.23 60.62 347.113 60.9746 346.88C61.3386 346.647 61.6186 346.301 61.8146 345.844L62.8366 346.138C62.5566 346.81 62.146 347.323 61.6046 347.678C61.0726 348.033 60.4286 348.21 59.6726 348.21ZM64.2886 340.44H65.3246V344.08L68.6986 340.44H70.0706L66.5286 344.22L70.5326 348H69.0346L65.3246 344.36V348H64.2886V340.44ZM71.2339 340.44H74.3419C74.8086 340.44 75.2146 340.487 75.5599 340.58C75.9892 340.692 76.3299 340.921 76.5819 341.266C76.8339 341.611 76.9599 342.027 76.9599 342.512C76.9599 343.025 76.8059 343.45 76.4979 343.786C76.3579 343.926 76.1992 344.038 76.0219 344.122C76.1712 344.15 76.3346 344.22 76.5119 344.332C77.0626 344.649 77.3379 345.186 77.3379 345.942C77.3379 346.446 77.2166 346.866 76.9739 347.202C76.7312 347.529 76.3952 347.753 75.9659 347.874C75.6859 347.958 75.2799 348 74.7479 348H71.2339V340.44ZM74.7059 347.132C74.9766 347.132 75.2286 347.099 75.4619 347.034C75.7326 346.969 75.9332 346.833 76.0639 346.628C76.1946 346.423 76.2599 346.185 76.2599 345.914C76.2599 345.587 76.1619 345.317 75.9659 345.102C75.7792 344.887 75.5226 344.757 75.1959 344.71C75.0559 344.682 74.8412 344.668 74.5519 344.668H72.2699V347.132H74.7059ZM74.3839 343.786C74.7106 343.786 74.9766 343.749 75.1819 343.674C75.4152 343.59 75.5926 343.45 75.7139 343.254C75.8352 343.049 75.8959 342.82 75.8959 342.568C75.8959 342.297 75.8306 342.064 75.6999 341.868C75.5692 341.663 75.3872 341.518 75.1539 341.434C74.9206 341.359 74.6172 341.322 74.2439 341.322H72.2699V343.786H74.3839ZM80.9098 348.21C80.3498 348.21 79.8738 348.112 79.4818 347.916C79.0991 347.711 78.8098 347.44 78.6138 347.104C78.4178 346.759 78.3198 346.381 78.3198 345.97C78.3198 345.373 78.4878 344.897 78.8238 344.542C79.1691 344.187 79.6404 343.931 80.2378 343.772C80.6484 343.669 81.1198 343.581 81.6518 343.506C82.1838 343.422 82.7624 343.343 83.3878 343.268C83.6678 343.231 83.8918 343.203 84.0598 343.184L83.6818 343.394C83.7004 342.638 83.5511 342.083 83.2338 341.728C82.9258 341.373 82.4031 341.196 81.6658 341.196C81.1338 341.196 80.6904 341.317 80.3358 341.56C79.9904 341.803 79.7478 342.167 79.6078 342.652L78.5998 342.358C78.7771 341.677 79.1271 341.154 79.6498 340.79C80.1818 340.417 80.8631 340.23 81.6938 340.23C82.3844 340.23 82.9724 340.361 83.4578 340.622C83.9431 340.874 84.2838 341.247 84.4798 341.742C84.5544 341.947 84.6104 342.181 84.6478 342.442C84.6851 342.703 84.7038 342.993 84.7038 343.31V348H83.7798V346.096L84.0458 346.222C83.7938 346.866 83.3971 347.361 82.8558 347.706C82.3144 348.042 81.6658 348.21 80.9098 348.21ZM81.0218 347.314C81.7218 347.314 82.2958 347.132 82.7438 346.768C83.1918 346.404 83.4671 345.923 83.5698 345.326C83.6164 345.121 83.6444 344.883 83.6538 344.612C83.6724 344.332 83.6818 344.085 83.6818 343.87L84.0738 344.08C83.9898 344.089 83.9058 344.099 83.8218 344.108C83.7471 344.117 83.6724 344.127 83.5978 344.136C82.8791 344.22 82.3004 344.295 81.8618 344.36C81.4231 344.416 81.0218 344.495 80.6578 344.598C80.2751 344.701 79.9624 344.864 79.7198 345.088C79.4771 345.303 79.3558 345.597 79.3558 345.97C79.3558 346.343 79.4911 346.661 79.7618 346.922C80.0418 347.183 80.4618 347.314 81.0218 347.314Z" fill="white"/>
<circle cx="102.5" cy="343" r="6" fill="#07A239"/>
<path d="M117.48 337.92H118.418L122.394 346.39L126.328 337.92H127.294V347.986H126.3V340.216L122.716 348H122.058L118.46 340.216V348H117.48V337.92ZM132.415 348.21C131.678 348.21 131.039 348.042 130.497 347.706C129.956 347.37 129.541 346.903 129.251 346.306C128.971 345.699 128.831 344.999 128.831 344.206C128.831 343.422 128.976 342.731 129.265 342.134C129.555 341.527 129.97 341.061 130.511 340.734C131.053 340.398 131.687 340.23 132.415 340.23C133.153 340.23 133.792 340.398 134.333 340.734C134.875 341.07 135.285 341.541 135.565 342.148C135.855 342.745 135.999 343.431 135.999 344.206C135.999 344.999 135.855 345.699 135.565 346.306C135.276 346.913 134.861 347.384 134.319 347.72C133.778 348.047 133.143 348.21 132.415 348.21ZM132.415 347.23C133.227 347.23 133.843 346.959 134.263 346.418C134.693 345.867 134.907 345.13 134.907 344.206C134.907 343.273 134.693 342.54 134.263 342.008C133.843 341.476 133.227 341.21 132.415 341.21C131.594 341.21 130.973 341.481 130.553 342.022C130.133 342.563 129.923 343.291 129.923 344.206C129.923 345.139 130.133 345.877 130.553 346.418C130.983 346.959 131.603 347.23 132.415 347.23ZM140.673 348.21C139.926 348.21 139.287 348.042 138.755 347.706C138.223 347.37 137.817 346.903 137.537 346.306C137.266 345.699 137.126 345.004 137.117 344.22C137.126 343.427 137.271 342.731 137.551 342.134C137.84 341.527 138.246 341.061 138.769 340.734C139.301 340.398 139.94 340.23 140.687 340.23C141.443 340.23 142.105 340.417 142.675 340.79C143.244 341.163 143.631 341.672 143.837 342.316L142.829 342.652C142.661 342.195 142.381 341.84 141.989 341.588C141.606 341.336 141.167 341.21 140.673 341.21C139.861 341.21 139.249 341.485 138.839 342.036C138.428 342.577 138.218 343.305 138.209 344.22C138.218 345.144 138.433 345.877 138.853 346.418C139.273 346.959 139.879 347.23 140.673 347.23C141.186 347.23 141.62 347.113 141.975 346.88C142.339 346.647 142.619 346.301 142.815 345.844L143.837 346.138C143.557 346.81 143.146 347.323 142.605 347.678C142.073 348.033 141.429 348.21 140.673 348.21ZM145.289 340.44H146.325V344.08L149.699 340.44H151.071L147.529 344.22L151.533 348H150.035L146.325 344.36V348H145.289V340.44ZM155.261 348.21C154.524 348.21 153.885 348.042 153.343 347.706C152.802 347.37 152.387 346.903 152.097 346.306C151.817 345.699 151.677 344.999 151.677 344.206C151.677 343.422 151.822 342.731 152.111 342.134C152.401 341.527 152.816 341.061 153.357 340.734C153.899 340.398 154.533 340.23 155.261 340.23C155.999 340.23 156.638 340.398 157.179 340.734C157.721 341.07 158.131 341.541 158.411 342.148C158.701 342.745 158.845 343.431 158.845 344.206C158.845 344.999 158.701 345.699 158.411 346.306C158.122 346.913 157.707 347.384 157.165 347.72C156.624 348.047 155.989 348.21 155.261 348.21ZM155.261 347.23C156.073 347.23 156.689 346.959 157.109 346.418C157.539 345.867 157.753 345.13 157.753 344.206C157.753 343.273 157.539 342.54 157.109 342.008C156.689 341.476 156.073 341.21 155.261 341.21C154.44 341.21 153.819 341.481 153.399 342.022C152.979 342.563 152.769 343.291 152.769 344.206C152.769 345.139 152.979 345.877 153.399 346.418C153.829 346.959 154.449 347.23 155.261 347.23ZM160.382 340.44H163.49C163.957 340.44 164.363 340.487 164.708 340.58C165.138 340.692 165.478 340.921 165.73 341.266C165.982 341.611 166.108 342.027 166.108 342.512C166.108 343.025 165.954 343.45 165.646 343.786C165.506 343.926 165.348 344.038 165.17 344.122C165.32 344.15 165.483 344.22 165.66 344.332C166.211 344.649 166.486 345.186 166.486 345.942C166.486 346.446 166.365 346.866 166.122 347.202C165.88 347.529 165.544 347.753 165.114 347.874C164.834 347.958 164.428 348 163.896 348H160.382V340.44ZM163.854 347.132C164.125 347.132 164.377 347.099 164.61 347.034C164.881 346.969 165.082 346.833 165.212 346.628C165.343 346.423 165.408 346.185 165.408 345.914C165.408 345.587 165.31 345.317 165.114 345.102C164.928 344.887 164.671 344.757 164.344 344.71C164.204 344.682 163.99 344.668 163.7 344.668H161.418V347.132H163.854ZM163.532 343.786C163.859 343.786 164.125 343.749 164.33 343.674C164.564 343.59 164.741 343.45 164.862 343.254C164.984 343.049 165.044 342.82 165.044 342.568C165.044 342.297 164.979 342.064 164.848 341.868C164.718 341.663 164.536 341.518 164.302 341.434C164.069 341.359 163.766 341.322 163.392 341.322H161.418V343.786H163.532ZM171.024 348.21C170.278 348.21 169.638 348.042 169.106 347.706C168.574 347.37 168.168 346.903 167.888 346.306C167.618 345.699 167.478 345.004 167.468 344.22C167.478 343.427 167.622 342.731 167.902 342.134C168.192 341.527 168.598 341.061 169.12 340.734C169.652 340.398 170.292 340.23 171.038 340.23C171.794 340.23 172.457 340.417 173.026 340.79C173.596 341.163 173.983 341.672 174.188 342.316L173.18 342.652C173.012 342.195 172.732 341.84 172.34 341.588C171.958 341.336 171.519 341.21 171.024 341.21C170.212 341.21 169.601 341.485 169.19 342.036C168.78 342.577 168.57 343.305 168.56 344.22C168.57 345.144 168.784 345.877 169.204 346.418C169.624 346.959 170.231 347.23 171.024 347.23C171.538 347.23 171.972 347.113 172.326 346.88C172.69 346.647 172.97 346.301 173.166 345.844L174.188 346.138C173.908 346.81 173.498 347.323 172.956 347.678C172.424 348.033 171.78 348.21 171.024 348.21ZM175.64 340.44H176.676V344.08L180.05 340.44H181.422L177.88 344.22L181.884 348H180.386L176.676 344.36V348H175.64V340.44ZM184.755 348.21C184.195 348.21 183.719 348.112 183.327 347.916C182.945 347.711 182.655 347.44 182.459 347.104C182.263 346.759 182.165 346.381 182.165 345.97C182.165 345.373 182.333 344.897 182.669 344.542C183.015 344.187 183.486 343.931 184.083 343.772C184.494 343.669 184.965 343.581 185.497 343.506C186.029 343.422 186.608 343.343 187.233 343.268C187.513 343.231 187.737 343.203 187.905 343.184L187.527 343.394C187.546 342.638 187.397 342.083 187.079 341.728C186.771 341.373 186.249 341.196 185.511 341.196C184.979 341.196 184.536 341.317 184.181 341.56C183.836 341.803 183.593 342.167 183.453 342.652L182.445 342.358C182.623 341.677 182.973 341.154 183.495 340.79C184.027 340.417 184.709 340.23 185.539 340.23C186.23 340.23 186.818 340.361 187.303 340.622C187.789 340.874 188.129 341.247 188.325 341.742C188.4 341.947 188.456 342.181 188.493 342.442C188.531 342.703 188.549 342.993 188.549 343.31V348H187.625V346.096L187.891 346.222C187.639 346.866 187.243 347.361 186.701 347.706C186.16 348.042 185.511 348.21 184.755 348.21ZM184.867 347.314C185.567 347.314 186.141 347.132 186.589 346.768C187.037 346.404 187.313 345.923 187.415 345.326C187.462 345.121 187.49 344.883 187.499 344.612C187.518 344.332 187.527 344.085 187.527 343.87L187.919 344.08C187.835 344.089 187.751 344.099 187.667 344.108C187.593 344.117 187.518 344.127 187.443 344.136C186.725 344.22 186.146 344.295 185.707 344.36C185.269 344.416 184.867 344.495 184.503 344.598C184.121 344.701 183.808 344.864 183.565 345.088C183.323 345.303 183.201 345.597 183.201 345.97C183.201 346.343 183.337 346.661 183.607 346.922C183.887 347.183 184.307 347.314 184.867 347.314ZM195.111 345.158H193.333C192.903 345.158 192.493 345.121 192.101 345.046C191.531 344.943 191.069 344.705 190.715 344.332C190.369 343.949 190.197 343.445 190.197 342.82C190.197 342.213 190.36 341.714 190.687 341.322C191.013 340.93 191.438 340.673 191.961 340.552C192.259 340.477 192.689 340.44 193.249 340.44H196.133L196.147 348H195.111V345.158ZM192.059 344.822H193.193L191.079 348H189.945L192.059 344.822ZM195.111 344.276V341.322H193.291C192.843 341.322 192.497 341.359 192.255 341.434C191.975 341.509 191.737 341.667 191.541 341.91C191.354 342.143 191.261 342.442 191.261 342.806C191.261 343.17 191.359 343.473 191.555 343.716C191.751 343.949 192.012 344.103 192.339 344.178C192.581 344.243 192.899 344.276 193.291 344.276H195.111ZM204.07 348.21C203.332 348.21 202.693 348.042 202.152 347.706C201.61 347.37 201.195 346.903 200.906 346.306C200.626 345.699 200.486 344.999 200.486 344.206C200.486 343.422 200.63 342.731 200.92 342.134C201.209 341.527 201.624 341.061 202.166 340.734C202.707 340.398 203.342 340.23 204.07 340.23C204.807 340.23 205.446 340.398 205.988 340.734C206.529 341.07 206.94 341.541 207.22 342.148C207.509 342.745 207.654 343.431 207.654 344.206C207.654 344.999 207.509 345.699 207.22 346.306C206.93 346.913 206.515 347.384 205.974 347.72C205.432 348.047 204.798 348.21 204.07 348.21ZM204.07 347.23C204.882 347.23 205.498 346.959 205.918 346.418C206.347 345.867 206.562 345.13 206.562 344.206C206.562 343.273 206.347 342.54 205.918 342.008C205.498 341.476 204.882 341.21 204.07 341.21C203.248 341.21 202.628 341.481 202.208 342.022C201.788 342.563 201.578 343.291 201.578 344.206C201.578 345.139 201.788 345.877 202.208 346.418C202.637 346.959 203.258 347.23 204.07 347.23ZM212.229 348.21C211.156 348.21 210.32 347.869 209.723 347.188C209.135 346.497 208.822 345.48 208.785 344.136C208.766 343.539 208.799 342.876 208.883 342.148C208.967 341.42 209.079 340.86 209.219 340.468C209.34 340.123 209.513 339.801 209.737 339.502C209.97 339.203 210.236 338.956 210.535 338.76C210.899 338.508 211.324 338.326 211.809 338.214C212.304 338.102 212.934 337.995 213.699 337.892C214.324 337.808 214.74 337.747 214.945 337.71L215.057 338.648C214.665 338.713 214.352 338.755 214.119 338.774C213.372 338.877 212.756 338.979 212.271 339.082C211.786 339.185 211.38 339.339 211.053 339.544C210.689 339.777 210.4 340.118 210.185 340.566C209.98 341.014 209.854 341.551 209.807 342.176C210.096 341.737 210.474 341.401 210.941 341.168C211.417 340.925 211.944 340.804 212.523 340.804C213.195 340.804 213.778 340.963 214.273 341.28C214.768 341.588 215.146 342.022 215.407 342.582C215.678 343.142 215.813 343.781 215.813 344.5C215.813 345.247 215.668 345.9 215.379 346.46C215.09 347.02 214.674 347.454 214.133 347.762C213.592 348.07 212.957 348.219 212.229 348.21ZM212.299 347.23C213.083 347.23 213.685 346.987 214.105 346.502C214.525 346.017 214.735 345.354 214.735 344.514C214.735 343.665 214.52 343.002 214.091 342.526C213.662 342.041 213.06 341.798 212.285 341.798C211.52 341.798 210.927 342.041 210.507 342.526C210.087 343.002 209.877 343.665 209.877 344.514C209.877 345.363 210.087 346.031 210.507 346.516C210.927 346.992 211.524 347.23 212.299 347.23ZM216.653 347.104C216.924 347.151 217.134 347.137 217.283 347.062C217.432 346.987 217.54 346.866 217.605 346.698C217.68 346.53 217.74 346.287 217.787 345.97C217.899 345.326 217.992 344.57 218.067 343.702C218.151 342.834 218.23 341.747 218.305 340.44H223.457V348H222.421V341.42H219.271C219.084 343.893 218.898 345.597 218.711 346.53C218.627 346.978 218.515 347.323 218.375 347.566C218.235 347.799 218.03 347.953 217.759 348.028C217.488 348.103 217.12 348.093 216.653 348V347.104ZM225.602 346.81H226.792V348H225.602V346.81Z" fill="white"/>
<circle cx="244.5" cy="343" r="6" fill="#F59E0B"/>
<circle cx="264.5" cy="343" r="6" fill="#6366F1"/>
<circle cx="284.5" cy="343" r="6" fill="#FACC15"/>
<path d="M303.568 348.21C302.579 348.21 301.734 347.991 301.034 347.552C300.343 347.113 299.816 346.502 299.452 345.718C299.097 344.925 298.92 344.005 298.92 342.96C298.92 341.915 299.097 341 299.452 340.216C299.816 339.423 300.343 338.807 301.034 338.368C301.734 337.929 302.579 337.71 303.568 337.71C304.548 337.71 305.383 337.929 306.074 338.368C306.774 338.807 307.301 339.423 307.656 340.216C308.02 341 308.202 341.915 308.202 342.96C308.202 344.005 308.02 344.925 307.656 345.718C307.301 346.502 306.774 347.113 306.074 347.552C305.383 347.991 304.548 348.21 303.568 348.21ZM303.568 347.216C304.716 347.225 305.593 346.843 306.2 346.068C306.807 345.293 307.11 344.257 307.11 342.96C307.11 341.663 306.807 340.631 306.2 339.866C305.593 339.091 304.716 338.704 303.568 338.704C302.42 338.695 301.543 339.077 300.936 339.852C300.329 340.617 300.021 341.653 300.012 342.96C300.003 343.809 300.133 344.556 300.404 345.2C300.675 345.835 301.076 346.329 301.608 346.684C302.14 347.039 302.793 347.216 303.568 347.216ZM312.733 348.21C311.987 348.21 311.347 348.042 310.815 347.706C310.283 347.37 309.877 346.903 309.597 346.306C309.327 345.699 309.187 345.004 309.177 344.22C309.187 343.427 309.331 342.731 309.611 342.134C309.901 341.527 310.307 341.061 310.829 340.734C311.361 340.398 312.001 340.23 312.747 340.23C313.503 340.23 314.166 340.417 314.735 340.79C315.305 341.163 315.692 341.672 315.897 342.316L314.889 342.652C314.721 342.195 314.441 341.84 314.049 341.588C313.667 341.336 313.228 341.21 312.733 341.21C311.921 341.21 311.31 341.485 310.899 342.036C310.489 342.577 310.279 343.305 310.269 344.22C310.279 345.144 310.493 345.877 310.913 346.418C311.333 346.959 311.94 347.23 312.733 347.23C313.247 347.23 313.681 347.113 314.035 346.88C314.399 346.647 314.679 346.301 314.875 345.844L315.897 346.138C315.617 346.81 315.207 347.323 314.665 347.678C314.133 348.033 313.489 348.21 312.733 348.21ZM319.229 341.392H316.541V340.44H322.939V341.392H320.251V348H319.229V341.392ZM326.15 348.21C325.59 348.21 325.114 348.112 324.722 347.916C324.339 347.711 324.05 347.44 323.854 347.104C323.658 346.759 323.56 346.381 323.56 345.97C323.56 345.373 323.728 344.897 324.064 344.542C324.409 344.187 324.881 343.931 325.478 343.772C325.889 343.669 326.36 343.581 326.892 343.506C327.424 343.422 328.003 343.343 328.628 343.268C328.908 343.231 329.132 343.203 329.3 343.184L328.922 343.394C328.941 342.638 328.791 342.083 328.474 341.728C328.166 341.373 327.643 341.196 326.906 341.196C326.374 341.196 325.931 341.317 325.576 341.56C325.231 341.803 324.988 342.167 324.848 342.652L323.84 342.358C324.017 341.677 324.367 341.154 324.89 340.79C325.422 340.417 326.103 340.23 326.934 340.23C327.625 340.23 328.213 340.361 328.698 340.622C329.183 340.874 329.524 341.247 329.72 341.742C329.795 341.947 329.851 342.181 329.888 342.442C329.925 342.703 329.944 342.993 329.944 343.31V348H329.02V346.096L329.286 346.222C329.034 346.866 328.637 347.361 328.096 347.706C327.555 348.042 326.906 348.21 326.15 348.21ZM326.262 347.314C326.962 347.314 327.536 347.132 327.984 346.768C328.432 346.404 328.707 345.923 328.81 345.326C328.857 345.121 328.885 344.883 328.894 344.612C328.913 344.332 328.922 344.085 328.922 343.87L329.314 344.08C329.23 344.089 329.146 344.099 329.062 344.108C328.987 344.117 328.913 344.127 328.838 344.136C328.119 344.22 327.541 344.295 327.102 344.36C326.663 344.416 326.262 344.495 325.898 344.598C325.515 344.701 325.203 344.864 324.96 345.088C324.717 345.303 324.596 345.597 324.596 345.97C324.596 346.343 324.731 346.661 325.002 346.922C325.282 347.183 325.702 347.314 326.262 347.314ZM331.059 347.104C331.33 347.151 331.54 347.137 331.689 347.062C331.839 346.987 331.946 346.866 332.011 346.698C332.086 346.53 332.147 346.287 332.193 345.97C332.305 345.326 332.399 344.57 332.473 343.702C332.557 342.834 332.637 341.747 332.711 340.44H337.863V348H336.827V341.42H333.677C333.491 343.893 333.304 345.597 333.117 346.53C333.033 346.978 332.921 347.323 332.781 347.566C332.641 347.799 332.436 347.953 332.165 348.028C331.895 348.103 331.526 348.093 331.059 348V347.104ZM339.812 340.44H340.848V343.282H342.612C343.144 343.282 343.55 343.31 343.83 343.366C344.427 343.478 344.899 343.721 345.244 344.094C345.589 344.458 345.762 344.976 345.762 345.648C345.762 346.264 345.599 346.763 345.272 347.146C344.945 347.529 344.516 347.781 343.984 347.902C343.685 347.967 343.261 348 342.71 348H339.812V340.44ZM342.668 347.118C343.144 347.118 343.489 347.09 343.704 347.034C343.993 346.95 344.231 346.796 344.418 346.572C344.605 346.348 344.698 346.04 344.698 345.648C344.698 345.237 344.605 344.92 344.418 344.696C344.231 344.472 343.965 344.323 343.62 344.248C343.377 344.192 343.06 344.164 342.668 344.164H340.848V347.118H342.668ZM347.099 340.44H348.121V343.73H352.391V340.44H353.413V348H352.391V344.71H348.121V348H347.099V340.44ZM355.371 340.44H356.407V343.282H357.709C358.241 343.282 358.647 343.31 358.927 343.366C360.215 343.609 360.859 344.369 360.859 345.648C360.859 346.264 360.695 346.763 360.369 347.146C360.051 347.529 359.627 347.781 359.095 347.902C358.796 347.967 358.367 348 357.807 348H355.371V340.44ZM357.765 347.118C358.25 347.118 358.6 347.09 358.815 347.034C359.095 346.95 359.328 346.796 359.515 346.572C359.701 346.348 359.795 346.04 359.795 345.648C359.795 345.237 359.701 344.92 359.515 344.696C359.328 344.472 359.062 344.323 358.717 344.248C358.474 344.192 358.157 344.164 357.765 344.164H356.407V347.118H357.765ZM361.769 340.44H362.791V348H361.769V340.44ZM367.942 348.21C367.214 348.21 366.579 348.047 366.038 347.72C365.496 347.393 365.076 346.931 364.778 346.334C364.479 345.737 364.33 345.041 364.33 344.248C364.33 343.436 364.474 342.727 364.764 342.12C365.053 341.513 365.468 341.047 366.01 340.72C366.551 340.393 367.186 340.23 367.914 340.23C368.651 340.23 369.286 340.403 369.818 340.748C370.35 341.084 370.751 341.574 371.022 342.218C371.292 342.862 371.414 343.627 371.386 344.514H370.336V344.15C370.317 343.17 370.102 342.428 369.692 341.924C369.29 341.42 368.707 341.168 367.942 341.168C367.13 341.168 366.504 341.434 366.066 341.966C365.636 342.498 365.422 343.249 365.422 344.22C365.422 345.172 365.636 345.914 366.066 346.446C366.504 346.969 367.12 347.23 367.914 347.23C368.455 347.23 368.926 347.104 369.328 346.852C369.729 346.6 370.046 346.241 370.28 345.774L371.246 346.138C370.947 346.791 370.504 347.3 369.916 347.664C369.337 348.028 368.679 348.21 367.942 348.21ZM365.058 343.646H370.84V344.514H365.058V343.646Z" fill="white"/>
</svg>
